<svg xmlns="http://www.w3.org/2000/svg" viewBox="0 0 112.17 189.84"><defs><style>.cls-1{fill:#fff;}.cls-2{fill:#e2dd24;}.cls-3{fill:#b71d29;}</style></defs><title>balloons_1</title><g id="Layer_2" data-name="Layer 2"><g id="Layer_1-2" data-name="Layer 1"><path class="cls-1" d="M34.81,105.61a1.14,1.14,0,0,0-2-1c-.12.25-10.35,13.85,2.31,36.08,12.05,21.16.08,47.3,0,47.57a1.15,1.15,0,0,0,.55,1.52,1.18,1.18,0,0,0,.48.11,1.13,1.13,0,0,0,1-.66c.52-1.11,12.6-27.46,0-49.66C25,118.38,34.69,105.85,34.81,105.61Z"/><path class="cls-1" d="M78.24,104.57a1.14,1.14,0,0,0-2,1c.12.24,14.35,12.77,2.31,33.91-12.65,22.2-.56,48.55,0,49.66a1.13,1.13,0,0,0,1,.66,1.2,1.2,0,0,0,.48-.11,1.14,1.14,0,0,0,.55-1.52c-.12-.26-12.1-26.4,0-47.57C93.15,118.42,78.36,104.82,78.24,104.57Z"/><path class="cls-2" d="M36,90.94l-5.41,4.92a3.07,3.07,0,0,0-1,2.25,2.53,2.53,0,0,0,1,2.06L38,105.39a2.23,2.23,0,0,0,2.15.22,2.94,2.94,0,0,0,1.61-1.76l2.46-7.12a21.77,21.77,0,0,1-4.44-2.43A22.53,22.53,0,0,1,36,90.94Z"/><path class="cls-3" d="M80.23,98.11a3.06,3.06,0,0,0-1-2.25l-5.41-4.92a22.55,22.55,0,0,1-3.69,3.35,21.58,21.58,0,0,1-4.44,2.43l2.46,7.12a2.94,2.94,0,0,0,1.61,1.76,2.23,2.23,0,0,0,2.15-.22l7.31-5.23A2.54,2.54,0,0,0,80.23,98.11Z"/><path class="cls-2" d="M97.95,5.9C85-3.35,69.59-1.21,57.22,8.76q1.29,1.06,2.62,2.29a63,63,0,0,1,4.66,4.79,67.16,67.16,0,0,1,4.17,5.84C83.55,45.06,85.53,80.48,71,90.86c-.4.28-.8.53-1.21.78,13.09-5.36,26.2-17,33.67-28.7C116.32,42.83,115.31,18.33,97.95,5.9Z"/><path class="cls-3" d="M68.68,90.86C86,78.43,79.27,41.79,66.38,21.68a57.92,57.92,0,0,0-4.65-6.25c-.55-.64-1.1-1.25-1.67-1.86a50.24,50.24,0,0,0-5.12-4.82C42.58-1.21,27.14-3.35,14.22,5.9c-17.36,12.43-18.37,36.93-5.48,57,7.47,11.65,20.59,23.34,33.68,28.7a38,38,0,0,0,12.53,3,21.69,21.69,0,0,0,12.53-3C67.88,91.39,68.29,91.14,68.68,90.86Z"/></g></g></svg>