<svg xmlns="http://www.w3.org/2000/svg" viewBox="0 0 77.5 90.18"><defs><style>.cls-1{fill:#ddd317;}.cls-2{fill:none;stroke:#b2a718;stroke-miterlimit:10;}.cls-3{fill:#f2ecc0;}.cls-4{fill:#ede5b2;}</style></defs><title>banana_4</title><g id="Layer_2" data-name="Layer 2"><g id="Layer_1-2" data-name="Layer 1"><path class="cls-1" d="M53,41a18.67,18.67,0,0,0-9-1A100.61,100.61,0,0,1,26,52C12.56,59,.23,61.4,0,67a5,5,0,0,0,1,3,53.59,53.59,0,0,0,31,5A53.56,53.56,0,0,0,60,62a64.63,64.63,0,0,0,0-8,64.62,64.62,0,0,0-1-8Z"/><path class="cls-2" d="M3,67a106.93,106.93,0,0,0,32.5-9.5,106.63,106.63,0,0,0,22-14"/><path class="cls-3" d="M49.36,34.87,53,41l6,5,9,5a42.14,42.14,0,0,0,9-20A43,43,0,0,0,71.27,2.52,7,7,0,0,0,66,0a6.62,6.62,0,0,0-3,1,8.39,8.39,0,0,0-3,3,65.54,65.54,0,0,1-3,15A65.59,65.59,0,0,1,49.36,34.87Z"/><path class="cls-4" d="M52.15,90.18a4.14,4.14,0,0,1-4.5-4.72,1.57,1.57,0,0,1,.45-.9c5.94-5.94,9.32-13.74,10-23.18a52.31,52.31,0,0,0-1.6-17.24,1.57,1.57,0,0,1,.24-1.39,1.59,1.59,0,0,1,1.69-.58,26,26,0,0,1,11.33,6.48c5.06,5.06,3.72,16,.15,24.65C66.58,81.46,60.13,90.18,52.15,90.18Z"/><path class="cls-4" d="M14.24,55.1A4.13,4.13,0,0,1,10,50.76c-.17-3.58,1.51-7.33,4.85-10.83,6.32-6.62,17.8-11.62,26.69-11.62,3.89,0,7,1,9.11,2.89l.06.06a22.75,22.75,0,0,1,2.4,2.57,26,26,0,0,1,4.55,8.42,1.62,1.62,0,0,1,.08.48,1.57,1.57,0,0,1-2,1.52,48.56,48.56,0,0,0-9.49-1.15l-1.56,0a51.42,51.42,0,0,0-6.24.37c-9.41,1.17-17,4.9-22.68,11.11a1.56,1.56,0,0,1-.88.49A4,4,0,0,1,14.24,55.1Z"/><path d="M0,67.51c.13,2,2,3.8,3,3.5s1.13-2.27,1-3.5C3.86,66.07,3.07,64,2,64S-.1,65.86,0,67.51Z"/></g></g></svg>