<svg xmlns="http://www.w3.org/2000/svg" viewBox="0 0 52 83.5"><defs><style>.cls-1{fill:#f2f2f2;}.cls-2{fill:#d8d8d8;}.cls-3{fill:#e01e1e;}.cls-4{fill:none;stroke:#a8a7a7;stroke-miterlimit:10;stroke-width:2px;}.cls-5{fill:#828282;}</style></defs><title>can_1</title><g id="Layer_2" data-name="Layer 2"><g id="Layer_1-2" data-name="Layer 1"><path class="cls-1" d="M38.5,82A71.23,71.23,0,0,1,25,83c-6-.13-11.08-.3-16.71-3A29.31,29.31,0,0,1,1,75L2,12H51Z"/><ellipse class="cls-2" cx="26" cy="9" rx="25" ry="8"/><path class="cls-3" d="M46.59,14.71A16.45,16.45,0,0,0,51,11.59V73a4.49,4.49,0,0,1-.91,2.59c-2.74,4.66-12.74,7.91-24.64,7.91C11.75,83.5.56,79.19.09,73.38A3.59,3.59,0,0,1,0,72.67l.52-61c4.14,4.28,13.76,7.22,25.23,7.22q1.48,0,2.93-.07C30.36,21,28.41,25.62,27,27a26.22,26.22,0,0,1-5.6,3.77c-4.12,2.31-8.8,4.93-10.33,10.94-1.39,5.46.12,8,2,11.19a28.55,28.55,0,0,1,3.64,8.31C18.53,68.51,6.12,73.47,1.68,75c2.52,4.14,12.55,7.5,23.78,7.5a55.79,55.79,0,0,0,6.81-.42c1.86-4.2,5.35-13.59,3.38-21.33a30.68,30.68,0,0,0-3.86-8.84c-1.8-3-3-5-1.81-9.67,1.41-5.53,5.77-8,10-10.32a35.59,35.59,0,0,0,5.35-3.4A9,9,0,0,0,48.6,21.9,11.87,11.87,0,0,0,46.59,14.71ZM38.74,7.57a.91.91,0,1,0,.91-.91.91.91,0,0,0-.91.91s0,0,0,.06Zm0,3.33a.91.91,0,1,0,.91-.91.91.91,0,0,0-.91.91.91.91,0,0,0,0,.12Z"/><path class="cls-4" d="M51,10c-.11,4.28-13.84,8-25,8S1.11,14.28,1,10,14.23,1,26,1,51.11,5.75,51,10Z"/><ellipse class="cls-5" cx="39.5" cy="9.5" rx="2.5" ry="4.5"/><path class="cls-5" d="M38.07,6.88,32.24,4.33A6.48,6.48,0,0,0,29.68,9a6.49,6.49,0,0,0,2,5L38,11.73Z"/><circle class="cls-2" cx="39" cy="8" r="1"/><circle class="cls-2" cx="39" cy="11" r="1"/><path class="cls-2" d="M36,7.83,32.62,6.33a3.8,3.8,0,0,0-1.5,2.74A3.81,3.81,0,0,0,32.29,12L36,10.67Z"/></g></g></svg>