<svg xmlns="http://www.w3.org/2000/svg" viewBox="0 0 290.29 169.16"><defs><style>.cls-1{fill:#d1d3d3;}.cls-2{fill:#315e2d;}.cls-3{font-size:20.65px;}.cls-14,.cls-3{fill:#fff;font-family:Chalkduster, Chalkduster;}.cls-4{letter-spacing:0em;}.cls-5{letter-spacing:-0.13em;}.cls-6{letter-spacing:0.05em;}.cls-7{letter-spacing:0em;}.cls-8{letter-spacing:0.05em;}.cls-9{letter-spacing:-0.19em;}.cls-10{letter-spacing:0em;}.cls-11{letter-spacing:-0.06em;}.cls-12{letter-spacing:0.02em;}.cls-13{letter-spacing:0.03em;}.cls-14{font-size:24.81px;}.cls-15{letter-spacing:0em;}.cls-16{letter-spacing:-0.03em;}.cls-17{letter-spacing:-0.01em;}.cls-18{letter-spacing:0.03em;}.cls-19{letter-spacing:0em;}.cls-20{letter-spacing:0.05em;}.cls-21{letter-spacing:0.04em;}.cls-22{letter-spacing:0.01em;}.cls-23{letter-spacing:0em;}.cls-24{letter-spacing:0.02em;}.cls-25{letter-spacing:-0.06em;}</style></defs><title>chalkboard</title><g id="Layer_2" data-name="Layer 2"><g id="Layer_1-2" data-name="Layer 1"><rect class="cls-1" width="290.29" height="169.16"/><rect class="cls-2" x="6.49" y="5.35" width="277.31" height="156.85"/><text class="cls-3" transform="translate(31.9 40.6)">MR ELEMEN<tspan class="cls-4" x="134.62" y="0">T</tspan><tspan x="150.49" y="0">O’S LAB</tspan></text><text class="cls-3" transform="translate(42.56 85.78)"><tspan class="cls-5">T</tspan><tspan class="cls-6" x="13.15" y="0">o</tspan><tspan x="29.01" y="0">d</tspan><tspan class="cls-7" x="45.14" y="0">a</tspan><tspan class="cls-8" x="59.4" y="0">y</tspan><tspan class="cls-9" x="73.01" y="0">’</tspan><tspan class="cls-10" x="75.58" y="0">s </tspan><tspan class="cls-11" x="96.28" y="0">l</tspan><tspan class="cls-12" x="104.84" y="0">e</tspan><tspan class="cls-10" x="118.12" y="0">ss</tspan><tspan class="cls-13" x="138.98" y="0">o</tspan><tspan x="154.34" y="0">n is</tspan></text><text class="cls-14" transform="translate(15.49 129.53)"><tspan class="cls-15">T</tspan><tspan x="19.06" y="0">he </tspan><tspan class="cls-16" x="62.11" y="0">P</tspan><tspan class="cls-17" x="79.11" y="0">e</tspan><tspan class="cls-18" x="94.24" y="0">r</tspan><tspan class="cls-19" x="107.98" y="0">i</tspan><tspan class="cls-20" x="117.77" y="0">o</tspan><tspan class="cls-21" x="136.82" y="0">d</tspan><tspan class="cls-22" x="157.22" y="0">i</tspan><tspan x="167.26" y="0">c </tspan><tspan class="cls-17" x="195.2" y="0">t</tspan><tspan class="cls-23" x="206.28" y="0">a</tspan><tspan class="cls-24" x="223.41" y="0">b</tspan><tspan class="cls-25" x="238.36" y="0">l</tspan><tspan class="cls-19" x="248.64" y="0">e</tspan></text></g></g></svg>