<svg id="Layer_1" data-name="Layer 1" xmlns="http://www.w3.org/2000/svg" viewBox="0 0 1200 800"><defs><style>.cls-1{fill:none;stroke:#4aa3a5;stroke-width:8.21px;}.cls-1,.cls-10{stroke-miterlimit:10;}.cls-2{fill:#c6cac8;}.cls-10,.cls-3{fill:#fff;}.cls-4{fill:#ecbd13;}.cls-5{fill:#b6ffff;}.cls-6{fill:#d61561;}.cls-7{fill:#2db9ac;}.cls-8{fill:#c71e5a;}.cls-9{fill:#ededed;}.cls-10{stroke:#fff;stroke-width:4.05px;}.cls-11{fill:#26e4f5;}.cls-12{fill:#ff7415;}.cls-13{fill:#bfbebe;}.cls-14{fill:#cac7c8;}.cls-15{fill:#424a51;}.cls-16{fill:#ffce61;}.cls-17{fill:#f89e54;}.cls-18{fill:#424952;}</style></defs><title>contents</title><circle class="cls-1" cx="118.53" cy="75.43" r="24.25"/><circle class="cls-1" cx="265.49" cy="159.68" r="24.25"/><circle class="cls-1" cx="265.49" cy="330.3" r="24.25"/><circle class="cls-1" cx="409.13" cy="78.59" r="24.25"/><circle class="cls-1" cx="555.08" cy="159.68" r="24.25"/><circle class="cls-1" cx="555.08" cy="330.3" r="24.25"/><circle class="cls-1" cx="409.13" cy="412.35" r="24.25"/><circle class="cls-1" cx="697.94" cy="78.59" r="24.25"/><circle class="cls-1" cx="845.97" cy="159.68" r="24.25"/><circle class="cls-1" cx="845.97" cy="330.3" r="24.25"/><circle class="cls-1" cx="697.94" cy="412.35" r="24.25"/><circle class="cls-1" cx="411.69" cy="581.91" r="24.25"/><circle class="cls-1" cx="555.08" cy="664.75" r="24.25"/><circle class="cls-1" cx="701.98" cy="581.91" r="24.25"/><circle class="cls-1" cx="845.97" cy="664.75" r="24.25"/><circle class="cls-1" cx="992.3" cy="412.35" r="24.25"/><circle class="cls-1" cx="992.3" cy="581.91" r="24.25"/><circle class="cls-1" cx="1108.14" cy="650.12" r="24.25"/><line class="cls-1" x1="141.77" y1="92.03" x2="248.1" y2="150.54"/><line class="cls-1" x1="289.74" y1="147.53" x2="384.88" y2="89.32"/><line class="cls-1" x1="265.49" y1="183.93" x2="265" y2="306"/><line class="cls-1" x1="286" y1="344" x2="387.36" y2="401.67"/><line class="cls-1" x1="433.38" y1="88.68" x2="532.41" y2="151.06"/><line class="cls-1" x1="555.08" y1="183.93" x2="555.08" y2="306"/><line class="cls-1" x1="575.64" y1="343.11" x2="678.46" y2="405.58"/><line class="cls-1" x1="575.34" y1="146.36" x2="673.69" y2="89.16"/><line class="cls-1" x1="722.19" y1="90.94" x2="824.33" y2="148.73"/><line class="cls-1" x1="845.97" y1="183.93" x2="845.97" y2="306.05"/><line class="cls-1" x1="824.17" y1="340.92" x2="722.19" y2="403.99"/><line class="cls-1" x1="866.72" y1="342.8" x2="971.95" y2="399.18"/><line class="cls-1" x1="992.3" y1="436.6" x2="992.3" y2="557.66"/><line class="cls-1" x1="1012.34" y1="591.46" x2="1083.89" y2="637.81"/><line class="cls-1" x1="868.13" y1="654.9" x2="972.28" y2="595.59"/><line class="cls-1" x1="824.14" y1="654.17" x2="722.19" y2="595.29"/><line class="cls-1" x1="677.73" y1="596.09" x2="579.33" y2="654.62"/><line class="cls-1" x1="433.38" y1="598.32" x2="535.55" y2="654.62"/><line class="cls-1" x1="411.57" y1="559.71" x2="409.13" y2="436.6"/><line class="cls-1" x1="698.08" y1="432.93" x2="698.08" y2="561.45"/><line class="cls-1" x1="536.81" y1="342.67" x2="433.99" y2="402.03"/><rect class="cls-2" x="200.17" y="530.87" width="3.97" height="66.75" rx="1.99" ry="1.99"/><rect class="cls-2" x="230.28" y="530.87" width="3.97" height="66.75" rx="1.99" ry="1.99"/><rect class="cls-2" x="285.48" y="530.87" width="3.97" height="66.75" rx="1.99" ry="1.99"/><rect class="cls-2" x="200.17" y="529.87" width="127.46" height="5.96"/><path class="cls-3" d="M144.68,285l33.62.21A3.76,3.76,0,0,1,182,289h0a3.76,3.76,0,0,1-3.72,3.77l-33.62-.21a3.76,3.76,0,0,1-3.68-3.82h0A3.76,3.76,0,0,1,144.68,285Z"/><path class="cls-3" d="M149,266.6h.35a3.8,3.8,0,0,1,3.71,3.85L153,285.7a3.79,3.79,0,0,1-3.76,3.81h-.35a3.8,3.8,0,0,1-3.71-3.85l.09-15.24A3.79,3.79,0,0,1,149,266.6Z"/><path class="cls-3" d="M193.75,205.22h0a4,4,0,0,0-5.16,2.58L167.94,269.4a4.2,4.2,0,0,0,2.52,5.29h0a4,4,0,0,0,5.16-2.58l20.66-61.59A4.2,4.2,0,0,0,193.75,205.22Z"/><path class="cls-3" d="M130.21,204l62,.38a4.52,4.52,0,0,1,4.42,4.59h0a4.52,4.52,0,0,1-4.47,4.53l-62-.38a4.52,4.52,0,0,1-4.42-4.59h0A4.52,4.52,0,0,1,130.21,204Z"/><path class="cls-3" d="M127.56,204.3l.31-.11a3.79,3.79,0,0,1,4.8,2.48l20.07,62.27a3.93,3.93,0,0,1-2.42,4.93L150,274a3.79,3.79,0,0,1-4.8-2.48l-20.07-62.27A3.93,3.93,0,0,1,127.56,204.3Z"/><path class="cls-4" d="M173.95,246.35l-27-.17-9.22-30.92,46.06.59Z"/><path class="cls-3" d="M171.42,267.58h.7a4,4,0,0,1,3.87,4l-.08,13.87a4,4,0,0,1-3.91,4h-.7a4,4,0,0,1-3.87-4l.08-13.87A4,4,0,0,1,171.42,267.58Z"/><path class="cls-5" d="M228.28,513.8c0-1.66-.87-3-1.95-3H207.48c-1.07,0-1.95,1.35-1.95,3s.85,3,1.9,3v57.77c0,7.3,4.25,13.24,9.47,13.24s9.47-5.94,9.47-13.24V516.8C227.43,516.76,228.28,515.43,228.28,513.8Zm-3.33,60.77c0,6.2-3.61,11.24-8,11.24s-8-5-8-11.24V516.8h16.08v57.76Zm1.39-59.77H207.48c-.28,0-.52-.46-.52-1s.24-1,.52-1h18.86c.28,0,.52.46.52,1S226.61,514.8,226.33,514.8Z"/><path class="cls-6" d="M207.43,545.72h18.92v33.88c0,.7-.34,6.19-5,9a10.81,10.81,0,0,1-4.49,1.49,11.37,11.37,0,0,1-5-2,11.11,11.11,0,0,1-4.33-8.44Z"/><path class="cls-5" d="M318.08,512.64c0-1.66-.87-3-1.95-3H297.28c-1.07,0-1.95,1.35-1.95,3s.85,3,1.9,3v57.77c0,7.3,4.25,13.24,9.47,13.24s9.47-5.94,9.47-13.24V515.64C317.23,515.6,318.08,514.27,318.08,512.64Zm-3.33,60.77c0,6.2-3.61,11.24-8,11.24s-8-5-8-11.24V515.64h16.08v57.76Zm1.39-59.77H297.28c-.28,0-.52-.46-.52-1s.24-1,.52-1h18.86c.28,0,.52.46.52,1S316.42,513.64,316.14,513.64Z"/><path class="cls-7" d="M297.24,544.56h18.92v33.88c0,.7-.34,6.19-5,9a10.81,10.81,0,0,1-4.49,1.49,11.37,11.37,0,0,1-5-2,11.11,11.11,0,0,1-4.33-8.44Z"/><path class="cls-3" d="M220.56,575.17a3.62,3.62,0,1,0-3.62-3.62A3.63,3.63,0,0,0,220.56,575.17Zm0-5.57a2,2,0,1,1-2,2A2,2,0,0,1,220.56,569.6Z"/><path class="cls-3" d="M215,579.92a2.51,2.51,0,1,0-2.51-2.51A2.51,2.51,0,0,0,215,579.92Zm0-3.35a.84.84,0,1,1-.84.84A.84.84,0,0,1,215,576.57Z"/><path class="cls-5" d="M271.45,511.63c0-1.66-.87-3-1.95-3H250.65c-1.07,0-1.95,1.35-1.95,3s.85,3,1.9,3V572.4c0,7.3,4.25,13.24,9.47,13.24s9.47-5.94,9.47-13.24V514.63C270.6,514.6,271.45,513.27,271.45,511.63Zm-3.33,60.77c0,6.2-3.61,11.24-8,11.24s-8-5-8-11.24V514.64h16.08V572.4Zm1.39-59.77H250.65c-.28,0-.52-.46-.52-1s.24-1,.52-1H269.5c.28,0,.52.46.52,1S269.78,512.63,269.5,512.63Z"/><path class="cls-3" d="M306.95,572.8a3.62,3.62,0,1,0-3.62,3.62A3.63,3.63,0,0,0,306.95,572.8Zm-1.67,0a2,2,0,1,1-2-2A2,2,0,0,1,305.27,572.8Z"/><path class="cls-3" d="M311.39,578.66a2.51,2.51,0,1,0-2.51,2.51A2.51,2.51,0,0,0,311.39,578.66Zm-1.67,0a.84.84,0,1,1-.84-.84A.84.84,0,0,1,309.72,578.66Z"/><circle class="cls-4" cx="260.52" cy="564.17" r="21.62"/><rect class="cls-4" x="250.56" y="533.95" width="19.03" height="11.78"/><path class="cls-3" d="M67.37,361V301.73c0-6.22-4.65-11.23-10.43-11.23s-10.43,5-10.43,11.23V361a17.24,17.24,0,0,0-5.4,12.85c0,9.47,7.16,17,15.84,17s15.84-7.71,15.84-17A17.24,17.24,0,0,0,67.37,361Zm-10.43,25.3c-6.41,0-11.56-5.55-11.56-12.45A12.72,12.72,0,0,1,49.9,364l.88-.68V301.73a6.17,6.17,0,1,1,12.32,0v11.9H56.94v4.6h6.16v5.55H56.94v4.6h6.16v5.41H56.94v4.6h6.16V363l.88.68a12.72,12.72,0,0,1,4.52,9.87C68.5,380.73,63.22,386.27,56.94,386.27Z"/><path class="cls-8" d="M59.2,365.71V345.56h-5v20.29a8.63,8.63,0,0,0-5.28,8c0,4.73,3.52,8.52,7.92,8.52s7.92-3.79,7.92-8.52A8.24,8.24,0,0,0,59.2,365.71Z"/><circle class="cls-9" cx="149.88" cy="335.31" r="19.29"/><circle class="cls-9" cx="177.86" cy="352.85" r="16.02"/><circle class="cls-9" cx="157.93" cy="364.82" r="13.68"/><line class="cls-10" x1="307.03" y1="510.64" x2="307.03" y2="432.99"/><line class="cls-10" x1="355.2" y1="508.79" x2="355.2" y2="431.15"/><line class="cls-10" x1="305.07" y1="432.99" x2="355.2" y2="432.99"/><path class="cls-11" d="M355.24,519.1a.47.47,0,0,1,.3.14c3.39,3.7,6.6,8.09,6.6,12.24S359.05,539,355.2,539s-6.94-3.39-6.94-7.52,3.21-8.54,6.6-12.24a.47.47,0,0,1,.38-.14Z"/><path class="cls-12" d="M142.67,439.78c-9.32,7.95-13.56,20.07-10.9,31.32,3.44,14.53,17.52,23.87,31.63,23.63,12.52-.21,25.16-8,29.65-21.1a31.76,31.76,0,0,0-8.66-33.41"/><path class="cls-3" d="M197.36,436.89a43.8,43.8,0,0,0-21.47-15.06V400.34a3.94,3.94,0,0,0,3.19-3.86,4.39,4.39,0,0,0-3.62-4.17,1.56,1.56,0,0,0-.31,0H150.53a1.55,1.55,0,0,0-.31,0,4.4,4.4,0,0,0-3.62,4.17,3.94,3.94,0,0,0,3.19,3.86v21.49a43.8,43.8,0,0,0-21.47,15.06,43.06,43.06,0,0,0-8.94,26.4,43.45,43.45,0,1,0,86.91,0A43,43,0,0,0,197.36,436.89Zm-34.5,60.88c-19.76,0-34-17.27-34.17-34.17-.13-16.22,12.8-28.41,23.32-32.87a31.93,31.93,0,0,1,4-1.38l-.17-26.1,14-.26v26.19a34.75,34.75,0,0,1,4,1.55c9.89,4.59,23.38,16.56,23.28,32.87C196.93,480.2,182.78,497.77,162.85,497.77Z"/><circle class="cls-3" cx="148.18" cy="463.3" r="8.44"/><circle class="cls-3" cx="157.21" cy="478.72" r="4.22"/><rect class="cls-13" x="137.16" y="575.07" width="49.58" height="13.98"/><rect class="cls-14" x="153.64" y="564.17" width="13.7" height="11.97"/><rect class="cls-15" x="153.64" y="571.55" width="13.7" height="3.35"/><ellipse class="cls-16" cx="160.96" cy="557.68" rx="5.82" ry="4.74"/><path class="cls-17" d="M166.74,546.32a5.8,5.8,0,0,0-.78,3.51c-3.33-4.43-4.36-7.36-3.93-9.77-2.51,1-5.22,4.84-5.52,7.9-1.25-1-.8-3.27-.43-3.86-3.67,3.7-4.75,8.11-4,10.69a11.06,11.06,0,0,0,4.68,6.16c-1.48-3,2.23-3.78,2.38-6a1.72,1.72,0,0,1,.56,2.11c.89-.5,2.29-2.63,1.62-4,2.38.9,5.8,5.21,3.54,8.17,3-1.79,4.87-4.15,4.49-7.14S166.52,548,166.74,546.32Z"/><path class="cls-3" d="M371,556.75l-2.44,3.9v33.13c0,1.75-.68,2.43-2.43,2.43H343.71c-1.75,0-2.43-.68-2.43-2.43V560.65l-2.44-3.9H336l2.87,4.6v32.44c0,3.09,1.77,4.86,4.86,4.86h22.45c3.09,0,4.86-1.77,4.86-4.86V561.34l2.87-4.6Z"/><path class="cls-11" d="M343.7,562.21v31.57h22.46V562.21Zm19.43,29.14h-4.86v-2.43h4.86Zm0-4.86h-4.86v-2.43h4.86Zm0-4.86h-4.86v-2.43h4.86Zm0-4.86h-4.86v-2.43h4.86Zm0-4.86h-4.86V569.5h4.86Zm0-4.86h-4.86v-2.43h4.86Z"/><rect class="cls-18" x="72.77" y="590.42" width="121.92" height="7.2"/><rect class="cls-18" x="76.2" y="407.19" width="121.92" height="7.2"/><rect class="cls-18" x="74.57" y="263" width="121.92" height="7.2"/><rect class="cls-18" x="86.76" y="254.3" width="5.86" height="342.33"/><circle class="cls-13" cx="89.15" cy="594.24" r="2.39"/><circle class="cls-13" cx="89.69" cy="410.79" r="2.39"/><circle class="cls-13" cx="89.69" cy="266.6" r="2.39" transform="translate(-167.22 152.06) rotate(-47.38)"/><path class="cls-3" d="M263.9,534.52a3.62,3.62,0,1,0-3.62-3.62A3.63,3.63,0,0,0,263.9,534.52Zm0-5.57a2,2,0,1,1-2,2A2,2,0,0,1,263.9,528.94Z"/><path class="cls-3" d="M258.35,539.27a2.51,2.51,0,1,0-2.51-2.51A2.51,2.51,0,0,0,258.35,539.27Zm0-3.35a.84.84,0,1,1-.84.84A.84.84,0,0,1,258.35,535.91Z"/><rect class="cls-3" x="38.02" y="598.83" width="364.98" height="21.93"/><rect class="cls-2" x="323.66" y="529.87" width="4.49" height="69.03" rx="2.15" ry="2.15"/></svg>