<svg xmlns="http://www.w3.org/2000/svg" viewBox="0 0 1200.44 598.61"><defs><style>.cls-1{fill:none;stroke:#fff;stroke-miterlimit:10;stroke-width:3.41px;}.cls-2{fill:#c6cac8;}.cls-3{fill:#fff;}.cls-4{fill:#ecbd13;}.cls-5{fill:#b6ffff;}.cls-6{fill:#f40b27;}.cls-7{fill:#2fd33b;}.cls-8{fill:#ededed;}.cls-9{fill:#26e4f5;}.cls-10{fill:#ff7415;}.cls-11{fill:#bfbebe;}.cls-12{fill:#cac7c8;}.cls-13{fill:#424a51;}.cls-14{fill:#ffce61;}.cls-15{fill:#f89e54;}.cls-16{fill:#424952;}.cls-17{fill:#a5e1ef;}.cls-18{fill:#52a1a2;}</style></defs><title>contentsbg_1</title><g id="Layer_2" data-name="Layer 2"><g id="Layer_1-2" data-name="Layer 1"><line class="cls-1" x1="286.36" y1="256.54" x2="286.36" y2="191.26"/><line class="cls-1" x1="245.89" y1="192.28" x2="288.04" y2="192.28"/><path class="cls-2" d="M158.62,274.87h0a1.67,1.67,0,0,1,1.67,1.67v52.78a1.67,1.67,0,0,1-1.67,1.67h0a1.67,1.67,0,0,1-1.67-1.67V276.54A1.67,1.67,0,0,1,158.62,274.87Z"/><path class="cls-2" d="M183.94,274.87h0a1.67,1.67,0,0,1,1.67,1.67v52.78a1.67,1.67,0,0,1-1.67,1.67h0a1.67,1.67,0,0,1-1.67-1.67V276.54A1.67,1.67,0,0,1,183.94,274.87Z"/><path class="cls-2" d="M230.35,274.87h0a1.67,1.67,0,0,1,1.67,1.67v52.78a1.67,1.67,0,0,1-1.67,1.67h0a1.67,1.67,0,0,1-1.67-1.67V276.54A1.67,1.67,0,0,1,230.35,274.87Z"/><rect class="cls-2" x="156.95" y="274.03" width="107.18" height="5.01"/><path class="cls-3" d="M110.28,68.11l28.27.18a3.16,3.16,0,0,1,3.11,3.19h0a3.16,3.16,0,0,1-3.13,3.17l-28.27-.18a3.16,3.16,0,0,1-3.09-3.21h0A3.16,3.16,0,0,1,110.28,68.11Z"/><path class="cls-3" d="M113.92,52.64h.29a3.2,3.2,0,0,1,3.12,3.24l-.05,12.82a3.19,3.19,0,0,1-3.16,3.2h-.29a3.2,3.2,0,0,1-3.12-3.24l.08-12.82A3.19,3.19,0,0,1,113.92,52.64Z"/><path class="cls-3" d="M151.55,1h0a3.36,3.36,0,0,0-4.3,2l0,.13L129.84,55A3.53,3.53,0,0,0,132,59.44h0a3.36,3.36,0,0,0,4.3-2l0-.13L153.68,5.48A3.53,3.53,0,0,0,151.55,1Z"/><path class="cls-3" d="M97.12,0l52.14.32A3.8,3.8,0,0,1,153,4.18h0A3.8,3.8,0,0,1,149.21,8L97.07,7.67a3.8,3.8,0,0,1-3.72-3.86h0A3.8,3.8,0,0,1,97.12,0Z"/><path class="cls-3" d="M95.89.25l.26-.09a3.19,3.19,0,0,1,4,2l0,0,16.88,52.36a3.3,3.3,0,0,1-2,4.15l-.27.11a3.19,3.19,0,0,1-4-2l0,0L93.84,4.41A3.3,3.3,0,0,1,95.89.25Z"/><path class="cls-4" d="M134.9,35.61l-22.7-.14-7.75-26,38.73.5Z"/><path class="cls-3" d="M132.77,53.47h.59a3.36,3.36,0,0,1,3.25,3.36l-.07,11.66a3.36,3.36,0,0,1-3.29,3.36h-.59a3.36,3.36,0,0,1-3.25-3.36l.07-11.66A3.36,3.36,0,0,1,132.77,53.47Z"/><path class="cls-5" d="M180.59,260.52c0-1.4-.73-2.52-1.64-2.52H163.09c-.9,0-1.64,1.14-1.64,2.52s.71,2.52,1.6,2.52v48.58c0,6.14,3.57,11.13,8,11.13s8-5,8-11.13V263C179.87,263,180.59,261.89,180.59,260.52Zm-2.8,51.1c0,5.21-3,9.45-6.73,9.45s-6.73-4.2-6.73-9.45V263h13.52v48.57ZM179,261.36H163.09c-.24,0-.44-.39-.44-.84s.2-.84.44-.84H179c.24,0,.44.39.44.84s-.21.84-.45.84Z"/><path class="cls-6" d="M163.05,287.36H179v28.49c0,.59-.29,5.21-4.2,7.57a9.09,9.09,0,0,1-3.78,1.25,9.56,9.56,0,0,1-4.2-1.68,9.34,9.34,0,0,1-3.64-7.1Z"/><path class="cls-5" d="M256.1,259.54c0-1.4-.73-2.52-1.64-2.52H238.61c-.9,0-1.64,1.14-1.64,2.52s.71,2.52,1.6,2.52v48.58c0,6.14,3.57,11.13,8,11.13s8-5,8-11.13V262.06C255.38,262,256.1,260.91,256.1,259.54Zm-2.8,51.1c0,5.21-3,9.45-6.73,9.45s-6.73-4.2-6.73-9.45V262.06h13.52v48.57Zm1.17-50.26H238.61c-.24,0-.44-.39-.44-.84s.2-.84.44-.84h15.86c.24,0,.44.39.44.84S254.7,260.38,254.47,260.38Z"/><path class="cls-7" d="M238.57,286.38h15.91v28.49c0,.59-.29,5.21-4.2,7.57a9.09,9.09,0,0,1-3.78,1.25,9.56,9.56,0,0,1-4.2-1.68,9.34,9.34,0,0,1-3.64-7.1Z"/><path class="cls-3" d="M174.09,312.12a3,3,0,1,0-3-3h0A3.05,3.05,0,0,0,174.09,312.12Zm0-4.68a1.68,1.68,0,1,1-1.68,1.68A1.68,1.68,0,0,1,174.09,307.44Z"/><path class="cls-3" d="M169.42,316.12a2.11,2.11,0,1,0-2.11-2.11,2.11,2.11,0,0,0,2.11,2.11Zm0-2.82a.71.71,0,1,1-.71.71.71.71,0,0,1,.71-.71Z"/><path class="cls-5" d="M216.89,258.69c0-1.4-.73-2.52-1.64-2.52H199.4c-.9,0-1.64,1.14-1.64,2.52s.71,2.52,1.6,2.52v48.58c0,6.14,3.57,11.13,8,11.13s8-5,8-11.13V261.21C216.17,261.19,216.89,260.07,216.89,258.69Zm-2.8,51.1c0,5.21-3,9.45-6.73,9.45s-6.73-4.2-6.73-9.45V261.22h13.52v48.57Zm1.17-50.26H199.4c-.24,0-.44-.39-.44-.84s.2-.84.44-.84h15.85c.24,0,.44.39.44.84s-.2.84-.44.84Z"/><circle class="cls-4" cx="207.7" cy="302.87" r="18.18"/><rect class="cls-4" x="199.32" y="277.46" width="16" height="9.91"/><circle class="cls-8" cx="114.66" cy="110.42" r="16.22"/><circle class="cls-8" cx="138.19" cy="125.17" r="13.47"/><circle class="cls-8" cx="121.43" cy="135.24" r="11.5"/><path class="cls-9" d="M286.1,266a.31.31,0,0,1,.2.09c2.24,2.45,4.37,5.35,4.37,8.1a4.61,4.61,0,1,1-9.18,0c0-2.73,2.12-5.65,4.37-8.1a.31.31,0,0,1,.25-.09Z"/><path class="cls-10" d="M108.59,198.27c-7.84,6.69-11.4,16.88-9.17,26.34,2.89,12.22,14.73,20.07,26.6,19.87,10.53-.18,21.16-6.73,24.93-17.74a26.71,26.71,0,0,0-7.28-28.09"/><path class="cls-3" d="M154.58,195.84a36.83,36.83,0,0,0-18.05-12.66V165.11a3.31,3.31,0,0,0,2.68-3.25,3.69,3.69,0,0,0-3-3.51H114.94a3.7,3.7,0,0,0-3,3.51,3.31,3.31,0,0,0,2.68,3.25v18.07a36.83,36.83,0,0,0-18.05,12.66,36.54,36.54,0,1,0,58.06,0Zm-29,51.19C109,247,97,232.51,96.84,218.3c-.11-13.64,10.76-23.89,19.61-27.64a26.85,26.85,0,0,1,3.36-1.16l-.14-21.95,11.77-.22v22a29.22,29.22,0,0,1,3.36,1.3c8.32,3.86,19.66,13.93,19.58,27.64-.16,14-12.06,28.73-28.82,28.73Z"/><circle class="cls-3" cx="113.23" cy="218.05" r="7.1"/><circle class="cls-3" cx="120.82" cy="231.02" r="3.55"/><rect class="cls-11" x="103.96" y="312.04" width="41.69" height="11.76"/><rect class="cls-9" x="289.06" y="301.24" width="5.95" height="25.46"/><rect class="cls-12" x="117.82" y="302.87" width="11.52" height="10.07"/><rect class="cls-13" x="117.82" y="309.08" width="11.52" height="2.82"/><ellipse class="cls-14" cx="123.97" cy="297.41" rx="4.89" ry="3.99"/><path class="cls-15" d="M128.84,287.86a4.88,4.88,0,0,0-.66,3c-2.8-3.73-3.67-6.19-3.3-8.22-2.11.84-4.39,4.07-4.64,6.64-1.05-.84-.67-2.75-.36-3.25-3.09,3.11-4,6.82-3.36,9a9.3,9.3,0,0,0,3.94,5.18c-1.24-2.52,1.88-3.18,2-5a1.45,1.45,0,0,1,.47,1.77c.75-.42,1.93-2.21,1.36-3.36,2,.76,4.88,4.38,3,6.87,2.52-1.51,4.1-3.49,3.78-6S128.65,289.27,128.84,287.86Z"/><path class="cls-3" d="M300.6,296.63l-2.05,3.28v27.86c0,1.47-.57,2-2,2H277.65c-1.47,0-2-.57-2-2V299.91l-2.05-3.28h-2.39l2.41,3.87v27.28a3.72,3.72,0,0,0,4.09,4.09h18.88a3.72,3.72,0,0,0,4.09-4.09V300.49l2.41-3.87Z"/><path class="cls-9" d="M277.64,301.22v26.55h18.89V301.22ZM294,325.73H289.9v-2H294Zm0-4.09H289.9v-2H294Zm0-4.09H289.9v-2H294Zm0-4.09H289.9v-2H294Zm0-4.09H289.9v-2H294Zm0-4.09H289.9v-2H294Z"/><rect class="cls-16" x="49.81" y="324.95" width="102.52" height="6.05"/><rect class="cls-16" x="52.7" y="170.87" width="102.52" height="6.05"/><rect class="cls-16" x="51.33" y="49.61" width="102.52" height="6.05"/><rect class="cls-16" x="61.58" y="42.3" width="4.93" height="287.87"/><circle class="cls-11" cx="63.59" cy="328.16" r="2.01"/><circle class="cls-11" cx="64.04" cy="173.89" r="2.01"/><circle class="cls-11" cx="64.05" cy="52.63" r="2.01" transform="translate(-18.05 64.12) rotate(-47.38)"/><rect class="cls-3" y="332.02" width="327.51" height="18.44"/><rect class="cls-2" x="260.79" y="274.03" width="3.78" height="58.05" rx="1.81" ry="1.81"/><rect class="cls-3" x="864.25" y="327.17" width="335.75" height="18.44"/><path class="cls-3" d="M247.47,309.85a3,3,0,1,0-3,3h0A3.05,3.05,0,0,0,247.47,309.85Zm-1.4,0a1.68,1.68,0,1,1-1.68-1.68,1.68,1.68,0,0,1,1.68,1.68Z"/><path class="cls-3" d="M251.2,314.78a2.11,2.11,0,1,0-2.11,2.11,2.11,2.11,0,0,0,2.11-2.11Zm-1.4,0a.71.71,0,1,1-.71-.71.71.71,0,0,1,.71.71Z"/><line class="cls-1" x1="247.53" y1="257.58" x2="247.53" y2="192.28"/><path class="cls-3" d="M211.27,286.66a3,3,0,1,0-3-3h0A3.05,3.05,0,0,0,211.27,286.66Zm0-4.68a1.68,1.68,0,1,1-1.68,1.68,1.68,1.68,0,0,1,1.68-1.68h0Z"/><path class="cls-3" d="M206.6,289.65a2.11,2.11,0,1,0-2.11-2.11,2.11,2.11,0,0,0,2.11,2.11Zm0-2.82a.71.71,0,1,1-.71.71.71.71,0,0,1,.71-.71h0Z"/><path class="cls-3" d="M959.08,258.17,930.81,258a3.16,3.16,0,0,1-3.11-3.19h0a3.16,3.16,0,0,1,3.13-3.17l28.27.18a3.16,3.16,0,0,1,3.09,3.21h0A3.16,3.16,0,0,1,959.08,258.17Z"/><path class="cls-3" d="M955.45,273.64h-.29a3.2,3.2,0,0,1-3.12-3.24l.05-12.82a3.19,3.19,0,0,1,3.16-3.2h.29a3.2,3.2,0,0,1,3.12,3.24l-.08,12.82A3.19,3.19,0,0,1,955.45,273.64Z"/><path class="cls-3" d="M917.82,325.26h0a3.36,3.36,0,0,0,4.3-2l0-.13,17.36-51.8a3.53,3.53,0,0,0-2.12-4.45h0a3.36,3.36,0,0,0-4.3,2l0,.13L915.69,320.8A3.53,3.53,0,0,0,917.82,325.26Z"/><path class="cls-3" d="M971.38,326.29,919.24,326a3.8,3.8,0,0,1-3.72-3.86h0a3.8,3.8,0,0,1,3.76-3.81l52.14.32a3.8,3.8,0,0,1,3.72,3.86h0A3.8,3.8,0,0,1,971.38,326.29Z"/><path class="cls-3" d="M973.48,326l-.26.09a3.19,3.19,0,0,1-4-2l0,0L952.3,271.68a3.3,3.3,0,0,1,2-4.15l.27-.11a3.19,3.19,0,0,1,4,2l0,0,16.88,52.36A3.3,3.3,0,0,1,973.48,326Z"/><path class="cls-4" d="M934.47,290.67l22.7.14,7.75,26-38.73-.5Z"/><path class="cls-3" d="M936.59,272.82H936a3.36,3.36,0,0,1-3.25-3.36l.07-11.66a3.36,3.36,0,0,1,3.29-3.36h.59a3.36,3.36,0,0,1,3.25,3.36l-.07,11.66A3.36,3.36,0,0,1,936.59,272.82Z"/><path class="cls-17" d="M1124.64,309.16c0,9.11-7,16.49-15.73,16.49s-15.73-7.38-15.73-16.49,7-16.49,15.73-16.49q.69,0,1.36.06C1118.32,293.45,1124.64,300.53,1124.64,309.16Z"/><path class="cls-17" d="M1164.12,309.12c0,9.53-6.25,17.26-14,17.26s-14-7.73-14-17.26c0-7.7,4.08-14.23,9.71-16.45a11.52,11.52,0,0,1,4.24-.81C1157.87,291.86,1164.12,299.59,1164.12,309.12Z"/><polygon class="cls-17" points="1108.91 292.67 1145.92 292.67 1139.02 318.69 1121.74 318.69 1108.91 292.67"/><rect class="cls-6" x="1007.42" y="280.4" width="8.72" height="37.31"/><path class="cls-3" d="M1024.33,273.66l-3,4.8v40.82c0,2.16-.84,3-3,3H990.71c-2.16,0-3-.84-3-3V278.46l-3-4.8h-3.5l3.54,5.67v40c0,3.81,2.18,6,6,6h27.66c3.81,0,6-2.18,6-6v-40l3.54-5.67Z"/><path class="cls-6" d="M990.7,280.38v38.89h27.67V280.38Zm23.94,35.9h-6v-3h6Zm0-6h-6v-3h6Zm0-6h-6v-3h6Zm0-6h-6v-3h6Zm0-6h-6v-3h6Zm0-6h-6v-3h6Z"/><rect class="cls-7" x="1058.53" y="280.77" width="8.72" height="37.31"/><path class="cls-3" d="M1075.44,274l-3,4.8v40.82c0,2.16-.84,3-3,3h-27.62c-2.16,0-3-.84-3-3V278.83l-3-4.8h-3.5l3.54,5.67v40c0,3.81,2.18,6,6,6h27.66c3.81,0,6-2.18,6-6v-40L1079,274Z"/><path class="cls-7" d="M1041.81,280.75v38.89h27.67V280.75Zm23.94,35.9h-6v-3h6Zm0-6h-6v-3h6Zm0-6h-6v-3h6Zm0-6h-6v-3h6Zm0-6h-6v-3h6Zm0-6h-6v-3h6Z"/><path d="M1169.54,301.15H1164a18.27,18.27,0,0,0-2.28-3.8,14.35,14.35,0,0,0-12.15-6.68h-40.81a14.36,14.36,0,0,0-9.31,3.43,18.31,18.31,0,0,0-5.55,7.09,3.53,3.53,0,0,0-.44,0h-5.4a3.6,3.6,0,0,0-3.59,3.59v9.49a3.6,3.6,0,0,0,3.59,3.59h5.4a3.52,3.52,0,0,0,.7-.07,17.13,17.13,0,0,0,15.25,9.94c3.42,0,6.31-2.48,8.86-4.67,2.1-1.8,4.08-3.5,5.9-3.5h11.64c1.64,0,3.14,1.63,4.73,3.36,2.08,2.26,4.43,4.81,7.95,4.81a17.12,17.12,0,0,0,15.23-9.91,3.4,3.4,0,0,0,.39,0h5.4a3.6,3.6,0,0,0,3.59-3.59v-9.49A3.6,3.6,0,0,0,1169.54,301.15ZM1161.91,317a15.11,15.11,0,0,1-13.39,8.67c-2.64,0-4.59-2.12-6.48-4.17s-3.69-4-6.2-4H1124.2c-2.56,0-4.81,1.94-7.2,4s-4.88,4.18-7.56,4.18a15.13,15.13,0,0,1-13.48-8.87c-.16-.33-.31-.66-.44-1s-.33-.86-.46-1.31a17.31,17.31,0,0,1-.08-10.35c.12-.41.25-.81.4-1.21s.26-.65.4-1a16.42,16.42,0,0,1,5-6.34,12.41,12.41,0,0,1,8.06-3h40.81a12.42,12.42,0,0,1,10.52,5.84,16.64,16.64,0,0,1,2,3.28c.15.31.28.63.4,1s.26.69.37,1a17.53,17.53,0,0,1-.14,11.21c-.13.37-.27.74-.42,1.1S1162.06,316.72,1161.91,317Z"/><path d="M1109.77,323.16l-.49,0c-6.3-.27-11.37-5.75-11.64-12.57,0-.19,0-.38,0-.57a.5.5,0,0,0-.5-.5h0a.5.5,0,0,0-.46.49,15.12,15.12,0,0,0,.46,3.65c1.5,6,6.62,10.51,12.69,10.51a.5.5,0,0,0,0-1Z"/><path d="M1161.55,309.5a.5.5,0,0,0-.5.5c0,.19,0,.38,0,.57a14.09,14.09,0,0,1-.47,3.14,12.39,12.39,0,0,1-11.17,9.42l-.49,0a.5.5,0,0,0,0,1,13.17,13.17,0,0,0,12-8.4,14.48,14.48,0,0,0,.65-1.94,15.13,15.13,0,0,0,.5-3.82A.5.5,0,0,0,1161.55,309.5Z"/><rect class="cls-18" x="0.44" y="563.63" width="1200" height="34.98"/></g></g></svg>