<?xml version="1.0" encoding="utf-8"?>
<!-- Generator: Adobe Illustrator 21.0.0, SVG Export Plug-In . SVG Version: 6.00 Build 0)  -->
<svg version="1.1" id="Layer_1" xmlns="http://www.w3.org/2000/svg" xmlns:xlink="http://www.w3.org/1999/xlink" x="0px" y="0px"
	 viewBox="0 0 1200.4 730.8" style="enable-background:new 0 0 1200.4 730.8;" xml:space="preserve">
<style type="text/css">
	.st0{fill:#23AF98;stroke:#000000;stroke-width:1.0248;stroke-miterlimit:10;}
	.st1{fill:none;stroke:#FFFFFF;stroke-width:3.41;stroke-miterlimit:10;}
	.st2{fill:#C6CAC8;}
	.st3{fill:#FFFFFF;}
	.st4{fill:#ECBD13;}
	.st5{fill:#B6FFFF;}
	.st6{fill:#F40B27;}
	.st7{fill:#2FD33B;}
	.st8{fill:#EDEDED;}
	.st9{fill:#26E4F5;}
	.st10{fill:#FF7415;}
	.st11{fill:#BFBEBE;}
	.st12{fill:#CAC7C8;}
	.st13{fill:#424A51;}
	.st14{fill:#FFCE61;}
	.st15{fill:#F89E54;}
	.st16{fill:#424952;}
	.st17{fill:#A5E1EF;}
	.st18{fill:#52A1A2;}
	.st19{fill:#EAE8EA;}
	.st20{fill:#D9D9D9;}
	.st21{fill:#D3A583;}
	.st22{fill:#F5F5F5;}
	.st23{fill:#63A5DB;}
	.st24{fill:#5BAFF4;stroke:#56A5DB;stroke-width:0.5227;stroke-miterlimit:10;}
	.st25{fill:#37393A;}
	.st26{fill:#2A2E2F;}
	.st27{fill:#CAA27E;}
	.st28{fill:#CECECE;}
	.st29{fill:#CCA176;}
	.st30{fill:#252525;}
	.st31{fill:#050505;}
	.st32{fill:#020101;}
	.st33{fill:none;stroke:#1F3030;stroke-width:3.2408;stroke-miterlimit:10;}
	.st34{fill:#F29814;}
	.st35{fill:#D1D3D3;}
	.st36{fill:#3A3A3A;}
	.st37{font-family:'Chalkduster';}
	.st38{font-size:29.0967px;}
	.st39{letter-spacing:-3;}
	.st40{letter-spacing:1;}
	.st41{letter-spacing:-5;}
	.st42{letter-spacing:-1;}
	.st43{font-size:41.7134px;}
	.st44{font-size:27.1374px;}
</style>
<rect class="st0" width="1200.4" height="730.8"/>
<title>contentsbg_1</title>
<g id="Layer_2">
	<g id="Layer_1-2">
		<line class="st1" x1="286.4" y1="388.7" x2="286.4" y2="323.4"/>
		<line class="st1" x1="245.9" y1="324.4" x2="288" y2="324.4"/>
		<path class="st2" d="M158.6,407L158.6,407c0.9,0,1.7,0.7,1.7,1.7l0,0v52.8c0,0.9-0.7,1.7-1.7,1.7h0l0,0c-0.9,0-1.7-0.7-1.7-1.7
			l0,0v-52.8C156.9,407.8,157.7,407,158.6,407L158.6,407z"/>
		<path class="st2" d="M183.9,407L183.9,407c0.9,0,1.7,0.7,1.7,1.7l0,0v52.8c0,0.9-0.7,1.7-1.7,1.7h0l0,0c-0.9,0-1.7-0.7-1.7-1.7
			l0,0v-52.8C182.3,407.8,183,407,183.9,407L183.9,407z"/>
		<path class="st2" d="M230.4,407L230.4,407c0.9,0,1.7,0.7,1.7,1.7l0,0v52.8c0,0.9-0.7,1.7-1.7,1.7h0l0,0c-0.9,0-1.7-0.7-1.7-1.7
			l0,0v-52.8C228.7,407.8,229.4,407,230.4,407L230.4,407z"/>
		<rect x="156.9" y="406.2" class="st2" width="107.2" height="5"/>
		<path class="st3" d="M110.3,200.3l28.3,0.2c1.7,0,3.1,1.5,3.1,3.2l0,0c0,1.7-1.4,3.2-3.1,3.2l-28.3-0.2c-1.7,0-3.1-1.5-3.1-3.2
			l0,0C107.2,201.7,108.6,200.3,110.3,200.3z"/>
		<path class="st3" d="M113.9,184.8h0.3c1.8,0,3.1,1.5,3.1,3.2l-0.1,12.8c0,1.8-1.4,3.2-3.2,3.2h-0.3c-1.8,0-3.1-1.5-3.1-3.2
			l0.1-12.8C110.8,186.2,112.2,184.8,113.9,184.8z"/>
		<path class="st3" d="M151.6,133.1L151.6,133.1c-1.7-0.6-3.7,0.3-4.3,2v0.1l-17.4,51.9c-0.6,1.8,0.4,3.8,2.2,4.4l0,0
			c1.7,0.6,3.7-0.3,4.3-2v-0.1l17.4-51.8C154.3,135.8,153.4,133.8,151.6,133.1z"/>
		<path class="st3" d="M97.1,132.1l52.1,0.3c2.1,0,3.8,1.8,3.7,3.9c0,0,0,0,0,0l0,0c0,2.1-1.7,3.8-3.8,3.8c0,0,0,0,0,0l-52.1-0.3
			c-2.1,0-3.8-1.8-3.7-3.9l0,0C93.3,133.9,95,132.2,97.1,132.1z"/>
		<path class="st3" d="M95.9,132.4l0.3-0.1c1.7-0.5,3.4,0.4,4,2l0,0l16.9,52.4c0.6,1.7-0.3,3.5-2,4.1l-0.3,0.1c-1.7,0.5-3.4-0.4-4-2
			l0,0l-16.9-52.4C93.3,134.8,94.2,133,95.9,132.4z"/>
		<path class="st4" d="M134.9,167.8l-22.7-0.1l-7.8-26l38.7,0.5L134.9,167.8z"/>
		<path class="st3" d="M132.8,185.6h0.6c1.8,0.1,3.3,1.5,3.2,3.4l-0.1,11.7c0,1.8-1.5,3.3-3.3,3.4h-0.6c-1.8-0.1-3.3-1.5-3.2-3.4
			l0.1-11.7C129.5,187.2,130.9,185.7,132.8,185.6z"/>
		<path class="st5" d="M180.6,392.7c0-1.4-0.7-2.5-1.6-2.5h-15.9c-0.9,0-1.6,1.1-1.6,2.5s0.7,2.5,1.6,2.5v48.6
			c0,6.1,3.6,11.1,8,11.1s8-5,8-11.1v-48.6C179.9,395.1,180.6,394,180.6,392.7z M177.8,443.8c0,5.2-3,9.5-6.7,9.5s-6.7-4.2-6.7-9.5
			v-48.6h13.5L177.8,443.8L177.8,443.8z M179,393.5h-15.9c-0.2,0-0.4-0.4-0.4-0.8s0.2-0.8,0.4-0.8H179c0.2,0,0.4,0.4,0.4,0.8
			S179.2,393.5,179,393.5L179,393.5z"/>
		<path class="st6" d="M163.1,419.5H179V448c0,0.6-0.3,5.2-4.2,7.6c-1.2,0.7-2.4,1.1-3.8,1.2c-1.5-0.2-3-0.8-4.2-1.7
			c-2.2-1.7-3.5-4.3-3.6-7.1L163.1,419.5z"/>
		<path class="st5" d="M256.1,391.7c0-1.4-0.7-2.5-1.6-2.5h-15.9c-0.9,0-1.6,1.1-1.6,2.5s0.7,2.5,1.6,2.5v48.6
			c0,6.1,3.6,11.1,8,11.1s8-5,8-11.1v-48.6C255.4,394.1,256.1,393.1,256.1,391.7z M253.3,442.8c0,5.2-3,9.5-6.7,9.5
			s-6.7-4.2-6.7-9.5v-48.6h13.5L253.3,442.8L253.3,442.8z M254.5,392.5h-15.9c-0.2,0-0.4-0.4-0.4-0.8s0.2-0.8,0.4-0.8h15.9
			c0.2,0,0.4,0.4,0.4,0.8S254.7,392.5,254.5,392.5z"/>
		<path class="st7" d="M238.6,418.5h15.9V447c0,0.6-0.3,5.2-4.2,7.6c-1.2,0.7-2.4,1.1-3.8,1.2c-1.5-0.2-3-0.8-4.2-1.7
			c-2.2-1.7-3.5-4.3-3.6-7.1L238.6,418.5z"/>
		<path class="st3" d="M174.1,444.3c1.7,0,3-1.3,3-3s-1.3-3-3-3s-3,1.3-3,3l0,0C171.1,442.9,172.4,444.2,174.1,444.3z M174.1,439.6
			c0.9,0,1.7,0.8,1.7,1.7s-0.8,1.7-1.7,1.7c-0.9,0-1.7-0.8-1.7-1.7l0,0C172.4,440.3,173.2,439.6,174.1,439.6z"/>
		<path class="st3" d="M169.4,448.3c1.2,0,2.1-0.9,2.1-2.1c0-1.2-0.9-2.1-2.1-2.1c-1.2,0-2.1,0.9-2.1,2.1l0,0
			C167.3,447.3,168.3,448.3,169.4,448.3z M169.4,445.4c0.4,0,0.7,0.3,0.7,0.7c0,0.4-0.3,0.7-0.7,0.7c-0.4,0-0.7-0.3-0.7-0.7l0,0
			C168.7,445.8,169,445.4,169.4,445.4z"/>
		<path class="st5" d="M216.9,390.8c0-1.4-0.7-2.5-1.6-2.5h-15.9c-0.9,0-1.6,1.1-1.6,2.5s0.7,2.5,1.6,2.5v48.6
			c0,6.1,3.6,11.1,8,11.1s8-5,8-11.1v-48.6C216.2,393.3,216.9,392.2,216.9,390.8z M214.1,441.9c0,5.2-3,9.5-6.7,9.5
			s-6.7-4.2-6.7-9.5v-48.6h13.5L214.1,441.9L214.1,441.9z M215.3,391.7h-15.9c-0.2,0-0.4-0.4-0.4-0.8s0.2-0.8,0.4-0.8h15.9
			c0.2,0,0.4,0.4,0.4,0.8S215.5,391.7,215.3,391.7L215.3,391.7z"/>
		<circle class="st4" cx="207.7" cy="435" r="18.2"/>
		<rect x="199.3" y="409.6" class="st4" width="16" height="9.9"/>
		<circle class="st8" cx="114.7" cy="242.6" r="16.2"/>
		<circle class="st8" cx="138.2" cy="257.3" r="13.5"/>
		<circle class="st8" cx="121.4" cy="267.4" r="11.5"/>
		<path class="st9" d="M286.1,398.1c0.1,0,0.1,0,0.2,0.1c2.2,2.5,4.4,5.4,4.4,8.1c0.2,2.5-1.6,4.8-4.2,5c-2.5,0.2-4.8-1.6-5-4.2
			c0-0.3,0-0.6,0-0.9c0-2.7,2.1-5.6,4.4-8.1C285.9,398.2,286,398.1,286.1,398.1L286.1,398.1z"/>
		<path class="st10" d="M108.6,330.4c-7.8,6.7-11.4,16.9-9.2,26.3c2.9,12.2,14.7,20.1,26.6,19.9c10.5-0.2,21.2-6.7,24.9-17.7
			c3.3-10,0.5-21-7.3-28.1"/>
		<path class="st3" d="M154.6,328c-4.6-6-10.9-10.4-18.1-12.7v-18.1c1.6-0.3,2.7-1.7,2.7-3.2c-0.1-1.7-1.3-3.2-3-3.5h-21.3
			c-1.7,0.3-2.9,1.8-3,3.5c0,1.6,1.1,2.9,2.7,3.2v18.1c-7.2,2.3-13.5,6.7-18,12.7c-12.3,16-9.2,39,6.8,51.2c16,12.3,39,9.2,51.2-6.8
			C164.6,359.3,164.6,341.1,154.6,328L154.6,328z M125.6,379.2c-16.6,0-28.6-14.5-28.7-28.7c-0.1-13.6,10.8-23.9,19.6-27.6
			c1.1-0.5,2.2-0.8,3.4-1.2l-0.1-22l11.8-0.2v22c1.1,0.4,2.3,0.8,3.4,1.3c8.3,3.9,19.7,13.9,19.6,27.6
			C154.2,364.4,142.3,379.1,125.6,379.2L125.6,379.2z"/>
		<circle class="st3" cx="113.2" cy="350.2" r="7.1"/>
		<circle class="st3" cx="120.8" cy="363.2" r="3.6"/>
		<rect x="104" y="444.2" class="st11" width="41.7" height="11.8"/>
		<rect x="289.1" y="433.4" class="st9" width="6" height="25.5"/>
		<rect x="117.8" y="435" class="st12" width="11.5" height="10.1"/>
		<rect x="117.8" y="441.2" class="st13" width="11.5" height="2.8"/>
		<ellipse class="st14" cx="124" cy="429.6" rx="4.9" ry="4"/>
		<path class="st15" d="M128.8,420c-0.5,0.9-0.8,2-0.7,3c-2.8-3.7-3.7-6.2-3.3-8.2c-2.1,0.8-4.4,4.1-4.6,6.6
			c-1.1-0.8-0.7-2.8-0.4-3.2c-3.1,3.1-4,6.8-3.4,9c0.6,2.1,2,4,3.9,5.2c-1.2-2.5,1.9-3.2,2-5c0.6,0.4,0.8,1.1,0.5,1.8
			c0.8-0.4,1.9-2.2,1.4-3.4c2,0.8,4.9,4.4,3,6.9c2.5-1.5,4.1-3.5,3.8-6S128.6,421.4,128.8,420z"/>
		<path class="st3" d="M300.6,428.8l-2,3.3v27.9c0,1.5-0.6,2-2,2h-18.9c-1.5,0-2-0.6-2-2v-27.9l-2-3.3h-2.4l2.4,3.9v27.3
			c-0.2,2,1.3,3.9,3.3,4.1c0.3,0,0.5,0,0.8,0h18.9c2,0.2,3.9-1.3,4.1-3.3c0-0.3,0-0.5,0-0.8v-27.3l2.4-3.9L300.6,428.8z"/>
		<path class="st9" d="M277.6,433.4v26.5h18.9v-26.5H277.6z M294,457.9h-4.1v-2h4.1V457.9z M294,453.8h-4.1v-2h4.1V453.8z
			 M294,449.7h-4.1v-2h4.1V449.7z M294,445.6h-4.1v-2h4.1V445.6z M294,441.5h-4.1v-2h4.1V441.5z M294,437.4h-4.1v-2h4.1V437.4z"/>
		<rect x="49.8" y="457.1" class="st16" width="102.5" height="6"/>
		<rect x="52.7" y="303" class="st16" width="102.5" height="6.1"/>
		<rect x="51.3" y="181.8" class="st16" width="102.5" height="6"/>
		<rect x="61.6" y="174.4" class="st16" width="4.9" height="287.9"/>
		<circle class="st11" cx="63.6" cy="460.3" r="2"/>
		<circle class="st11" cx="64" cy="306" r="2"/>
		<ellipse transform="matrix(0.6771 -0.7359 0.7359 0.6771 -115.2892 106.7886)" class="st11" cx="64" cy="184.8" rx="2" ry="2"/>
		<rect y="464.2" class="st3" width="327.5" height="18.4"/>
		<path class="st2" d="M262.6,406.2h0.2c1,0,1.8,0.8,1.8,1.8v54.4c0,1-0.8,1.8-1.8,1.8h-0.2c-1,0-1.8-0.8-1.8-1.8V408
			C260.8,407,261.6,406.2,262.6,406.2z"/>
		<rect x="864.2" y="459.3" class="st3" width="335.8" height="18.4"/>
		<path class="st3" d="M247.5,442c0-1.7-1.3-3-3-3s-3,1.3-3,3s1.3,3,3,3l0,0C246.1,445,247.4,443.6,247.5,442z M246.1,442
			c0,0.9-0.8,1.7-1.7,1.7c-0.9,0-1.7-0.8-1.7-1.7c0-0.9,0.8-1.7,1.7-1.7h0C245.3,440.3,246.1,441.1,246.1,442z"/>
		<path class="st3" d="M251.2,446.9c0-1.2-0.9-2.1-2.1-2.1s-2.1,0.9-2.1,2.1c0,1.2,0.9,2.1,2.1,2.1h0
			C250.3,449,251.2,448.1,251.2,446.9z M249.8,446.9c0,0.4-0.3,0.7-0.7,0.7c-0.4,0-0.7-0.3-0.7-0.7c0-0.4,0.3-0.7,0.7-0.7l0,0
			C249.5,446.2,249.8,446.5,249.8,446.9z"/>
		<line class="st1" x1="247.5" y1="389.7" x2="247.5" y2="324.4"/>
		<path class="st3" d="M211.3,418.8c1.7,0,3-1.3,3-3s-1.3-3-3-3s-3,1.3-3,3l0,0C208.3,417.5,209.6,418.8,211.3,418.8z M211.3,414.1
			c0.9,0,1.7,0.8,1.7,1.7s-0.8,1.7-1.7,1.7c-0.9,0-1.7-0.8-1.7-1.7l0,0C209.6,414.9,210.3,414.1,211.3,414.1L211.3,414.1z"/>
		<path class="st3" d="M206.6,421.8c1.2,0,2.1-0.9,2.1-2.1c0-1.2-0.9-2.1-2.1-2.1c-1.2,0-2.1,0.9-2.1,2.1l0,0
			C204.5,420.9,205.4,421.8,206.6,421.8z M206.6,419c0.4,0,0.7,0.3,0.7,0.7c0,0.4-0.3,0.7-0.7,0.7c-0.4,0-0.7-0.3-0.7-0.7l0,0
			C205.9,419.3,206.2,419,206.6,419L206.6,419z"/>
		<path class="st3" d="M959.1,390.3l-28.3-0.2c-1.7,0-3.1-1.5-3.1-3.2l0,0c0-1.7,1.4-3.2,3.1-3.2l28.3,0.2c1.7,0,3.1,1.5,3.1,3.2
			l0,0C962.2,388.9,960.8,390.3,959.1,390.3z"/>
		<path class="st3" d="M955.5,405.8h-0.3c-1.8,0-3.1-1.5-3.1-3.2l0-12.8c0-1.8,1.4-3.2,3.2-3.2h0.3c1.8,0,3.1,1.5,3.1,3.2l-0.1,12.8
			C958.6,404.3,957.2,405.8,955.5,405.8z"/>
		<path class="st3" d="M917.8,457.4L917.8,457.4c1.7,0.6,3.7-0.3,4.3-2v-0.1l17.4-51.8c0.6-1.8-0.3-3.8-2.1-4.5l0,0
			c-1.7-0.6-3.7,0.3-4.3,2v0.1l-17.4,51.8C915.1,454.8,916,456.8,917.8,457.4z"/>
		<path class="st3" d="M971.4,458.4l-52.1-0.3c-2.1,0-3.8-1.8-3.7-3.9l0,0c0-2.1,1.7-3.8,3.8-3.8l52.1,0.3c2.1,0,3.8,1.8,3.7,3.9
			l0,0C975.1,456.7,973.5,458.4,971.4,458.4z"/>
		<path class="st3" d="M973.5,458.1l-0.3,0.1c-1.7,0.5-3.4-0.4-4-2l0,0l-16.9-52.4c-0.6-1.7,0.3-3.5,2-4.1l0.3-0.1
			c1.7-0.5,3.4,0.4,4,2l0,0l16.9,52.4C976.1,455.6,975.2,457.5,973.5,458.1z"/>
		<path class="st4" d="M934.5,422.8l22.7,0.1l7.8,26l-38.7-0.5L934.5,422.8z"/>
		<path class="st3" d="M936.6,405H936c-1.8-0.1-3.3-1.5-3.2-3.4l0.1-11.7c0-1.8,1.5-3.3,3.3-3.4h0.6c1.8,0.1,3.3,1.5,3.2,3.4
			l-0.1,11.7C939.9,403.4,938.4,404.9,936.6,405z"/>
		<path class="st17" d="M1124.6,441.3c0,9.1-7,16.5-15.7,16.5s-15.7-7.4-15.7-16.5s7-16.5,15.7-16.5c0.5,0,0.9,0,1.4,0.1
			C1118.3,425.6,1124.6,432.7,1124.6,441.3z"/>
		<path class="st17" d="M1164.1,441.3c0,9.5-6.2,17.3-14,17.3s-14-7.7-14-17.3c0-7.7,4.1-14.2,9.7-16.5c1.3-0.5,2.8-0.8,4.2-0.8
			C1157.9,424,1164.1,431.7,1164.1,441.3z"/>
		<polygon class="st17" points="1108.9,424.8 1145.9,424.8 1139,450.8 1121.7,450.8 		"/>
		<rect x="1007.4" y="412.5" class="st6" width="8.7" height="37.3"/>
		<path class="st3" d="M1024.3,405.8l-3,4.8v40.8c0,2.2-0.8,3-3,3h-27.6c-2.2,0-3-0.8-3-3v-40.8l-3-4.8h-3.5l3.5,5.7v40
			c0,3.8,2.2,6,6,6h27.7c3.8,0,6-2.2,6-6v-40l3.5-5.7H1024.3z"/>
		<path class="st6" d="M990.7,412.5v38.9h27.7v-38.9H990.7z M1014.6,448.4h-6v-3h6V448.4z M1014.6,442.4h-6v-3h6V442.4z
			 M1014.6,436.4h-6v-3h6V436.4z M1014.6,430.4h-6v-3h6V430.4z M1014.6,424.4h-6v-3h6V424.4z M1014.6,418.4h-6v-3h6V418.4z"/>
		<rect x="1058.5" y="412.9" class="st7" width="8.7" height="37.3"/>
		<path class="st3" d="M1075.4,406.1l-3,4.8v40.8c0,2.2-0.8,3-3,3h-27.6c-2.2,0-3-0.8-3-3V411l-3-4.8h-3.5l3.5,5.7v40
			c0,3.8,2.2,6,6,6h27.7c3.8,0,6-2.2,6-6v-40l3.5-5.7H1075.4z"/>
		<path class="st7" d="M1041.8,412.9v38.9h27.7v-38.9H1041.8z M1065.8,448.8h-6v-3h6V448.8z M1065.8,442.8h-6v-3h6V442.8z
			 M1065.8,436.8h-6v-3h6V436.8z M1065.8,430.8h-6v-3h6V430.8z M1065.8,424.8h-6v-3h6V424.8z M1065.8,418.8h-6v-3h6V418.8z"/>
		<path d="M1169.5,433.3h-5.5c-0.6-1.4-1.4-2.6-2.3-3.8c-2.6-4.2-7.2-6.7-12.2-6.7h-40.8c-3.4,0-6.7,1.2-9.3,3.4
			c-2.4,1.9-4.3,4.3-5.6,7.1c-0.1,0-0.3,0-0.4,0h-5.4c-2,0-3.6,1.6-3.6,3.6v9.5c0,2,1.6,3.6,3.6,3.6h5.4c0.2,0,0.5,0,0.7-0.1
			c2.8,6,8.7,9.8,15.2,9.9c3.4,0,6.3-2.5,8.9-4.7c2.1-1.8,4.1-3.5,5.9-3.5h11.6c1.6,0,3.1,1.6,4.7,3.4c2.1,2.3,4.4,4.8,7.9,4.8
			c6.6-0.1,12.5-4,15.2-9.9c0.1,0,0.3,0,0.4,0h5.4c2,0,3.6-1.6,3.6-3.6v-9.5C1173.1,434.9,1171.5,433.3,1169.5,433.3z M1161.9,449.1
			c-2.4,5.2-7.6,8.6-13.4,8.7c-2.6,0-4.6-2.1-6.5-4.2s-3.7-4-6.2-4h-11.6c-2.6,0-4.8,1.9-7.2,4s-4.9,4.2-7.6,4.2
			c-5.8-0.1-11.1-3.6-13.5-8.9c-0.2-0.3-0.3-0.7-0.4-1s-0.3-0.9-0.5-1.3c-1.1-3.4-1.1-7-0.1-10.4c0.1-0.4,0.2-0.8,0.4-1.2
			s0.3-0.6,0.4-1c1.1-2.5,2.8-4.7,5-6.3c2.2-1.9,5.1-3,8.1-3h40.8c4.3,0,8.3,2.2,10.5,5.8c0.8,1,1.5,2.1,2,3.3
			c0.2,0.3,0.3,0.6,0.4,1s0.3,0.7,0.4,1c1.2,3.7,1.1,7.6-0.1,11.2c-0.1,0.4-0.3,0.7-0.4,1.1S1162.1,448.9,1161.9,449.1z"/>
		<path d="M1109.8,455.3h-0.5c-6.3-0.3-11.4-5.8-11.6-12.6c0-0.2,0-0.4,0-0.6c0-0.3-0.2-0.5-0.5-0.5l0,0c-0.3,0-0.5,0.2-0.5,0.5
			c0,1.2,0.2,2.5,0.5,3.6c1.5,6,6.6,10.5,12.7,10.5c0.3,0,0.5-0.2,0.5-0.5S1110.1,455.3,1109.8,455.3L1109.8,455.3z"/>
		<path d="M1161.6,441.6c-0.3,0-0.5,0.2-0.5,0.5c0,0.2,0,0.4,0,0.6c0,1.1-0.2,2.1-0.5,3.1c-1.3,5.2-5.8,9-11.2,9.4h-0.5
			c-0.3,0-0.5,0.2-0.5,0.5s0.2,0.5,0.5,0.5c5.3-0.1,10.1-3.4,12-8.4c0.3-0.6,0.5-1.3,0.7-1.9c0.3-1.2,0.5-2.5,0.5-3.8
			C1162.1,441.8,1161.8,441.6,1161.6,441.6z"/>
		<rect x="0.4" y="695.8" class="st18" width="1200" height="35"/>
	</g>
</g>
<g id="Layer_2_1_">
	<g id="Layer_1-2_1_">
		<g id="Layer_2-2">
			<g id="Layer_1-2-2">
				<path class="st3" d="M480.7,211.4"/>
				<path class="st19" d="M637.9,223.4c4.1-1.7,8.1-3.7,12.1-5.8c4.7-2.6,9.3-5.4,13.6-8.5c0.7,7.1-1,14.3-4.9,20.3
					c2.7,0.3,5.4,0.1,7.9-0.6c3.7-1.1,7.1-3.3,9.6-6.3c1.7,9.9-1.5,20-8.5,27.1c3.1-0.6,6.1-1.5,9-2.6c2.2-0.9,4.4-2,6.5-3.3
					c1.1,6.5,0.2,13.2-2.5,19.1c-5.8,12.3-17.7,16.3-19.7,16.9L637.9,223.4z"/>
				<path class="st19" d="M570.7,224.9c-4.1-1.7-8.1-3.7-12.1-5.8c-4.7-2.6-9.3-5.4-13.7-8.6c-0.7,7.1,1,14.3,4.8,20.4
					c-2.6,0.3-5.3,0.1-7.9-0.6c-3.7-1.1-7-3.3-9.5-6.3c-1.7,9.9,1.5,20,8.5,27.1c-3.1-0.6-6.1-1.5-9-2.6c-2.2-0.9-4.4-2-6.5-3.3
					c-1.1,6.5-0.3,13.1,2.5,19.1c5.8,12.3,17.7,16.3,19.7,16.9L570.7,224.9z"/>
				<path class="st20" d="M544.8,401.7l-0.4,217.5h123.2V359.4h-36.4l-31,89.9l-23.1-89.9h-32.8l-31.9,33.7l-53.2-42.6l-12.4,29.3
					l66.5,58.5L544.8,401.7z"/>
				<ellipse class="st21" cx="603.4" cy="273.4" rx="57.4" ry="69.9"/>
				<polygon class="st22" points="576.2,359 560.1,394.5 576.3,394.5 568.3,404.2 600.3,449.3 				"/>
				<path class="st22" d="M631.1,359l16,35.6l-16.2-0.1l8,9.7l-38.7,45.1L631.1,359z"/>
				<polygon class="st23" points="577.2,359.4 600.3,449.3 631.3,359.4 				"/>
				<path class="st24" d="M581.6,350.5l-4.4,8.9l10.9,13l15.4-9.4l13.9,9.7l13.8-13.3l-6.1-8.9L581.6,350.5z"/>
				<path class="st25" d="M599.5,360.4l-1.2,61.6l4,5.5l4.4-5.6l0.5-61L599.5,360.4z"/>
				<path class="st26" d="M603.8,353l-6.7,6.1l2.8,4l3.3,4.7l6.6-8.5L603.8,353z"/>
				<path class="st27" d="M448.4,377.5c-3,1.8-6.6,2.5-10.1,2c-8.1-1.5-15.1-11.1-12.5-19c2-6,8.4-8.4,9.5-8.8
					c-1.9-0.7-3.1-2.7-2.9-4.7c0.3-1.6,1.3-2.9,2.8-3.4c1.6-0.9,3.4-1.4,5.3-1.4c6.6,0,13,5.9,16.4,14.9L448.4,377.5z"/>
				<path class="st19" d="M594,246.1l-2.5,4.9c-8.9-4.5-18.9-6.4-28.8-5.5l0.8-4.8C573.9,240.3,584.3,242.2,594,246.1z"/>
				<polygon class="st28" points="544.8,401.7 544.4,359.4 512.5,393.1 459.3,350.5 446.9,379.8 513.4,438.3 				"/>
				<polygon class="st29" points="592.7,342.1 592.7,350.5 616.2,350.5 616.2,341.5 				"/>
				<path d="M661.9,259.5h-11.2c-4.7-10.4-16.8-15-27.2-10.3c-4.1,1.8-7.5,4.9-9.6,8.9c-6.3-5.3-12.8-5.3-19.4,0.1
					c-5.4-10-17.9-13.7-27.9-8.2c-4,2.2-7.1,5.5-8.9,9.6h-11.3v6.3h9.6c-1.1,11.3,7.2,21.3,18.5,22.4c11.2,1.1,21.2-7.1,22.4-18.3
					c0.1-0.7,0.1-1.3,0.1-2c0-1.6-0.2-3.3-0.6-4.9c4.6-3.4,10.9-3.4,15.5,0c-2.7,11,4.1,22.1,15.2,24.8c11,2.7,22.1-4.1,24.8-15.2
					c0.5-2.3,0.7-4.6,0.5-7h9.6L661.9,259.5L661.9,259.5z M576.4,282.9c-8.2,0-14.9-6.7-14.9-14.9c0-8.2,6.7-14.9,14.9-14.9
					c8.2,0,14.9,6.7,14.9,14.9C591.3,276.2,584.6,282.8,576.4,282.9C576.4,282.9,576.4,282.9,576.4,282.9L576.4,282.9z M631.9,282.9
					c-8.2,0-14.9-6.7-14.9-14.9c0-8.2,6.7-14.9,14.9-14.9c8.2,0,14.9,6.7,14.9,14.9C646.8,276.2,640.1,282.9,631.9,282.9
					L631.9,282.9z"/>
				<path class="st19" d="M637.8,299.8c-0.2-0.2-0.5-0.2-0.8-0.1c-5.5,3.5-12.7,3-17.7-1.2l0,0c-3.8-3.7-9.8-3.7-13.6,0
					c-0.5,0.5-1,1.1-1.4,1.7c-2.8-4.5-8.8-5.8-13.2-3c-0.6,0.4-1.2,0.8-1.7,1.3l0,0c-5,4.2-12.1,4.7-17.6,1.2
					c-0.3-0.2-0.7-0.1-0.9,0.2c-0.1,0.2-0.1,0.4,0,0.6c7.4,16.8,26.2,14.3,26.2,14.3c3-0.3,5.7-1.9,7.3-4.4c1.6,2.5,4.3,4.2,7.3,4.4
					c0,0,18.8,2.5,26.2-14.3C638.1,300.3,638,300,637.8,299.8z"/>
				<rect x="548.4" y="514.8" class="st22" width="44.3" height="10.1"/>
				<circle class="st22" cx="608.9" cy="542.6" r="2.7"/>
				<circle class="st22" cx="608.9" cy="561.1" r="2.7"/>
				<circle class="st22" cx="608.9" cy="523.2" r="2.7"/>
				<polygon class="st28" points="601.4,619.2 600.1,448.9 605.9,494.2 605.9,619.2 				"/>
				<rect x="561.3" y="619.2" class="st30" width="26.8" height="60.6"/>
				<rect x="630.4" y="619.2" class="st30" width="26.8" height="60.6"/>
				<path class="st31" d="M630.4,679.8v13.7h9.2l2.5-6.9l6.3,6.9l24.8-0.7l-0.5-6.1l-14.6-6.9H630.4z"/>
				<path class="st31" d="M588.1,679.8v13.7h-9.2l-2.5-6.9l-6.3,6.9l-24.8-0.7l0.5-6.1l14.6-6.9L588.1,679.8z"/>
				<path class="st19" d="M613.2,246.1l2.5,4.9c8.9-4.5,18.9-6.4,28.8-5.5l-0.8-4.8C633.3,240.3,622.9,242.2,613.2,246.1
					L613.2,246.1z"/>
				<circle class="st32" cx="569.3" cy="262.6" r="7.1"/>
				<circle class="st32" cx="625.4" cy="262.6" r="7.1"/>
				<line class="st33" x1="433.9" y1="351.9" x2="343" y2="261"/>
				<path class="st19" d="M659.8,307.2"/>
				<path class="st3" d="M612.3,443.6h23c1.6,0,2.8,1.3,2.8,2.8v0.5c0,1.6-1.3,2.8-2.8,2.8h-23c-1.6,0-2.8-1.3-2.8-2.8v-0.5
					C609.5,444.9,610.8,443.6,612.3,443.6z"/>
				<path class="st3" d="M632.5,446.1h0.3c1.5,0,2.8,1.2,2.8,2.8v13c0,1.5-1.2,2.8-2.8,2.8h-0.3c-1.5,0-2.8-1.2-2.8-2.8v-13
					C629.8,447.4,631,446.1,632.5,446.1z"/>
				<path class="st3" d="M601.7,514.4L601.7,514.4c1.4,0.5,3-0.3,3.5-1.8c0-0.1,0.1-0.2,0.1-0.4l14.1-49.8c0.5-1.7-0.2-3.5-1.8-4.3
					l0,0c-1.4-0.5-3,0.3-3.5,1.8c0,0.1-0.1,0.2-0.1,0.4l-14.1,49.9C599.4,511.8,600.1,513.6,601.7,514.4z"/>
				<path class="st3" d="M603,507.7h42.7c1.9,0,3.4,1.5,3.4,3.4v0.6c0,1.9-1.5,3.4-3.4,3.4H603c-1.9,0-3.4-1.5-3.4-3.4v-0.6
					C599.7,509.2,601.2,507.7,603,507.7z"/>
				<path class="st3" d="M647.4,514.5L647.4,514.5c-1.4,0.5-2.9-0.3-3.4-1.7c0,0,0,0,0,0c0-0.1,0-0.2-0.1-0.2l-13.7-48.4
					c-0.5-1.6,0.3-3.4,1.8-4.2l0,0c1.4-0.5,3,0.2,3.5,1.7c0,0.1,0.1,0.2,0.1,0.4l13.7,48.4C649.7,512,648.9,513.8,647.4,514.5z"/>
				<path class="st34" d="M616,481.7h16.7l7,24.3H609L616,481.7z"/>
				<path class="st3" d="M616.7,446.3L616.7,446.3c1.6,0,3,1.3,3,3V461c0,1.6-1.3,3-3,3h0c-1.6,0-3-1.3-3-3v-11.7
					C613.8,447.6,615.1,446.3,616.7,446.3z"/>
				<path class="st27" d="M635.5,472c-1.7,2.4-4.2,4-7,4.8c-6.6,1.5-14.8-3.5-15.4-10.2c-0.5-5.1,3.6-9,4.3-9.6
					c-1.7,0.1-3.2-1-3.7-2.6c-0.3-1.3,0.1-2.6,1-3.5c1-1.2,2.2-2.2,3.6-2.8c4.9-2.1,11.6,0.3,17,5.9L635.5,472z"/>
				<path class="st28" d="M667.6,359.4c9.2,18.8,16.7,38.4,22.4,58.5c4.5,15.7,7.9,31.8,10.3,48l-65.5,12.6v-25.2l32.2-8.8
					L667.6,359.4z"/>
				<ellipse class="st3" cx="628.4" cy="487" rx="3.7" ry="3.8"/>
				<ellipse class="st34" cx="628.4" cy="487" rx="2" ry="2"/>
				<ellipse class="st3" cx="620.3" cy="494" rx="2.6" ry="2.6"/>
				<ellipse class="st34" cx="620.3" cy="494" rx="1.4" ry="1.4"/>
			</g>
		</g>
	</g>
</g>
<g id="Layer_2_2_">
	<g id="Layer_1-2_2_">
		<rect x="728.1" y="47.6" class="st35" width="445" height="259.3"/>
		<rect x="738" y="55.8" class="st36" width="425.1" height="240.5"/>
		<text transform="matrix(1 0 0 1 807.9502 184.7124)" class="st3 st37 st38 st39">T</text>
		<text transform="matrix(1 0 0 1 826.4688 184.7124)" class="st3 st37 st38 st40">o</text>
		<text transform="matrix(1 0 0 1 848.8203 184.7124)" class="st3 st37 st38">d</text>
		<text transform="matrix(1 0 0 1 871.5547 184.7124)" class="st3 st37 st38">a</text>
		<text transform="matrix(1 0 0 1 891.6523 184.7124)" class="st3 st37 st38 st40">y</text>
		<text transform="matrix(1 0 0 1 910.8154 184.7124)" class="st3 st37 st38 st41">’</text>
		<text transform="matrix(1 0 0 1 914.4492 184.7124)" class="st3 st37 st38">s </text>
		<text transform="matrix(1 0 0 1 943.6064 184.7124)" class="st3 st37 st38 st42">l</text>
		<text transform="matrix(1 0 0 1 955.6719 184.7124)" class="st3 st37 st38">e</text>
		<text transform="matrix(1 0 0 1 974.3896 184.7124)" class="st3 st37 st38">ss</text>
		<text transform="matrix(1 0 0 1 1003.7773 184.7124)" class="st3 st37 st38">o</text>
		<text transform="matrix(1 0 0 1 1025.4082 184.7124)" class="st3 st37 st38">n is</text>
		<text transform="matrix(1 0 0 1 778.2246 264.5518)" class="st3 st37 st43">T</text>
		<text transform="matrix(1 0 0 1 810.2188 264.5518)" class="st3 st37 st43">H</text>
		<text transform="matrix(1 0 0 1 836.8018 264.5518)" class="st3 st37 st43">E ELEMENTS</text>
		<text transform="matrix(1 0 0 1 796.4688 88.4888)"><tspan x="0" y="0" class="st3 st37 st44">    My name is </tspan><tspan x="0" y="32.6" class="st3 st37 st44">Professor Elemento</tspan></text>
	</g>
</g>
</svg>
