<svg xmlns="http://www.w3.org/2000/svg" viewBox="0 0 137.83 90"><defs><style>.cls-1{fill:none;}.cls-2{fill:#2abdd1;}.cls-3{fill:#348920;}</style></defs><title>earth</title><g id="Layer_2" data-name="Layer 2"><g id="Layer_1-2" data-name="Layer 1"><rect class="cls-1" width="90" height="90"/><ellipse class="cls-2" cx="107.85" cy="48.74" rx="29.98" ry="28.98"/><path class="cls-3" d="M92.62,74.48a30.09,30.09,0,1,0-14-18.27A30.08,30.08,0,0,0,92.62,74.48Zm37-36.24.27-.46a.07.07,0,0,1,.06,0h0l.47.27a6,6,0,0,1,.28.56.62.62,0,0,1,0,.38l0,.08a1.78,1.78,0,0,0-.09.7l0,.25a2.86,2.86,0,0,0,.16.66l.12.3a1.37,1.37,0,0,1,.08.48,6.81,6.81,0,0,0,0,1c0,.25.07.58.07.58a.93.93,0,0,1-.1.43l-.05.09-.44-.47a.91.91,0,0,1-.19-.39l-.11-.78a1.81,1.81,0,0,0-.25-.66l-.27-.41a.24.24,0,0,1,0-.22l.14-.18a.76.76,0,0,0,.05-.77l0-.06a1.91,1.91,0,0,1-.17-.49l-.08-.49A.78.78,0,0,1,129.64,38.24ZM80.25,55.41l.23-.66.2-.57.25-.71a3,3,0,0,0,.14-.66l0-.51a.47.47,0,0,1,.17-.29l.4-.26a.53.53,0,0,1,.35-.06l.11,0a.73.73,0,0,0,.74-.25L84,50a2.49,2.49,0,0,0,.32-.61l.26-.82c0-.16.14-.41.2-.57l.17-.44a.92.92,0,0,1,.27-.35l.91-.63.5-.34.46-.3a1.75,1.75,0,0,0,.48-.51l.63-1.09a.55.55,0,0,0,.06-.42.54.54,0,0,0-.25-.33l-.16-.09a.59.59,0,0,1-.23-.3l-.1-.39c0-.17-.12-.44-.17-.6l-.14-.45a1.49,1.49,0,0,0-.39-.6l-.62-.54a.56.56,0,0,1-.16-.33v0a2.34,2.34,0,0,0-.14-.67l-.28-.71a2.4,2.4,0,0,0-.35-.59l-.15-.17a.13.13,0,0,1,0-.15l.13-.15a1,1,0,0,0,.24-.46l.06,0a.76.76,0,0,0,.42-.59v-.09a1.39,1.39,0,0,1,.13-.42,1.49,1.49,0,0,0,.16-.63l0-1a1.49,1.49,0,0,0-.18-.7l-.15-.26a.48.48,0,0,1,0-.34L86.8,31a1.6,1.6,0,0,0,.08-.71L86.67,29a28.82,28.82,0,0,1,14.62-8.44l1,.23a2.44,2.44,0,0,0,.68,0l.64-.06a.64.64,0,0,1,.37.11l.55.44a1.14,1.14,0,0,0,.65.22h.06l.88-.08a2.44,2.44,0,0,0,.66-.17l1.52-.67a3.74,3.74,0,0,1,.53-.18l.76-.17a1.07,1.07,0,0,0,.53-.34,28.4,28.4,0,0,1,3.95.62h0a5.3,5.3,0,0,0-.62.17l-1.49.53a.36.36,0,0,0-.06.69l.28.16a1.07,1.07,0,0,0,.75.09l.39-.11a.92.92,0,0,1,.44,0l1,.34.61.17,1.38.32a6.11,6.11,0,0,0,.63.11l1.87.21a1.17,1.17,0,0,1,.44.17l.9.64a3.7,3.7,0,0,0,.58.32l1.93.82a2,2,0,0,0,.68.14h.85a29,29,0,0,1,3.3,2.81l-.09,0a3.11,3.11,0,0,0-.54.4.35.35,0,0,1-.28.08l-.23-.06a.34.34,0,0,1-.2-.2l0-.13a1.05,1.05,0,0,0-.47-.59l-.43-.23a2.49,2.49,0,0,0-.65-.22l-.13,0a.64.64,0,0,1-.33-.2l-.11-.15-.37-.49-.06-.08a.72.72,0,0,0-.74-.25l-.2.06-.6.19-.31.11a3.71,3.71,0,0,1-.5.13.1.1,0,0,1-.07-.08.63.63,0,0,0-.26-.36c-.22-.12-.82,0-.94.06a1.27,1.27,0,0,0-.37.21,1,1,0,0,0-.36.67v0a1.29,1.29,0,0,0,.17.68,1.7,1.7,0,0,0,.5.46l.06,0a.37.37,0,0,1-.17,0,.6.6,0,0,0-.65.25,3.11,3.11,0,0,1-.29.39h0a.51.51,0,0,1-.32.14h-.08a1.77,1.77,0,0,0-.69.14l-.08,0a.47.47,0,0,1-.31,0,.3.3,0,0,1-.12-.21,1,1,0,0,1,.1-.42l.1-.18a1.44,1.44,0,0,0,.17-.71v-.12a1.54,1.54,0,0,1,.07-.49l0-.12a.61.61,0,0,0-.26-.73l-.11-.06a.72.72,0,0,0-.78.06l-.34.27a.41.41,0,0,1-.31.06l-.61-.18a.93.93,0,0,0-.75.13l-.65.48a.42.42,0,0,0,0,.74l.21.12a1.73,1.73,0,0,0,.62.2,1,1,0,0,0,.11.73h0a.42.42,0,0,1,0,.31.3.3,0,0,1-.16.15.62.62,0,0,0-.49.54,4.18,4.18,0,0,1-.12.55l0,.1a.7.7,0,0,1-.24.32l-.07,0a.59.59,0,0,1-.37.06l-.43-.11a1.1,1.1,0,0,1-.4-.23l-.5-.49a.69.69,0,0,0-.76-.13,1.39,1.39,0,0,0-.52.49l-.28.49a.85.85,0,0,0,0,.77l.25.46a1.85,1.85,0,0,0,.46.53l.67.49a1.15,1.15,0,0,0,.72.19l.78-.08.58,0h.8a1.4,1.4,0,0,0,.7-.2l.17-.12a.28.28,0,0,1,.25,0l.45.28a4.11,4.11,0,0,0,.59.29l.16.06a1,1,0,0,1,.36.27l.06.08a.48.48,0,0,1,.06.33l0,.06A1.15,1.15,0,0,0,118,35l.18.37a3.06,3.06,0,0,0,.37.56l.1.11a.5.5,0,0,1,.09.33v0a2,2,0,0,0,0,.69l0,.11a.45.45,0,0,0,.69.29l.35-.21a.75.75,0,0,1,.4-.08l.26,0a.11.11,0,0,1,.08.1l0,.86a2.77,2.77,0,0,0,.08.67l.1.36a.47.47,0,0,0,.28.32.47.47,0,0,0,.42,0l.35-.21a.69.69,0,0,1,.39-.07l.25,0a.36.36,0,0,1,.22.19l.15.43a1.28,1.28,0,0,0,.46.57l.45.28.53.32.25.14a4.39,4.39,0,0,0,.59.28l.35.13a.26.26,0,0,1,.14.19v.49a1,1,0,0,1-.11.44l-.37.64a4.5,4.5,0,0,1-.32.47l-.24.29a2.5,2.5,0,0,1-.4.37l-.13.09-.1.08,0-.23a3.31,3.31,0,0,0-.17-.64l0-.1a1,1,0,0,0-.55-.52l-.44-.15a2.13,2.13,0,0,1-.47-.25l-.56-.42a1.82,1.82,0,0,1-.35-.38l-.51-.81a1,1,0,0,0-.63-.41l-.48-.07a.61.61,0,0,0-.65.42l0,.06a.9.9,0,0,1-.22.35.13.13,0,0,1-.13,0l-.35-.33a3.48,3.48,0,0,1-.37-.42l-.27-.38a2.12,2.12,0,0,1-.23-.47l-.08-.27A1.5,1.5,0,0,0,117,39l-.13-.12a3.09,3.09,0,0,1-.37-.41l-.17-.23a.06.06,0,0,1,0,0l0,0,.07,0a1.67,1.67,0,0,0,.49-.51l.1-.17c.09-.15.21-.37.26-.49a.54.54,0,0,0-.27-.67l-.35-.2c-.15-.09-.41-.22-.57-.29l-1.13-.5a2.08,2.08,0,0,1-.44-.28l-.29-.26a1.12,1.12,0,0,0-.68-.26h-.27l-.63,0-.64.06a.51.51,0,0,1-.34-.12l-.68-.65a.69.69,0,0,0-.47-.18.64.64,0,0,0-.3.07l-.53.27a1,1,0,0,1-.45.09l-.61,0a1.22,1.22,0,0,0-.71.2l-.48.35a3.45,3.45,0,0,1-.48.28l-.46.2a2.11,2.11,0,0,1-.51.14l-1.19.12a2.18,2.18,0,0,0-.66.2l-1,.52a4.62,4.62,0,0,0-.55.34l-1.3,1a.55.55,0,0,0-.18.72.13.13,0,0,1,0,.11l-.09.08a3.09,3.09,0,0,0-.45.49l-1,1.38c-.1.14-.25.38-.34.53l-.61,1.06a.67.67,0,0,0,.1.77l.19.2a.28.28,0,0,1,0,.24l-.11.27a2.11,2.11,0,0,0-.13.68v1.18a2.46,2.46,0,0,0,.12.67l.4,1.14a4.19,4.19,0,0,0,.27.59l.31.53a.8.8,0,0,0,.65.37h.34a.68.68,0,0,1,.36.13l.23.19a.69.69,0,0,0,.61.16l0,0,.23.48a1,1,0,0,0,.58.49l2.18.59a1.13,1.13,0,0,1,.4.23l.34.35a.5.5,0,0,1,.12.33l0,.46a1,1,0,0,0,.27.71l.07.07a3.33,3.33,0,0,0,.51.39.83.83,0,0,1,.27.31l.12.27a.44.44,0,0,1,0,.32l-.1.18a4.59,4.59,0,0,1-.32.47l-.29.36a.9.9,0,0,0-.15.75l0,.12a.31.31,0,0,1-.07.25l0,0a.79.79,0,0,0-.22.74l.32,1.19a4.94,4.94,0,0,0,.22.61l.06.13a.44.44,0,0,1,0,.33l-.47.81a3.77,3.77,0,0,0-.27.6l-.28.89a.63.63,0,0,1-.25.29l-.93.47a2.68,2.68,0,0,0-.55.4l-.74.73a1.21,1.21,0,0,0-.32.67l-.11,1.23a5.25,5.25,0,0,1-.09.57l-.14.61a1.66,1.66,0,0,1-.21.47l-.25.37a1.64,1.64,0,0,0-.24.67l-.07.68c0,.17,0,.45-.05.62l0,.39a1.29,1.29,0,0,1-.14.47l-.22.39a1.1,1.1,0,0,0-.1.74v0a1.1,1.1,0,0,0,.46.6l.28.16a2.92,2.92,0,0,0,.62.25l1.6.41h.17c.5,0,2.19-.07,2.26-.08a2.68,2.68,0,0,0,.66-.13l1.67-.59a3.41,3.41,0,0,1,.54-.13l1-.14a1.43,1.43,0,0,0,.66-.3l.48-.42a2.47,2.47,0,0,0,.43-.53l.1-.18a.47.47,0,0,1,.28-.19l.52-.07.63-.12,1.39-.35a5.8,5.8,0,0,0,.61-.2l1-.39a1.29,1.29,0,0,0,.56-.48l.39-.67a4,4,0,0,0,.27-.6l.15-.44a5.65,5.65,0,0,1,.22-.53l.33-.66a.89.89,0,0,1,.3-.31l.64-.35a2.7,2.7,0,0,1,.51-.2l1-.25a1.06,1.06,0,0,0,.6-.45l.39-.67A.49.49,0,0,1,122,63l.52-.07a3.33,3.33,0,0,0,.65-.17l1.13-.44a2.32,2.32,0,0,0,.59-.35l.77-.67.46-.41.72-.65a2.68,2.68,0,0,0,.43-.53l.12-.21a.52.52,0,0,0-.23-.74l-.44-.21a2.7,2.7,0,0,0-.65-.2l-.65-.1-.6-.1-.21,0a.44.44,0,0,1-.25-.2l-.1-.22a.38.38,0,0,1,0-.28,1.12,1.12,0,0,0,.1-.65v0a2.15,2.15,0,0,0-.26-.64l-.29-.45a.76.76,0,0,1-.09-.4l0-.32a3.88,3.88,0,0,1,.12-.56l.19-.62a1,1,0,0,0,0-.65.84.84,0,0,1,0-.34L124,52a2.9,2.9,0,0,1,.12-.54l.19-.56a1.47,1.47,0,0,0,0-.72l-.08-.3a2.5,2.5,0,0,1-.07-.54v0c0-.17,0-.44,0-.61l0-1.8c0-.09,0-.2,0-.31l.34.2a.36.36,0,0,1,.15.25v.19c0,.17,0,.44,0,.61v.81a2.9,2.9,0,0,0,.11.67,8.92,8.92,0,0,0,.4,1.06,8.29,8.29,0,0,1,.07,1.28c0,.17,0,.44,0,.6l0,1.38a4.82,4.82,0,0,0,0,.65l0,.26a.82.82,0,0,1-.08.42l-.06.1a3.3,3.3,0,0,0-.27.61l-.25.81a.8.8,0,0,0,0,.28.86.86,0,0,0,.19.47l.36.41a.9.9,0,0,0,.72.28l1.1-.12a5.11,5.11,0,0,0,.64-.12l.69-.19a5.25,5.25,0,0,0,.61-.21l.75-.32a2.07,2.07,0,0,0,.57-.39l1-1a3.1,3.1,0,0,0,.4-.53l.33-.56a1.18,1.18,0,0,0,.12-.73l-.15-.73a4.58,4.58,0,0,0-.18-.63l-.16-.4a.53.53,0,0,0-.29-.3.54.54,0,0,0-.42,0l-.24.1a2.59,2.59,0,0,0-.53.32l-.14-.41a.81.81,0,0,1,0-.42l.12-.32a1.09,1.09,0,0,0,0-.75l-.39-.85a.93.93,0,0,1-.06-.44l0-.21c0-.17.07-.44.1-.61v0l.29.25a.74.74,0,0,1,.2.35l0,.28a4.7,4.7,0,0,0,.16.63l.07.19a1.6,1.6,0,0,0,.4.59l.32.28a3.51,3.51,0,0,1,.38.41l.19.26a6.33,6.33,0,0,0,.41.49l.37.39a1.89,1.89,0,0,0,.58.39l.2.08a.64.64,0,0,1,.28.27l0,.08a.66.66,0,0,1,0,.39l-.09.24a.82.82,0,0,0,.15.76l.19.22A.62.62,0,0,1,134,55v0a4.19,4.19,0,0,1-.08.56l0,.11a.4.4,0,0,0,.11.42.38.38,0,0,0,.33.08l-.07.21a3.7,3.7,0,0,0-.15.64l-.1.75a3.35,3.35,0,0,1-.13.55l-.2.6a3.94,3.94,0,0,0-.14.64l-.07.63a3.56,3.56,0,0,0,0,.62c-.32.67-.66,1.32-1,2A28.62,28.62,0,0,1,80,55.92,5.17,5.17,0,0,0,80.25,55.41Zm47.48-16.5-.17.07a.76.76,0,0,1-.28,0h-.14l-.72-.18a.63.63,0,0,1-.31-.23l-.21-.35a.84.84,0,0,0-.67-.37h-.35a.17.17,0,0,1-.15-.11l-.3-1.14a.42.42,0,0,1,.07-.31l.44-.51a.52.52,0,0,1,.32-.15h0a.58.58,0,0,1,.34.15l0,.05a1.43,1.43,0,0,0,.59.36.38.38,0,0,1,.21.15c.06.12.17.35.25.5l.18.33a3.34,3.34,0,0,1,.21.52l.13.41a1.93,1.93,0,0,0,.34.61Z"/><path class="cls-3" d="M113.5,74.4l.34.06H114a1.33,1.33,0,0,0,.56-.12l.19-.1.54-.27.61-.29.54-.23.32-.12a2.24,2.24,0,0,0,.59-.35l.68-.59a2,2,0,0,1,.45-.28l.75-.32a1.31,1.31,0,0,0,.55-.49l.41-.71a.4.4,0,0,0,0-.41.39.39,0,0,0-.42-.17l-.54.09a1.36,1.36,0,0,0-.65.33l-.11.1a.65.65,0,0,1-.36.15H118l-.62,0-.36,0a2.49,2.49,0,0,0-.66.14l-.46.18a1.26,1.26,0,0,0-.56.48l-.08.14A.86.86,0,0,1,115,72l-.32.14a5.92,5.92,0,0,0-.57.29l-.56.33a1,1,0,0,0-.42.63l-.06.39A.56.56,0,0,0,113.5,74.4Z"/></g></g></svg>