<svg xmlns="http://www.w3.org/2000/svg" viewBox="0 0 143.02 170.32"><defs><style>.cls-1{fill:#2090ce;stroke:#d8d6d6;stroke-miterlimit:10;stroke-width:2.74px;}.cls-2{isolation:isolate;}.cls-3{fill:#f9f9f9;}</style></defs><title>element4</title><g id="Layer_2" data-name="Layer 2"><g id="Layer_1-2" data-name="Layer 1"><g id="Layer_2-4" data-name="Layer 2-4"><g id="Layer_1-2-4" data-name="Layer 1-2-4"><rect class="cls-1" x="1.37" y="1.37" width="140.29" height="167.59"/><g class="cls-2"><path class="cls-3" d="M70.74,65a11.08,11.08,0,0,1,7.77,2.94q6.27,5.62,6.27,17.73t-6.92,19a13,13,0,0,1-8.29,3.79q-6.21,0-9.67-4.25A25.91,25.91,0,0,1,55,94.71,37.68,37.68,0,0,1,53.5,84.55q0-8.36,4-13.78Q61.66,65,70.74,65Zm-.46,5.42q-8.75,0-10.91,8.29a20.58,20.58,0,0,0-.65,5.68,29.71,29.71,0,0,0,1.31,8q1.76,6.14,5.22,8.62a7.76,7.76,0,0,0,4.9,1.57A6.78,6.78,0,0,0,75.31,100a14.13,14.13,0,0,0,3.13-6.56,38.47,38.47,0,0,0,.85-8q0-7.18-2.06-11.1T70.29,70.38Z"/></g><g class="cls-2"><path class="cls-3" d="M56.55,158.39q0,1.27-1.37,1.27a.66.66,0,0,1-.5-.25,1.12,1.12,0,0,1-.22-.76l-.08-6.56q0-3.26.08-6.12a15.29,15.29,0,0,0-1.71,1.78q-.83,1-1.12,1.34a4.08,4.08,0,0,1-.77.66,1.62,1.62,0,0,1-.89.32.83.83,0,0,1-.66-.28,1,1,0,0,1-.25-.7,2,2,0,0,1,.61-1.12q.61-.71,4.48-4.82a2.14,2.14,0,0,1,1.5-.54,1,1,0,0,1,.72.26.79.79,0,0,1,.28.59l-.18,6.95Z"/><path class="cls-3" d="M60.89,148.47a5.75,5.75,0,0,1,3.94-.08,5.12,5.12,0,0,1,1.68,1,4.54,4.54,0,0,1,1.23,1.77,6.74,6.74,0,0,1,.47,2.6,6.25,6.25,0,0,1-1.45,4.19,4.3,4.3,0,0,1-3.35,1.71,6.32,6.32,0,0,1-3.33-.87q-1.43-.87-1.43-1.9a1.79,1.79,0,0,1,.12-.74.89.89,0,0,1,.43-.4,1.26,1.26,0,0,1,.56-.15,1.33,1.33,0,0,1,.67.3l1.2.84a3,3,0,0,0,1.78.54,2.22,2.22,0,0,0,1.78-1A3.61,3.61,0,0,0,66,154q0-3.49-3.13-3.49a11.11,11.11,0,0,0-1.56.13l-1.16.15a1.57,1.57,0,0,1-.74-.18q-.54-.52-.54-3.29a29.89,29.89,0,0,1,.13-3.59c.09-.54.23-.86.44-.94a12.3,12.3,0,0,1,3.24-.23A14.74,14.74,0,0,1,67,143a1,1,0,0,1,.52.89,1.37,1.37,0,0,1-.32.94.7.7,0,0,1-.68.28,20.27,20.27,0,0,0-4.31-.47q-.67,0-1.34.05Q60.81,145.76,60.89,148.47Z"/><path class="cls-3" d="M71.47,156.51a1.33,1.33,0,0,1,1,.41,1.83,1.83,0,0,1,.49,1.14,1.57,1.57,0,0,1-.41,1,1.25,1.25,0,0,1-1,.48,1.73,1.73,0,0,1-1-.3,1,1,0,0,1-.44-.92,2.27,2.27,0,0,1,.4-1.24A1.14,1.14,0,0,1,71.47,156.51Z"/><path class="cls-3" d="M83,146.15l0,2.58v4.88l.05,4.91a.91.91,0,0,1-.4.76,1.28,1.28,0,0,1-.75.3.63.63,0,0,1-.56-.32,1.52,1.52,0,0,1-.23-.74q-.18-3.8-.18-7.85a3.3,3.3,0,0,1-2.71.88,2.66,2.66,0,0,1-2.3-1.45A5.79,5.79,0,0,1,75,147a4.21,4.21,0,0,1,1.38-3.4,5.21,5.21,0,0,1,3.5-1.18A3,3,0,0,1,82.77,144,6.43,6.43,0,0,1,83,146.15Zm-2,.62,0-1.27a2.05,2.05,0,0,0-.1-.81.81.81,0,0,0-.26-.3.58.58,0,0,0-.43-.18,3.12,3.12,0,0,0-.65.09,6.34,6.34,0,0,0-1,.36,2.75,2.75,0,0,0-1.11.9,2.65,2.65,0,0,0-.48,1.64,2.56,2.56,0,0,0,.52,1.65,1.43,1.43,0,0,0,1.08.65,1.2,1.2,0,0,0,.34-.05,6.6,6.6,0,0,0,2.09-.83Z"/><path class="cls-3" d="M92.46,146.15l0,2.58v4.88l.05,4.91a.91.91,0,0,1-.4.76,1.28,1.28,0,0,1-.75.3.63.63,0,0,1-.56-.32,1.52,1.52,0,0,1-.23-.74q-.18-3.8-.18-7.85a3.3,3.3,0,0,1-2.71.88,2.66,2.66,0,0,1-2.3-1.45,5.79,5.79,0,0,1-.9-3.13,4.21,4.21,0,0,1,1.38-3.4,5.21,5.21,0,0,1,3.5-1.18A3,3,0,0,1,92.25,144,6.43,6.43,0,0,1,92.46,146.15Zm-2,.62,0-1.27a2.05,2.05,0,0,0-.1-.81.81.81,0,0,0-.26-.3.58.58,0,0,0-.43-.18,3.12,3.12,0,0,0-.65.09,6.34,6.34,0,0,0-1,.36,2.75,2.75,0,0,0-1.11.9,2.65,2.65,0,0,0-.48,1.64,2.56,2.56,0,0,0,.52,1.65,1.43,1.43,0,0,0,1.08.65,1.2,1.2,0,0,0,.34-.05,6.6,6.6,0,0,0,2.09-.83Z"/></g><g class="cls-2"><path class="cls-3" d="M17.39,12.59a4.77,4.77,0,0,1,2.84.81,2.67,2.67,0,0,1,1.14,2.31,4.39,4.39,0,0,1-2.28,3.66A12.84,12.84,0,0,1,21,21.81a5.5,5.5,0,0,1,.61,2.65A3.23,3.23,0,0,1,20.44,27a4.56,4.56,0,0,1-3.1,1.07,4.23,4.23,0,0,1-2.91-.93,3.41,3.41,0,0,1-1.09-2.68A6.15,6.15,0,0,1,16,19.58a4.71,4.71,0,0,1-1.72-1.65,4.33,4.33,0,0,1-.75-2.41,2.49,2.49,0,0,1,1-2.06A4.48,4.48,0,0,1,17.39,12.59Zm-2.33,11.6v.21a1.62,1.62,0,0,0,.78,1.4,3.39,3.39,0,0,0,1.87.49,1.83,1.83,0,0,0,1.51-.58,2.16,2.16,0,0,0,.45-1.42,3.14,3.14,0,0,0-.56-1.68,14.37,14.37,0,0,0-1.73-2,5.84,5.84,0,0,0-1.76,1.77A3.63,3.63,0,0,0,15.06,24.19Zm.14-8.36a1.57,1.57,0,0,0,.28.89,2.55,2.55,0,0,0,.56.63q.28.21.77.54l.65.44,1-.76a5.21,5.21,0,0,0,.59-.56,1.75,1.75,0,0,0,.42-.63,2.76,2.76,0,0,0,.07-.8,1.18,1.18,0,0,0-.65-.94,2.46,2.46,0,0,0-1.34-.41h-.14Q15.2,14.41,15.2,15.83Z"/></g></g></g></g></g></svg>