<svg xmlns="http://www.w3.org/2000/svg" viewBox="0 0 138.69 165.17"><defs><style>.cls-1{fill:#11cc46;stroke:#d8d6d6;stroke-miterlimit:10;stroke-width:2.65px;}.cls-2{isolation:isolate;}.cls-3{fill:#f9f9f9;}</style></defs><title>element5</title><g id="Layer_2" data-name="Layer 2"><g id="Layer_1-2" data-name="Layer 1"><g id="Layer_2-2" data-name="Layer 2"><g id="Layer_1-2-2" data-name="Layer 1-2"><rect class="cls-1" x="1.33" y="1.33" width="136.04" height="162.52"/><g class="cls-2"><path class="cls-3" d="M64.48,63.35a3.25,3.25,0,0,1,2.66,1.39,26.89,26.89,0,0,1,2.79,5.76q4,10.32,7.79,32.36a3.27,3.27,0,0,1,.06.73,1.46,1.46,0,0,1-.6,1,2.48,2.48,0,0,1-1.71.54,3.15,3.15,0,0,1-1.87-.54,2.73,2.73,0,0,1-1-1.77q-.25-1.23-1-4.85-1.52-8-2-8.36a19.88,19.88,0,0,0-5-.95q-4.28-.51-5.67-.51a3,3,0,0,0-1.65.25q-1.14,1-3.1,15.39-.25,1.2-2.41,1.2t-2.15-1.84q0-4.56,3.36-17.42t5.57-17Q61.31,63.36,64.48,63.35Zm-.25,7q-.95,0-3.29,5.6t-2.34,6.94a.62.62,0,0,0,.13.44q.51.51,4,.89t4.62.38c.76,0,1.18-.05,1.27-.16a2.21,2.21,0,0,0,.13-1,54,54,0,0,0-1.71-7Q65.31,70.39,64.23,70.39Z"/><path class="cls-3" d="M89,105.16l-6-.06q-1.58,0-1.77-1a64.89,64.89,0,0,1-.38-8.3l.44-18.37q0-1.58,2.41-1.58a3.19,3.19,0,0,1,2,.57A1.87,1.87,0,0,1,86.39,78q-.13,2.66-.7,7.35a88.93,88.93,0,0,0-.7,9q0,2.82.19,6.75l9.37-.57a1.88,1.88,0,0,1,2.09,2.15q0,1.77-1.33,2A41.36,41.36,0,0,1,89,105.16Z"/></g><g class="cls-2"><path class="cls-3" d="M18.6,27.27q0,1-1.13,1a.54.54,0,0,1-.42-.2.92.92,0,0,1-.18-.63l-.06-5.41q0-2.69.06-5a12.72,12.72,0,0,0-1.41,1.47q-.68.83-.93,1.11a3.34,3.34,0,0,1-.64.54,1.34,1.34,0,0,1-.74.27.68.68,0,0,1-.54-.23.85.85,0,0,1-.2-.58,1.68,1.68,0,0,1,.5-.93q.5-.59,3.7-4a1.76,1.76,0,0,1,1.24-.45.86.86,0,0,1,.6.21.65.65,0,0,1,.23.49l-.15,5.73Z"/><path class="cls-3" d="M24.24,15.83a3.28,3.28,0,0,0-2.34,1.09,1,1,0,0,1-.53.21,1.7,1.7,0,0,1-.41,0,.64.64,0,0,1-.49-.68,1.85,1.85,0,0,1,1.11-1.53,5,5,0,0,1,2.62-.66,4,4,0,0,1,2.52.8,2.52,2.52,0,0,1,1,2.08,6.75,6.75,0,0,1-.29,2.13,2.6,2.6,0,0,1-1.25,1.41,3.09,3.09,0,0,1,2.26,3.07,4.87,4.87,0,0,1-1.13,3.23,3.47,3.47,0,0,1-2.76,1.35,5.26,5.26,0,0,1-2.87-.78,2.16,2.16,0,0,1-1.24-1.76.75.75,0,0,1,.21-.45A.76.76,0,0,1,21.3,25a1.44,1.44,0,0,1,.87.37,11.56,11.56,0,0,0,1.07.75,2.48,2.48,0,0,0,1.34.37q2.13,0,2.13-2.66A2.07,2.07,0,0,0,26,22.21a3.19,3.19,0,0,0-2.08-.65l-.42,0a.89.89,0,0,1-.36-.19.63.63,0,0,1-.22-.53q0-.77.85-.83a2.31,2.31,0,0,0,1.52-.77,2.46,2.46,0,0,0,.67-1.77,1.52,1.52,0,0,0-.51-1.1A1.65,1.65,0,0,0,24.24,15.83Z"/></g><g class="cls-2"><path class="cls-3" d="M55.77,157.45l-3.68,0h-.5q-2.48,0-2.48-1a3.28,3.28,0,0,1,.25-1.28,4.31,4.31,0,0,1,.48-.9,12.9,12.9,0,0,1,.9-1q.68-.7,1-1.05t1.82-1.78a15.53,15.53,0,0,0,2.28-2.58,4.33,4.33,0,0,0,.76-2.43A2.42,2.42,0,0,0,55,142.87a2.93,2.93,0,0,0-.93-.15,3.32,3.32,0,0,0-2.15.93,1.31,1.31,0,0,1-.9.4l-.28,0a.79.79,0,0,1-.63-.88q0-1,1.38-1.63a7.41,7.41,0,0,1,3.22-.7,3.64,3.64,0,0,1,2.86,1.26,4.59,4.59,0,0,1,1.12,3.14A6.85,6.85,0,0,1,57,149.84q-.78.9-1.58,1.68a26.54,26.54,0,0,0-3.38,3.66q1.13.07,2.79.08T59,155a1.1,1.1,0,0,1,.61.34.85.85,0,0,1,.24.59,1.19,1.19,0,0,1-.9,1.18A11.27,11.27,0,0,1,55.77,157.45Z"/><path class="cls-3" d="M66.82,142.47a31.53,31.53,0,0,0-1.72,3.18,26,26,0,0,0-1.47,3.21,8.42,8.42,0,0,1,2.14-.28,3.76,3.76,0,0,1,2,.6,3.67,3.67,0,0,1,1.55,3.31q0,5-4.86,5h-.08a2.78,2.78,0,0,1-2.56-1.24A6.62,6.62,0,0,1,61,153q0-4.76,3.58-10.5a4.21,4.21,0,0,1,1.05-1.3,1.45,1.45,0,0,1,.71-.3.92.92,0,0,1,.54.2.65.65,0,0,1,.28.55A1.53,1.53,0,0,1,66.82,142.47Zm.68,10.18a1.93,1.93,0,0,0-2.08-2.12,4.77,4.77,0,0,0-1.4.15,1.45,1.45,0,0,0-.55.39,2.24,2.24,0,0,0-.36.74,4.58,4.58,0,0,0-.16,1.37,2.4,2.4,0,0,0,.49,1.5,1.45,1.45,0,0,0,1.19.64,2.68,2.68,0,0,0,2.88-2.67Z"/><path class="cls-3" d="M72.84,154.4a1.29,1.29,0,0,1,.94.4,1.77,1.77,0,0,1,.48,1.1,1.52,1.52,0,0,1-.4,1,1.21,1.21,0,0,1-.94.46,1.68,1.68,0,0,1-1-.29,1,1,0,0,1-.43-.89,2.2,2.2,0,0,1,.39-1.2A1.11,1.11,0,0,1,72.84,154.4Z"/><path class="cls-3" d="M84,144.35l0,2.5v4.74l.05,4.76a.88.88,0,0,1-.39.74,1.24,1.24,0,0,1-.73.29.61.61,0,0,1-.54-.31,1.47,1.47,0,0,1-.23-.71q-.17-3.68-.17-7.62a3.19,3.19,0,0,1-2.63.85,2.58,2.58,0,0,1-2.23-1.4,5.61,5.61,0,0,1-.88-3,4.08,4.08,0,0,1,1.34-3.29A5.05,5.05,0,0,1,81,140.72a2.87,2.87,0,0,1,2.83,1.58A6.26,6.26,0,0,1,84,144.35Zm-2,.6,0-1.23a2,2,0,0,0-.1-.79.78.78,0,0,0-.25-.29.57.57,0,0,0-.41-.17,3,3,0,0,0-.63.09,6.07,6.07,0,0,0-1,.35,2.66,2.66,0,0,0-1.08.88,2.57,2.57,0,0,0-.46,1.59,2.49,2.49,0,0,0,.5,1.6,1.39,1.39,0,0,0,1.05.63,1.2,1.2,0,0,0,.33,0,6.39,6.39,0,0,0,2-.8Z"/><path class="cls-3" d="M90.19,140.74a5.12,5.12,0,0,1,3.06.88,2.87,2.87,0,0,1,1.23,2.48A4.73,4.73,0,0,1,92,148a13.8,13.8,0,0,1,2,2.63,5.91,5.91,0,0,1,.65,2.86,3.47,3.47,0,0,1-1.23,2.73,4.9,4.9,0,0,1-3.33,1.15,4.55,4.55,0,0,1-3.13-1,3.67,3.67,0,0,1-1.18-2.88,6.62,6.62,0,0,1,2.88-5.26,5.07,5.07,0,0,1-1.85-1.78,4.67,4.67,0,0,1-.8-2.59,2.67,2.67,0,0,1,1.1-2.22A4.82,4.82,0,0,1,90.19,140.74Zm-2.5,12.48v.23a1.74,1.74,0,0,0,.84,1.5,3.65,3.65,0,0,0,2,.53,2,2,0,0,0,1.63-.63,2.31,2.31,0,0,0,.49-1.53,3.37,3.37,0,0,0-.6-1.8,15.34,15.34,0,0,0-1.87-2.2,6.28,6.28,0,0,0-1.89,1.9A3.9,3.9,0,0,0,87.69,153.22Zm.15-9a1.68,1.68,0,0,0,.3,1,2.74,2.74,0,0,0,.6.68q.3.23.83.58l.7.48,1.08-.81a5.54,5.54,0,0,0,.64-.6,1.9,1.9,0,0,0,.45-.68,2.94,2.94,0,0,0,.08-.87,1.27,1.27,0,0,0-.7-1,2.65,2.65,0,0,0-1.44-.44h-.15Q87.84,142.7,87.84,144.23Z"/></g></g></g></g></g></svg>