<svg xmlns="http://www.w3.org/2000/svg" viewBox="0 0 141.31 168.27"><defs><style>.cls-1{fill:#dd242d;stroke:#d8d6d6;stroke-miterlimit:10;stroke-width:2.71px;}.cls-2{isolation:isolate;}.cls-3{fill:#f9f9f9;}</style></defs><title>element2</title><g id="Layer_2" data-name="Layer 2"><g id="Layer_1-2" data-name="Layer 1"><g id="Layer_2-3" data-name="Layer 2-3"><g id="Layer_1-2-3" data-name="Layer 1-2-3"><rect class="cls-1" x="1.36" y="1.36" width="138.59" height="165.56"/><g class="cls-2"><path class="cls-3" d="M62,63.85l7.16-.13q4.77,0,4.77,2.52a2.24,2.24,0,0,1-.26,1.26l-.39.55a1,1,0,0,1-.52.32,6.85,6.85,0,0,1-1.29.32,6.75,6.75,0,0,1-.71.06,19.07,19.07,0,0,1-2.39.19q-1.68.07-4.87.06t-7.84-.26V80.63H68.87a1.82,1.82,0,0,1,1.32.65,2,2,0,0,1,.61,1.42q0,3-2.52,3H55.7L56,102.57q0,3.29-2.23,3.29t-2.61-3q-.19-1-.23-16.42t-.16-17.78Q48.35,69,48.35,66A3.09,3.09,0,0,1,49,64.27q.64-.93,1.13-1a9.65,9.65,0,0,1,1.23-.06q.74,0,3.65.26Q59,63.85,62,63.85Z"/></g><g class="cls-2"><path class="cls-3" d="M83.89,91.15,84,99.6a11.24,11.24,0,0,1-.06,1.81l11.16-.19q1.87.19,1.87,1.61,0,2.71-2.52,2.71l-12.65.13a1.92,1.92,0,0,1-1.71-.81,3.43,3.43,0,0,1-.61-1.71q-.07-.9-.06-2V90.44a1.45,1.45,0,0,1-.84-1.35,2.22,2.22,0,0,1,.71-1.61q-.19-5-.19-9.16,0-2.39,2.9-2.45h1.81L95.12,76h.06q2.06.26,2.07,1.94a1.84,1.84,0,0,1-.77,1.74q-1.68.9-8.07.9-2.39,0-4.77-.19,0,5.81.06,6.52,2.52.06,9.87.06,2,.26,2,1.81a2.19,2.19,0,0,1-.65,1.48,2.29,2.29,0,0,1-1.39.81,31.47,31.47,0,0,1-3.16.1Q88,91.21,83.89,91.15Z"/></g><g class="cls-2"><path class="cls-3" d="M52.93,145.5a5.68,5.68,0,0,1,3.89-.08,5,5,0,0,1,1.66.94,4.49,4.49,0,0,1,1.21,1.75,6.67,6.67,0,0,1,.46,2.56,6.17,6.17,0,0,1-1.43,4.13,4.24,4.24,0,0,1-3.3,1.68,6.25,6.25,0,0,1-3.29-.85q-1.42-.86-1.42-1.88a1.78,1.78,0,0,1,.11-.73.87.87,0,0,1,.42-.4,1.24,1.24,0,0,1,.55-.15,1.32,1.32,0,0,1,.66.29l1.19.83a3,3,0,0,0,1.76.54,2.19,2.19,0,0,0,1.76-1,3.57,3.57,0,0,0,.77-2.21q0-3.45-3.09-3.45a11,11,0,0,0-1.54.13l-1.15.15a1.55,1.55,0,0,1-.73-.18q-.54-.51-.54-3.25a29.65,29.65,0,0,1,.13-3.55q.13-.8.43-.93a12.16,12.16,0,0,1,3.2-.23,14.56,14.56,0,0,1,4.27.51,1,1,0,0,1,.51.88,1.34,1.34,0,0,1-.32.93.69.69,0,0,1-.68.28,20,20,0,0,0-4.26-.46q-.66,0-1.33.05Q52.86,142.82,52.93,145.5Z"/><path class="cls-3" d="M63.73,145.5a5.68,5.68,0,0,1,3.89-.08,5,5,0,0,1,1.66.94,4.49,4.49,0,0,1,1.21,1.75,6.67,6.67,0,0,1,.46,2.56,6.17,6.17,0,0,1-1.43,4.13,4.24,4.24,0,0,1-3.3,1.68,6.25,6.25,0,0,1-3.29-.85q-1.42-.86-1.42-1.88a1.78,1.78,0,0,1,.11-.73.87.87,0,0,1,.42-.4,1.24,1.24,0,0,1,.55-.15,1.32,1.32,0,0,1,.66.29l1.19.83a3,3,0,0,0,1.76.54,2.19,2.19,0,0,0,1.76-1,3.57,3.57,0,0,0,.77-2.21q0-3.45-3.09-3.45a11,11,0,0,0-1.54.13l-1.15.15a1.55,1.55,0,0,1-.73-.18q-.54-.51-.54-3.25a29.65,29.65,0,0,1,.13-3.55q.13-.8.43-.93a12.16,12.16,0,0,1,3.2-.23,14.56,14.56,0,0,1,4.27.51,1,1,0,0,1,.51.88,1.34,1.34,0,0,1-.32.93.69.69,0,0,1-.68.28,20,20,0,0,0-4.26-.46q-.66,0-1.33.05Q63.65,142.82,63.73,145.5Z"/><path class="cls-3" d="M74.18,153.43a1.31,1.31,0,0,1,1,.41,1.81,1.81,0,0,1,.48,1.12,1.55,1.55,0,0,1-.41,1,1.23,1.23,0,0,1-1,.47,1.71,1.71,0,0,1-1-.29,1,1,0,0,1-.43-.91,2.24,2.24,0,0,1,.4-1.23A1.13,1.13,0,0,1,74.18,153.43Z"/><path class="cls-3" d="M85.55,143.2l0,2.55v4.82l.05,4.85a.9.9,0,0,1-.4.75,1.27,1.27,0,0,1-.74.29.62.62,0,0,1-.55-.32,1.49,1.49,0,0,1-.23-.73q-.18-3.75-.18-7.76a3.26,3.26,0,0,1-2.68.87,2.63,2.63,0,0,1-2.27-1.43,5.72,5.72,0,0,1-.89-3.09A4.16,4.16,0,0,1,79,140.66a5.15,5.15,0,0,1,3.46-1.16,2.92,2.92,0,0,1,2.88,1.61A6.37,6.37,0,0,1,85.55,143.2Zm-2,.61,0-1.25a2,2,0,0,0-.1-.8.8.8,0,0,0-.26-.29.58.58,0,0,0-.42-.18,3.1,3.1,0,0,0-.64.09,6.32,6.32,0,0,0-1,.36,2.72,2.72,0,0,0-1.1.89,2.62,2.62,0,0,0-.47,1.62,2.53,2.53,0,0,0,.51,1.63,1.41,1.41,0,0,0,1.07.64,1.21,1.21,0,0,0,.33-.05,6.49,6.49,0,0,0,2.07-.82Z"/><path class="cls-3" d="M91.83,141.59a3.93,3.93,0,0,0-2.81,1.3,1.14,1.14,0,0,1-.64.26,2,2,0,0,1-.48-.05.77.77,0,0,1-.59-.82,2.22,2.22,0,0,1,1.33-1.84,6,6,0,0,1,3.14-.79,4.73,4.73,0,0,1,3,1A3,3,0,0,1,96,143.1a8.09,8.09,0,0,1-.34,2.55,3.12,3.12,0,0,1-1.49,1.68A3.7,3.7,0,0,1,96.88,151a5.84,5.84,0,0,1-1.35,3.87,4.15,4.15,0,0,1-3.3,1.62,6.31,6.31,0,0,1-3.43-.93,2.59,2.59,0,0,1-1.48-2.11.9.9,0,0,1,.26-.54.91.91,0,0,1,.74-.31,1.73,1.73,0,0,1,1,.45,13.81,13.81,0,0,0,1.28.89,3,3,0,0,0,1.61.45q2.55,0,2.55-3.19a2.47,2.47,0,0,0-.88-2,3.81,3.81,0,0,0-2.49-.78l-.5-.05a1.06,1.06,0,0,1-.43-.23.75.75,0,0,1-.27-.64q0-.92,1-1a2.77,2.77,0,0,0,1.83-.92,3,3,0,0,0,.8-2.12,1.81,1.81,0,0,0-.61-1.31A2,2,0,0,0,91.83,141.59Z"/></g><g class="cls-2"><path class="cls-3" d="M19.34,25.08l-2.73,0h-.37q-1.84,0-1.84-.71a2.44,2.44,0,0,1,.19-.95,3.2,3.2,0,0,1,.35-.67,9.52,9.52,0,0,1,.67-.74q.5-.52.72-.78t1.35-1.32A11.46,11.46,0,0,0,19.37,18a3.21,3.21,0,0,0,.57-1.8,1.79,1.79,0,0,0-1.17-1.89,2.16,2.16,0,0,0-.69-.11,2.46,2.46,0,0,0-1.6.69,1,1,0,0,1-.67.3l-.2,0a.59.59,0,0,1-.46-.65q0-.72,1-1.21a5.49,5.49,0,0,1,2.38-.52,2.69,2.69,0,0,1,2.12.94A3.4,3.4,0,0,1,21.49,16a5.07,5.07,0,0,1-1.22,3.41q-.58.67-1.17,1.24a19.63,19.63,0,0,0-2.51,2.71q.83.06,2.07.06t3.05-.15a.81.81,0,0,1,.45.25.63.63,0,0,1,.18.44.88.88,0,0,1-.67.87A8.38,8.38,0,0,1,19.34,25.08Z"/><path class="cls-3" d="M27.52,14a23.32,23.32,0,0,0-1.27,2.36,19.34,19.34,0,0,0-1.09,2.38,6.25,6.25,0,0,1,1.59-.2,2.78,2.78,0,0,1,1.51.45,2.72,2.72,0,0,1,1.15,2.45q0,3.69-3.6,3.71h-.06a2.06,2.06,0,0,1-1.89-.92,4.9,4.9,0,0,1-.63-2.44A15,15,0,0,1,25.89,14a3.12,3.12,0,0,1,.78-1,1.07,1.07,0,0,1,.53-.22.68.68,0,0,1,.4.15.48.48,0,0,1,.2.41A1.13,1.13,0,0,1,27.52,14Zm.5,7.54A1.43,1.43,0,0,0,26.48,20a3.55,3.55,0,0,0-1,.11,1.08,1.08,0,0,0-.41.29,1.67,1.67,0,0,0-.27.55,3.39,3.39,0,0,0-.12,1A1.78,1.78,0,0,0,25,23a1.08,1.08,0,0,0,.88.47,2,2,0,0,0,1.59-.61A2,2,0,0,0,28,21.53Z"/></g></g></g></g></g></svg>