<svg xmlns="http://www.w3.org/2000/svg" viewBox="0 0 595.28 553.52"><defs><style>.cls-1{fill:#309293;}.cls-2{fill:#d2195a;}.cls-11,.cls-13,.cls-3{fill:none;}.cls-3{stroke:#4aa3a5;stroke-width:4.45px;}.cls-10,.cls-11,.cls-13,.cls-3{stroke-miterlimit:10;}.cls-10,.cls-4{fill:#fff;}.cls-5{fill:#ecbd13;}.cls-6{fill:#2db9ac;}.cls-7{fill:#92a329;}.cls-8{fill:#e0e0e0;}.cls-9{fill:#d61561;}.cls-10,.cls-11,.cls-13{stroke:#fff;}.cls-10,.cls-11{stroke-width:4px;}.cls-12{fill:#c71e5a;}</style></defs><title>elementshome</title><g id="Layer_1" data-name="Layer 1"><rect class="cls-1" width="595.45" height="553.52"/><path class="cls-2" d="M294.52,233.51a.35.35,0,0,1,.23.11c2.51,2.74,4.89,6,4.89,9.07a5.16,5.16,0,1,1-10.29,0c0-3.07,2.38-6.33,4.89-9.07a.35.35,0,0,1,.28-.11Z"/><path class="cls-2" d="M287.43,251.26a.24.24,0,0,1,.15.07c1.72,1.88,3.36,4.11,3.36,6.22a3.54,3.54,0,1,1-7.06,0c0-2.11,1.63-4.34,3.36-6.22a.24.24,0,0,1,.19-.07Z"/></g><g id="Layer_2" data-name="Layer 2"><circle class="cls-3" cx="32.93" cy="42.1" r="13.15"/><circle class="cls-3" cx="113.17" cy="89.42" r="13.15"/><circle class="cls-3" cx="113.17" cy="181.95" r="13.15"/><circle class="cls-3" cx="191.08" cy="45.44" r="13.15"/><circle class="cls-3" cx="270.23" cy="89.42" r="13.15"/><circle class="cls-3" cx="270.23" cy="181.95" r="13.15"/><circle class="cls-3" cx="191.08" cy="226.45" r="13.15"/><circle class="cls-3" cx="347.71" cy="45.44" r="13.15"/><circle class="cls-3" cx="427.99" cy="89.42" r="13.15"/><circle class="cls-3" cx="427.99" cy="181.95" r="13.15"/><circle class="cls-3" cx="347.71" cy="226.45" r="13.15"/><circle class="cls-3" cx="192.46" cy="318.41" r="13.15"/><circle class="cls-3" cx="270.23" cy="363.34" r="13.15"/><circle class="cls-3" cx="349.9" cy="318.41" r="13.15"/><circle class="cls-3" cx="427.99" cy="363.34" r="13.15"/><circle class="cls-3" cx="507.35" cy="226.45" r="13.15"/><circle class="cls-3" cx="507.35" cy="318.41" r="13.15"/><circle class="cls-3" cx="570.17" cy="355.41" r="13.15"/><line class="cls-3" x1="46.08" y1="52.73" x2="103.74" y2="84.47"/><line class="cls-3" x1="126.33" y1="82.83" x2="177.93" y2="51.27"/><line class="cls-3" x1="113.17" y1="102.57" x2="113.17" y2="172.28"/><line class="cls-3" x1="126.22" y1="190.52" x2="179.27" y2="220.66"/><line class="cls-3" x1="204.23" y1="50.92" x2="257.93" y2="84.75"/><line class="cls-3" x1="270.23" y1="102.57" x2="270.23" y2="172.28"/><line class="cls-3" x1="281.38" y1="188.9" x2="337.14" y2="222.78"/><line class="cls-3" x1="281.22" y1="82.2" x2="334.56" y2="51.18"/><line class="cls-3" x1="360.86" y1="52.14" x2="416.25" y2="83.49"/><line class="cls-3" x1="427.99" y1="102.57" x2="427.99" y2="168.8"/><line class="cls-3" x1="416.16" y1="187.71" x2="360.86" y2="221.92"/><line class="cls-3" x1="439.24" y1="188.73" x2="496.31" y2="219.31"/><line class="cls-3" x1="507.35" y1="239.6" x2="507.35" y2="305.26"/><line class="cls-3" x1="518.21" y1="323.59" x2="557.02" y2="348.73"/><line class="cls-3" x1="440" y1="357.99" x2="496.49" y2="325.83"/><line class="cls-3" x1="416.15" y1="357.6" x2="360.86" y2="325.67"/><line class="cls-3" x1="336.74" y1="326.1" x2="283.38" y2="357.84"/><line class="cls-3" x1="204.23" y1="327.31" x2="259.64" y2="357.84"/><line class="cls-3" x1="192.4" y1="306.37" x2="191.08" y2="239.6"/><rect class="cls-4" x="30.22" y="365.53" width="3.94" height="66.25" rx="1.97" ry="1.97"/><rect class="cls-4" x="60.11" y="365.53" width="3.94" height="66.25" rx="1.97" ry="1.97"/><rect class="cls-4" x="114.89" y="365.53" width="3.94" height="66.25" rx="1.97" ry="1.97"/><rect class="cls-4" x="152.79" y="365.53" width="3.94" height="66.25" rx="1.97" ry="1.97"/><rect class="cls-4" x="30.22" y="364.53" width="126.51" height="5.91"/><rect class="cls-4" x="259.04" y="309.39" width="58.21" height="10.5" rx="5.25" ry="5.25"/><path class="cls-1" d="M280.06,320.19v19.55l-28.27,78.88,75.61.25L300,339.51l-.14-19.32Z"/><rect class="cls-4" x="300.25" y="313.72" width="11.09" height="31.67" rx="5.3" ry="5.3"/><rect class="cls-4" x="253.52" y="331.73" width="11.51" height="101.59" rx="5.76" ry="5.76" transform="translate(135.88 -62.81) rotate(18.64)"/><rect class="cls-4" x="238.99" y="419.17" width="100.52" height="12.61" rx="6.31" ry="6.31"/><rect class="cls-4" x="314.89" y="332.61" width="11.25" height="101.49" rx="5.39" ry="5.39" transform="translate(746.75 644.15) rotate(161.36)"/><path class="cls-5" d="M270.8,373.61h38.38l13.34,42.68-65.35-.42Z"/><rect class="cls-4" x="267.7" y="314.01" width="12.03" height="30.22" rx="5.52" ry="5.52"/><rect class="cls-4" x="185.82" y="231.86" width="38.31" height="7.19" rx="3.52" ry="3.52"/><path class="cls-1" d="M199,239.25v13.37l-17.94,54,48,.17-17.39-54.29-.09-13.22Z"/><rect class="cls-4" x="212.94" y="234.83" width="7.72" height="21.67" rx="3.45" ry="3.45"/><path class="cls-4" d="M175.29,314.83h0a3.77,3.77,0,0,0,4.8-2.47L199,254a4,4,0,0,0-2.38-5h0a3.77,3.77,0,0,0-4.8,2.47l-19,58.39A4,4,0,0,0,175.29,314.83Z"/><rect class="cls-4" x="172.62" y="306.97" width="66.16" height="8.63" rx="4.23" ry="4.23"/><path class="cls-4" d="M236.58,314.91h0a3.71,3.71,0,0,1-4.77-2.37l-18.37-56.66a3.93,3.93,0,0,1,2.42-4.88h0a3.71,3.71,0,0,1,4.77,2.37L239,310A3.93,3.93,0,0,1,236.58,314.91Z"/><path class="cls-6" d="M194.48,276.53h22.46l9.4,28.46H185.07Z"/><rect class="cls-4" x="191.52" y="235.02" width="7.91" height="20.67" rx="3.7" ry="3.7"/><rect class="cls-4" x="488.93" y="342.02" width="38.31" height="7.19" rx="3.52" ry="3.52"/><path class="cls-1" d="M502.1,349.41v13.37l-17.94,54,48,.17-17.39-54.29-.09-13.22Z"/><rect class="cls-4" x="515.05" y="343.99" width="7.55" height="21.67" rx="3.41" ry="3.41"/><path class="cls-4" d="M478.39,425h0a3.77,3.77,0,0,0,4.8-2.47l19-58.39a4,4,0,0,0-2.38-5h0a3.77,3.77,0,0,0-4.8,2.47L476,420A4,4,0,0,0,478.39,425Z"/><rect class="cls-4" x="475.73" y="417.13" width="66.16" height="8.63" rx="4.23" ry="4.23"/><path class="cls-4" d="M539.32,425h0a3.77,3.77,0,0,1-4.8-2.47l-18.93-58.33a4,4,0,0,1,2.38-5h0a3.77,3.77,0,0,1,4.8,2.47L541.7,420A4,4,0,0,1,539.32,425Z"/><path class="cls-7" d="M497.44,386.69H519.9l9.4,28.46H488Z"/><rect class="cls-4" x="494.62" y="345.19" width="7.91" height="20.67" rx="3.7" ry="3.7"/><path class="cls-5" d="M377.73,350c-11.2,9.55-16.3,24.12-13.1,37.64,4.13,17.46,21.05,28.68,38,28.4,15-.25,30.23-9.57,35.63-25.35a38.16,38.16,0,0,0-10.4-40.15"/><path class="cls-4" d="M421.1,383.36a8.75,8.75,0,1,0-8.75-8.75A8.76,8.76,0,0,0,421.1,383.36Zm0-13.46a4.71,4.71,0,1,1-4.71,4.71A4.72,4.72,0,0,1,421.1,369.9Z"/><path class="cls-4" d="M407.68,394.83a6.06,6.06,0,1,0-6.06-6.06A6.07,6.07,0,0,0,407.68,394.83Zm0-8.09a2,2,0,1,1-2,2A2,2,0,0,1,407.68,386.73Z"/><path class="cls-4" d="M445.55,344.49a55.12,55.12,0,0,0-27-19v-27a5,5,0,0,0,4-4.86,5.53,5.53,0,0,0-4.56-5.25,2,2,0,0,0-.39,0h-31a2,2,0,0,0-.39,0,5.53,5.53,0,0,0-4.56,5.25,5,5,0,0,0,4,4.86v27a55.12,55.12,0,0,0-27,19,54.19,54.19,0,0,0-11.25,33.22,54.68,54.68,0,1,0,109.36,0A54.17,54.17,0,0,0,445.55,344.49ZM402.14,421.1c-24.86,0-42.84-21.74-43-43-.16-20.41,16.11-35.76,29.35-41.36a40.18,40.18,0,0,1,5-1.74l-.22-32.85,17.58-.32v33a43.74,43.74,0,0,1,5,2c12.45,5.78,29.42,20.84,29.3,41.36C445,399,427.21,421.1,402.14,421.1Z"/><path class="cls-8" d="M58.12,348.58c0-1.64-.87-3-1.93-3H37.47c-1.06,0-1.93,1.34-1.93,3s.84,2.94,1.89,3V408.9c0,7.25,4.22,13.14,9.4,13.14s9.4-5.9,9.4-13.14V351.56C57.28,351.53,58.12,350.21,58.12,348.58ZM54.81,408.9c0,6.15-3.58,11.16-8,11.16s-8-5-8-11.16V351.57h16V408.9Zm1.38-59.32H37.47c-.28,0-.51-.46-.51-1s.23-1,.51-1H56.19c.28,0,.51.46.51,1S56.47,349.58,56.19,349.58Z"/><path class="cls-9" d="M37.43,380.27H56.21V413.9c0,.7-.34,6.14-4.95,9a10.73,10.73,0,0,1-4.46,1.48,11.28,11.28,0,0,1-5-2A11,11,0,0,1,37.54,414Z"/><path class="cls-8" d="M147.25,347.43c0-1.64-.87-3-1.93-3H126.61c-1.06,0-1.93,1.34-1.93,3s.84,2.94,1.89,3v57.34c0,7.25,4.22,13.14,9.4,13.14s9.4-5.9,9.4-13.14V350.41C146.41,350.38,147.25,349.05,147.25,347.43Zm-3.31,60.32c0,6.15-3.58,11.16-8,11.16s-8-5-8-11.16V350.41h16v57.33Zm1.38-59.32H126.61c-.28,0-.51-.46-.51-1s.23-1,.51-1h18.72c.28,0,.51.46.51,1S145.6,348.43,145.32,348.43Z"/><path class="cls-6" d="M126.56,379.12h18.78v33.63c0,.7-.34,6.14-4.95,9a10.73,10.73,0,0,1-4.46,1.48,11.28,11.28,0,0,1-5-2,11,11,0,0,1-4.29-8.38Z"/><path class="cls-4" d="M50.46,409.5a3.6,3.6,0,1,0-3.6-3.59A3.6,3.6,0,0,0,50.46,409.5Zm0-5.53a1.94,1.94,0,1,1-1.94,1.94A1.94,1.94,0,0,1,50.46,404Z"/><path class="cls-4" d="M44.95,414.21a2.49,2.49,0,1,0-2.49-2.49A2.49,2.49,0,0,0,44.95,414.21Zm0-3.33a.83.83,0,1,1-.83.83A.83.83,0,0,1,44.95,410.89Z"/><path class="cls-8" d="M101,346.43c0-1.64-.87-3-1.93-3H80.32c-1.06,0-1.93,1.34-1.93,3s.84,2.94,1.89,3v57.34c0,7.25,4.22,13.14,9.4,13.14s9.4-5.9,9.4-13.14V349.41C100.12,349.38,101,348.05,101,346.43Zm-3.31,60.32c0,6.15-3.58,11.16-8,11.16s-8-5-8-11.16V349.41h16v57.33ZM99,347.43H80.32c-.28,0-.51-.46-.51-1s.23-1,.51-1H99c.28,0,.51.46.51,1S99.31,347.43,99,347.43Z"/><path class="cls-4" d="M136.2,407.14a3.6,3.6,0,1,0-3.6,3.59A3.6,3.6,0,0,0,136.2,407.14Zm-1.66,0a1.94,1.94,0,1,1-1.94-1.94A1.94,1.94,0,0,1,134.54,407.14Z"/><path class="cls-4" d="M140.61,413a2.49,2.49,0,1,0-2.49,2.49A2.49,2.49,0,0,0,140.61,413ZM139,413a.83.83,0,1,1-.83-.83A.84.84,0,0,1,139,413Z"/><circle class="cls-5" cx="90.12" cy="398.58" r="21.46"/><rect class="cls-5" x="80.24" y="368.58" width="18.89" height="11.69"/><path class="cls-4" d="M94.35,320.1a10,10,0,1,0-10-10A10,10,0,0,0,94.35,320.1Zm0-15.37A5.38,5.38,0,1,1,89,310.12,5.39,5.39,0,0,1,94.35,304.73Z"/><path class="cls-4" d="M79,333.2a6.92,6.92,0,1,0-6.92-6.92A6.93,6.93,0,0,0,79,333.2ZM79,324a2.32,2.32,0,1,1-2.32,2.32A2.32,2.32,0,0,1,79,324Z"/><path class="cls-4" d="M142.55,330.78a6.92,6.92,0,1,0-6.92-6.92A6.93,6.93,0,0,0,142.55,330.78Zm0-9.24a2.32,2.32,0,1,1-2.32,2.32A2.32,2.32,0,0,1,142.55,321.54Z"/><path class="cls-4" d="M197.68,227.54a12.14,12.14,0,1,0-12.14-12.14A12.15,12.15,0,0,0,197.68,227.54Zm0-18.68a6.54,6.54,0,1,1-6.54,6.54A6.55,6.55,0,0,1,197.68,208.86Z"/><path class="cls-4" d="M218.85,210.39a9,9,0,1,0-9-9A9,9,0,0,0,218.85,210.39Zm0-13.9a4.87,4.87,0,1,1-4.87,4.87A4.87,4.87,0,0,1,218.85,196.49Z"/><path class="cls-4" d="M199.54,192.32a5.81,5.81,0,1,0-5.81-5.8A5.81,5.81,0,0,0,199.54,192.32Zm0-8.93a3.13,3.13,0,1,1-3.13,3.13A3.13,3.13,0,0,1,199.54,183.39Z"/><line class="cls-10" x1="221.26" y1="266" x2="234.33" y2="252.94"/><line class="cls-10" x1="233.81" y1="167.18" x2="233.81" y2="254.23"/><path class="cls-10" d="M233.81,167.65a8.45,8.45,0,0,1,2.79-4.93,8.3,8.3,0,0,1,4-1.85"/><line class="cls-10" x1="240.14" y1="160.87" x2="314.83" y2="160.87"/><path class="cls-10" d="M321.24,154.09a8.45,8.45,0,0,1-2.79,4.93,8.3,8.3,0,0,1-4,1.85"/><line class="cls-10" x1="321.24" y1="154.53" x2="321.24" y2="138.16"/><path class="cls-10" d="M321.24,138.92A8.45,8.45,0,0,1,324,134a8.3,8.3,0,0,1,4-1.85"/><line class="cls-11" x1="327.62" y1="132.14" x2="395.43" y2="132.14"/><path class="cls-10" d="M401.45,138.92a8.45,8.45,0,0,0-2.79-4.93,8.3,8.3,0,0,0-4-1.85"/><line class="cls-11" x1="401.45" y1="138.16" x2="401.45" y2="288.34"/><path class="cls-4" d="M291.76,148.95l-1.83,0a8.18,8.18,0,0,0-8,8.19l.06,14.74-4.52.08a1.62,1.62,0,0,0-1.59,1.62,1.56,1.56,0,0,0,1.6,1.56l6.46-.11.14,34.49a6.9,6.9,0,0,0,2.65,5.42v3.78a4.32,4.32,0,0,0,4.41,4.32,4.42,4.42,0,0,0,3.1-1.34h0a4.43,4.43,0,0,0,1.27-3.13l0-3.78a7.23,7.23,0,0,0,.57-.52,7.1,7.1,0,0,0,2-5L298,174.82l6.46-.11a1.62,1.62,0,0,0,1.58-1.62,1.57,1.57,0,0,0-1.6-1.56l-4.52.08-.06-14.75A7.93,7.93,0,0,0,291.76,148.95Zm.58,69.71a1.22,1.22,0,0,1-.35.86h0a1.22,1.22,0,0,1-.85.37,1.19,1.19,0,0,1-1.22-1.19v-2.34a6.57,6.57,0,0,0,2.42,0Zm2.47-38.09-1.68,0a1.62,1.62,0,0,0-1.58,1.62,1.56,1.56,0,0,0,1.6,1.56l1.68,0v2.7l-1.68,0a1.62,1.62,0,0,0-1.59,1.62,1.56,1.56,0,0,0,1.6,1.56l1.69,0v2.7l-1.68,0a1.62,1.62,0,0,0-1.59,1.62,1.57,1.57,0,0,0,1.6,1.56l1.69,0v2.14l-7.64,7.81L287.12,175l7.67-.14Zm1.85-23.66.06,14.74-11.56.21-.06-14.74a4.95,4.95,0,0,1,4.85-5l1.83,0A4.8,4.8,0,0,1,296.66,156.91Z"/><path class="cls-2" d="M287.26,205.51l7.63-7.83.14,11.7a4.05,4.05,0,0,1-1.27,2.93,4,4,0,0,1-2.4,1,2.81,2.81,0,0,1-1.27-.13C288.13,212.47,287,209.39,287.26,205.51Z"/><rect class="cls-1" x="288.21" y="154.91" width="5.37" height="11.56" transform="translate(130.21 451.59) rotate(-90)"/><path class="cls-4" d="M286.11,164.29l0,5.11a1.56,1.56,0,0,0,1.6,1.56,1.62,1.62,0,0,0,1.59-1.62l0-5.11a1.57,1.57,0,0,0-1.6-1.56A1.62,1.62,0,0,0,286.11,164.29Z"/><path class="cls-4" d="M286.16,159.17v.38a1.57,1.57,0,0,0,1.59,1.57,1.62,1.62,0,0,0,1.59-1.61v-.38a1.57,1.57,0,0,0-1.59-1.57A1.62,1.62,0,0,0,286.16,159.17Z"/><line class="cls-11" x1="510.16" y1="195.83" x2="510.16" y2="346.01"/><line class="cls-11" x1="415.23" y1="194.28" x2="503.88" y2="194.28"/><path class="cls-10" d="M510,201.06a8.45,8.45,0,0,0-2.79-4.93,8.3,8.3,0,0,0-4-1.85"/><line class="cls-10" x1="410.31" y1="200.89" x2="410.31" y2="287.93"/><path class="cls-10" d="M410.31,201.36a8.45,8.45,0,0,1,2.79-4.93,8.3,8.3,0,0,1,4-1.85"/><rect class="cls-1" x="503.88" y="186.01" width="12.52" height="73.46"/><path class="cls-4" d="M520.64,236V181.36a10.36,10.36,0,1,0-20.72,0V236a15.38,15.38,0,0,0-5.37,11.86,15.73,15.73,0,0,0,31.46,0A15.38,15.38,0,0,0,520.64,236Zm-10.36,23.34a11.48,11.48,0,0,1-7-20.6l.87-.62v-56.8a6.12,6.12,0,0,1,12.23,0v11h-6.12v4.24h6.12v5.12h-6.12v4.24h6.12v5h-6.12v4.24h6.12V237.9l.87.62a11.41,11.41,0,0,1,4.49,9.11A11.59,11.59,0,0,1,510.28,259.37Z"/><path class="cls-12" d="M512.53,240.4V221.8h-5v18.72a8,8,0,0,0-5.24,7.36,7.86,7.86,0,1,0,15.73,0A7.64,7.64,0,0,0,512.53,240.4Z"/><line class="cls-13" x1="14.9" y1="486.15" x2="154.76" y2="486.15"/><line class="cls-13" x1="443.46" y1="486.15" x2="583.32" y2="486.15"/></g></svg>