<svg xmlns="http://www.w3.org/2000/svg" viewBox="0 0 142.61 169.83"><defs><style>.cls-1{fill:#7c2ad3;stroke:#d8d6d6;stroke-miterlimit:10;stroke-width:2.73px;}.cls-2{isolation:isolate;}.cls-3{fill:#f9f9f9;}</style></defs><title>element1</title><g id="Layer_2" data-name="Layer 2"><g id="Layer_1-2" data-name="Layer 1"><g id="Layer_2-2" data-name="Layer 2-2"><g id="Layer_1-2-2" data-name="Layer 1-2-2"><rect class="cls-1" x="1.37" y="1.37" width="139.88" height="167.1"/><g class="cls-2"><path class="cls-3" d="M52.23,79.78a56.94,56.94,0,0,0,9.31.85q4.23,0,5.41-.06-.13-4.95-.13-9.51V64.86a9.33,9.33,0,0,1,.13-2.05,1.61,1.61,0,0,1,.85-.81,4.44,4.44,0,0,1,2.08-.39q2,0,2,2.34V87q0,7.17-.33,15.76-.07,1.89-3.19,1.89-1.56,0-1.56-1.89L67,85.51q-2.08.13-5.7.13a66.45,66.45,0,0,1-9.08-.78q0,8.6.78,18a1.62,1.62,0,0,1-.91,1.6,4.91,4.91,0,0,1-2.44.55,1.44,1.44,0,0,1-1.6-1.5q-.85-9.25-.85-18.24l.39-20.32a2.11,2.11,0,0,1,1-1.92,3.83,3.83,0,0,1,2.08-.62q1.82,0,1.82,1.76Z"/><path class="cls-3" d="M82,90.07l.13,8.53a11.53,11.53,0,0,1-.06,1.82l11.27-.2q1.89.2,1.89,1.63,0,2.74-2.54,2.74l-12.77.13a1.94,1.94,0,0,1-1.73-.81,3.46,3.46,0,0,1-.62-1.73q-.07-.91-.07-2V89.35A1.47,1.47,0,0,1,76.65,88a2.24,2.24,0,0,1,.72-1.63q-.2-5.08-.2-9.25,0-2.41,2.93-2.47h1.82l11.4.2h.06q2.08.26,2.08,2a1.86,1.86,0,0,1-.78,1.76q-1.69.91-8.14.91-2.41,0-4.82-.2,0,5.86.07,6.58,2.54.07,10,.07,2,.26,2,1.82a2.21,2.21,0,0,1-.65,1.5,2.31,2.31,0,0,1-1.4.81,31.82,31.82,0,0,1-3.19.1Q86.09,90.13,82,90.07Z"/></g><g class="cls-2"><path class="cls-3" d="M56.58,151.71a16.92,16.92,0,0,1-2.63.16,3.51,3.51,0,0,1-2.32-.57,3.43,3.43,0,0,1-.62-2.46,33.65,33.65,0,0,1,.28-4.16,19.5,19.5,0,0,1,.63-3.33,1.36,1.36,0,0,1,1.38-1.07.7.7,0,0,1,.8.59v.49a4.22,4.22,0,0,1-.15,1,55,55,0,0,0-.62,6.46q0,.46,0,.77a6,6,0,0,0,1.25.1,16.25,16.25,0,0,0,2-.15q.05-.54.05-1.46t0-1.53a2,2,0,0,1,.18-.88c.1-.17.4-.26.89-.26s.8.09.93.26a1.16,1.16,0,0,1,.19.71q0,.45-.08,1.88t-.08,8a1,1,0,0,1-1.13,1.16h-.1q-1,0-1-1.57v-1.42Z"/><path class="cls-3" d="M62.51,154.31a1.32,1.32,0,0,1,1,.41,1.82,1.82,0,0,1,.49,1.13,1.56,1.56,0,0,1-.41,1,1.24,1.24,0,0,1-1,.48,1.72,1.72,0,0,1-1-.3,1,1,0,0,1-.44-.91,2.27,2.27,0,0,1,.4-1.24A1.14,1.14,0,0,1,62.51,154.31Z"/><path class="cls-3" d="M66.06,149.27a14.12,14.12,0,0,1,1.24-6.08A5.3,5.3,0,0,1,69,141.07a4,4,0,0,1,2.42-.77q2,0,3.28,2.61a14,14,0,0,1,1.27,6.21,13.2,13.2,0,0,1-1.18,5.95,3.66,3.66,0,0,1-3.35,2.36Q66.05,157.43,66.06,149.27Zm5.1,5.79a1.83,1.83,0,0,0,1.56-1,6,6,0,0,0,.86-2.16,17,17,0,0,0,.23-3.12,17.69,17.69,0,0,0-.51-4.08,4.88,4.88,0,0,0-.79-1.89,1.55,1.55,0,0,0-1.27-.71,2.05,2.05,0,0,0-1.73,1.21,11.41,11.41,0,0,0-1.29,5.82,9.07,9.07,0,0,0,.89,4.13Q70,155.06,71.16,155.06Z"/><path class="cls-3" d="M77.59,149.27a14.12,14.12,0,0,1,1.24-6.08,5.3,5.3,0,0,1,1.67-2.11,4,4,0,0,1,2.42-.77q2,0,3.28,2.61a14,14,0,0,1,1.27,6.21,13.2,13.2,0,0,1-1.18,5.95,3.66,3.66,0,0,1-3.35,2.36Q77.59,157.43,77.59,149.27Zm5.1,5.79a1.83,1.83,0,0,0,1.56-1,6,6,0,0,0,.86-2.16,17,17,0,0,0,.23-3.12,17.69,17.69,0,0,0-.51-4.08,4.88,4.88,0,0,0-.79-1.89,1.55,1.55,0,0,0-1.27-.71A2.05,2.05,0,0,0,81,143.34a11.41,11.41,0,0,0-1.29,5.82,9.07,9.07,0,0,0,.89,4.13Q81.53,155.06,82.69,155.06Z"/></g><g class="cls-2"><path class="cls-3" d="M17,28.42l-3.78,0h-.51q-2.54,0-2.54-.9a2.93,2.93,0,0,1,.26-1.21,4,4,0,0,1,.49-.86,12.7,12.7,0,0,1,.92-1q.69-.67,1-1t1.86-1.69A15.09,15.09,0,0,0,17,19.31,3.91,3.91,0,0,0,17.79,17a2.3,2.3,0,0,0-1.62-2.43,3.21,3.21,0,0,0-1-.14,3.55,3.55,0,0,0-2.21.88,1.39,1.39,0,0,1-.92.38l-.28,0a.76.76,0,0,1-.64-.83q0-.93,1.41-1.55a8.12,8.12,0,0,1,3.3-.67,3.87,3.87,0,0,1,2.93,1.2,4.16,4.16,0,0,1,1.14,3,6.22,6.22,0,0,1-1.7,4.38q-.8.86-1.62,1.59a26,26,0,0,0-3.47,3.47q1.16.07,2.86.07t4.23-.19a1.15,1.15,0,0,1,.63.32.78.78,0,0,1,.24.56,1.15,1.15,0,0,1-.92,1.12A12.49,12.49,0,0,1,17,28.42Z"/></g></g></g></g></g></svg>