<svg xmlns="http://www.w3.org/2000/svg" viewBox="0 0 142.63 169.87"><defs><style>.cls-1{fill:#edcc40;stroke:#d8d6d6;stroke-miterlimit:10;stroke-width:2.73px;}.cls-2{isolation:isolate;}.cls-3{fill:#f9f9f9;}</style></defs><title>element3</title><g id="Layer_2" data-name="Layer 2"><g id="Layer_1-2" data-name="Layer 1"><g id="Layer_2-5" data-name="Layer 2-5"><g id="Layer_1-2-5" data-name="Layer 1-2-5"><rect class="cls-1" x="1.37" y="1.37" width="139.9" height="167.14"/><g class="cls-2"><path class="cls-3" d="M63.13,101.17q.11-5-.26-17T62.11,69a3.61,3.61,0,0,1,1-2.49,2.93,2.93,0,0,1,2.24-1q1.56,0,2,2a147.24,147.24,0,0,1,.91,18.78,105.53,105.53,0,0,0,9.28-9.06,76.55,76.55,0,0,0,7-9.69,3.35,3.35,0,0,1,3.1-1.69,2.66,2.66,0,0,1,1.71.59,1.67,1.67,0,0,1,.66,1.35q0,2.08-3.83,7.12t-8,9.77A55,55,0,0,1,87.38,97.5q.5.92,1.32,2.31T90,102a7.7,7.7,0,0,1,1.16,3.67,3.81,3.81,0,0,1-.8,2.43,2.29,2.29,0,0,1-1.88.9q-1.11,0-2.8-3t-4.87-8.31A65.07,65.07,0,0,0,74,88.23,66.9,66.9,0,0,1,68.45,93q.11,4.17,0,6.94t-.22,4.46q-.48,4.23-3.54,4.16-1.89,0-1.71-2.32Z"/></g><g class="cls-2"><path class="cls-3" d="M25.65,27.6q0,1.06-1.15,1.06a.55.55,0,0,1-.42-.21.94.94,0,0,1-.18-.64l-.07-5.51q0-2.73.07-5.14a12.79,12.79,0,0,0-1.43,1.5q-.7.85-.94,1.13a3.42,3.42,0,0,1-.65.55,1.36,1.36,0,0,1-.75.27.69.69,0,0,1-.55-.24.86.86,0,0,1-.21-.59,1.71,1.71,0,0,1,.51-.94q.51-.6,3.76-4a1.79,1.79,0,0,1,1.26-.46.87.87,0,0,1,.61.22.66.66,0,0,1,.24.5l-.15,5.84Z"/><path class="cls-3" d="M34,17.32l0,2.17v4.1l0,4.12a.77.77,0,0,1-.34.64,1.08,1.08,0,0,1-.63.25.53.53,0,0,1-.47-.27,1.26,1.26,0,0,1-.2-.62q-.15-3.19-.15-6.6a2.77,2.77,0,0,1-2.28.74,2.23,2.23,0,0,1-1.93-1.22A4.86,4.86,0,0,1,27.29,18a3.54,3.54,0,0,1,1.16-2.85,4.38,4.38,0,0,1,2.94-1,2.49,2.49,0,0,1,2.45,1.37A5.4,5.4,0,0,1,34,17.32Zm-1.71.52,0-1.06a1.72,1.72,0,0,0-.09-.68.68.68,0,0,0-.22-.25.49.49,0,0,0-.36-.15,2.58,2.58,0,0,0-.54.08,5.29,5.29,0,0,0-.87.3,2.31,2.31,0,0,0-.93.76,2.23,2.23,0,0,0-.4,1.38,2.15,2.15,0,0,0,.43,1.39,1.2,1.2,0,0,0,.91.54,1,1,0,0,0,.28,0,5.53,5.53,0,0,0,1.76-.69Z"/></g><g class="cls-2"><path class="cls-3" d="M58.47,145.11a4,4,0,0,0-2.83,1.31,1.15,1.15,0,0,1-.64.26,2,2,0,0,1-.49-.05.78.78,0,0,1-.59-.82A2.24,2.24,0,0,1,55.25,144a6.07,6.07,0,0,1,3.17-.8,4.77,4.77,0,0,1,3.05,1,3.05,3.05,0,0,1,1.22,2.51,8.16,8.16,0,0,1-.35,2.58,3.15,3.15,0,0,1-1.51,1.7,3.73,3.73,0,0,1,2.73,3.71,5.89,5.89,0,0,1-1.36,3.9,4.19,4.19,0,0,1-3.34,1.64,6.36,6.36,0,0,1-3.46-.94,2.61,2.61,0,0,1-1.49-2.12.9.9,0,0,1,.26-.54.92.92,0,0,1,.75-.31,1.75,1.75,0,0,1,1.06.45,13.86,13.86,0,0,0,1.29.9,3,3,0,0,0,1.62.45q2.58,0,2.58-3.22a2.5,2.5,0,0,0-.89-2,3.85,3.85,0,0,0-2.51-.79l-.5-.05a1.07,1.07,0,0,1-.44-.23.76.76,0,0,1-.27-.64q0-.93,1-1a2.79,2.79,0,0,0,1.84-.93,3,3,0,0,0,.81-2.14,1.83,1.83,0,0,0-.62-1.33A2,2,0,0,0,58.47,145.11Z"/><path class="cls-3" d="M73.13,146.74l0,2.58v4.87l.05,4.89a.91.91,0,0,1-.4.76,1.28,1.28,0,0,1-.75.3.63.63,0,0,1-.55-.32,1.51,1.51,0,0,1-.23-.73q-.18-3.79-.18-7.83a3.28,3.28,0,0,1-2.7.88A2.65,2.65,0,0,1,66,150.68a5.77,5.77,0,0,1-.9-3.12,4.2,4.2,0,0,1,1.38-3.39A5.2,5.2,0,0,1,70,143a3,3,0,0,1,2.91,1.62A6.42,6.42,0,0,1,73.13,146.74Zm-2,.62,0-1.26a2,2,0,0,0-.1-.81.79.79,0,0,0-.26-.3.58.58,0,0,0-.43-.18,3.1,3.1,0,0,0-.64.09,6.27,6.27,0,0,0-1,.36,2.74,2.74,0,0,0-1.11.9,2.64,2.64,0,0,0-.48,1.63,2.55,2.55,0,0,0,.52,1.65,1.42,1.42,0,0,0,1.08.64A1.23,1.23,0,0,0,69,150a6.54,6.54,0,0,0,2.09-.82Z"/><path class="cls-3" d="M76.62,157.06a1.32,1.32,0,0,1,1,.41,1.82,1.82,0,0,1,.49,1.13,1.56,1.56,0,0,1-.41,1,1.25,1.25,0,0,1-1,.48,1.72,1.72,0,0,1-1-.3,1,1,0,0,1-.44-.91,2.26,2.26,0,0,1,.4-1.24A1.14,1.14,0,0,1,76.62,157.06Z"/><path class="cls-3" d="M87.5,158.94q0,1.26-1.36,1.26a.66.66,0,0,1-.5-.25,1.11,1.11,0,0,1-.22-.76l-.08-6.54q0-3.24.08-6.1a15.31,15.31,0,0,0-1.7,1.78q-.82,1-1.12,1.34a4.06,4.06,0,0,1-.77.66,1.61,1.61,0,0,1-.89.32.82.82,0,0,1-.66-.28,1,1,0,0,1-.25-.7,2,2,0,0,1,.61-1.12q.6-.71,4.47-4.8a2.13,2.13,0,0,1,1.49-.54,1,1,0,0,1,.72.26.78.78,0,0,1,.28.59L87.42,151Z"/><path class="cls-3" d="M89.51,152a14.12,14.12,0,0,1,1.24-6.08,5.3,5.3,0,0,1,1.67-2.11,4,4,0,0,1,2.42-.77q2,0,3.28,2.61a14,14,0,0,1,1.27,6.21,13.21,13.21,0,0,1-1.18,5.95,3.66,3.66,0,0,1-3.35,2.36Q89.51,160.18,89.51,152Zm5.1,5.79a1.84,1.84,0,0,0,1.56-1,6,6,0,0,0,.86-2.16,17,17,0,0,0,.23-3.12,17.67,17.67,0,0,0-.52-4.08,4.88,4.88,0,0,0-.79-1.89,1.55,1.55,0,0,0-1.27-.71A2.05,2.05,0,0,0,93,146.09a11.42,11.42,0,0,0-1.29,5.82,9.08,9.08,0,0,0,.89,4.13Q93.45,157.81,94.61,157.81Z"/></g></g></g></g></g></svg>