<svg xmlns="http://www.w3.org/2000/svg" viewBox="0 0 83.25 81.77"><defs><style>.cls-1{fill:#efeded;}.cls-2{fill:#0d52bf;}.cls-3{fill:#ef7c14;}</style></defs><title>fireworks</title><g id="Layer_2" data-name="Layer 2"><g id="Layer_1-2" data-name="Layer 1"><rect class="cls-1" x="21.27" y="13.19" width="23.81" height="39" transform="translate(-13.4 33.03) rotate(-45)"/><path class="cls-2" d="M4.53,30.86a3.53,3.53,0,0,0,1.2.21,3.47,3.47,0,0,0,2.46-1l2.1-2.1,8.65,8.64h0L36.73,54.38a4.51,4.51,0,0,0,6.36,0l4.25-4.25C52.56,56.84,54.9,62.79,51,71a1.5,1.5,0,1,0,2.71,1.29c4.84-10.21.93-17.72-4.25-24.29l4.89-4.89a4.45,4.45,0,0,0,.9-1.27l25.4,25.42a1.5,1.5,0,1,0,2.19-2l-.07-.07L46.34,28.69h0l-8.08-8.08a1.5,1.5,0,0,0-.79-.79L28,10.32l2.1-2.1a3.5,3.5,0,0,0-2.15-6L3.83,0A3.5,3.5,0,0,0,0,3.83L2.26,27.89A3.47,3.47,0,0,0,4.53,30.86Zm42.25,2.51,5.48,5.48a1.5,1.5,0,0,1,0,2.12l-5.48,5.48ZM38.36,51.43V24.95l5.43,5.43V49a1.49,1.49,0,0,0,0,.37l-2.86,2.86a1.5,1.5,0,0,1-2.12,0l-.53-.53A1.5,1.5,0,0,0,38.36,51.43ZM29.93,16.52l5.43,5.43V48.76l-5.43-5.43ZM18.5,31.91l-6.08-6.08,6.08-6.09Zm8.43,8.43L21.5,34.91V16.74l4.32-4.32,1.1,1.1Z"/><path class="cls-3" d="M52.38,75.44a1.5,1.5,0,0,0-1.5,1.5v3.33a1.5,1.5,0,0,0,3,0V76.94A1.5,1.5,0,0,0,52.38,75.44Z"/><path class="cls-3" d="M56.14,73.7a1.5,1.5,0,0,0,0,2.12l2.36,2.36a1.5,1.5,0,0,0,2.12-2.12L58.26,73.7A1.5,1.5,0,0,0,56.14,73.7Z"/><path class="cls-3" d="M45.91,78.61A1.5,1.5,0,0,0,47,78.17l2.36-2.36a1.5,1.5,0,0,0-2.12-2.12L44.85,76a1.5,1.5,0,0,0,1.06,2.56Z"/><path class="cls-3" d="M41.09,70.4a1.5,1.5,0,0,0,1.5,1.5h3.33a1.5,1.5,0,0,0,0-3H42.59A1.5,1.5,0,0,0,41.09,70.4Z"/><path class="cls-3" d="M48.1,67.79a1.5,1.5,0,0,0,1.06-2.56L46.8,62.87a1.5,1.5,0,0,0-2.19,2l.07.07L47,67.35A1.5,1.5,0,0,0,48.1,67.79Z"/></g></g></svg>