<svg xmlns="http://www.w3.org/2000/svg" viewBox="0 0 94.32 66.6"><defs><style>.cls-1{fill:#7f7f7f;}</style></defs><title>fork_1</title><g id="Layer_2" data-name="Layer 2"><g id="Layer_1-2" data-name="Layer 1"><path class="cls-1" d="M35.5,35.1a4.92,4.92,0,0,1,1.7-.6A5.62,5.62,0,0,0,40.8,33L53.1,20.7c.4-.3,8.9-8.5,8.9-14a4.14,4.14,0,0,0-1.2-3.1,4,4,0,0,0-5.4,0L1.5,57.5a5.31,5.31,0,0,0,0,7.4,5.14,5.14,0,0,0,3.7,1.5h0A5.22,5.22,0,0,0,9,64.8L31.9,39Z"/><path class="cls-1" d="M93.7,8a2.38,2.38,0,0,0-1.1-.6h-.2a2.15,2.15,0,0,0-1.5.4c-.1.1-.2.2-.3.2L77.4,20.8c-.1.1-.1.1-.1.2l-.1.1H77a.19.19,0,0,1,0-.3L90,7.3a2.12,2.12,0,0,0,0-3.1,2.3,2.3,0,0,0-3.1,0L73.6,17.1l-.1.1a.1.1,0,0,0-.1.1h-.2c0-.1-.1-.1,0-.2h0l13-13.4.3-.3a2,2,0,0,0,.3-1.5A3.1,3.1,0,0,0,86.2.6a2.3,2.3,0,0,0-3.1,0l-14.8,14a5,5,0,0,0-.8.7,7.94,7.94,0,0,0-2.2,4l-1.2,5.1a6.51,6.51,0,0,1-1.5,2.7L29.4,57.7a5.31,5.31,0,0,0,0,7.4,5.14,5.14,0,0,0,3.7,1.5A4.85,4.85,0,0,0,36.8,65L67.3,31.8A6.27,6.27,0,0,1,70,30.2L75.1,29a7.94,7.94,0,0,0,4-2.2c.2-.3.5-.5.6-.7l14-14.8a2.2,2.2,0,0,0,.6-1.5A2.21,2.21,0,0,0,93.7,8Z"/></g></g></svg>