<svg xmlns="http://www.w3.org/2000/svg" viewBox="0 0 66.52 61.46"><defs><style>.cls-1{fill:#9e5c7e;}.cls-2{fill:#751744;stroke:#701b4c;stroke-miterlimit:10;}</style></defs><title>lungs</title><g id="Layer_2" data-name="Layer 2"><g id="Layer_1-2" data-name="Layer 1"><path class="cls-1" d="M41.67,10.5c4.31-1.89,14.26,8.38,19,19C66,41.43,64.3,52.8,63.17,58a21.55,21.55,0,0,1-24-6c0-2.08,0-5.21,0-9C39.26,13.18,40.23,11.13,41.67,10.5Z"/><path class="cls-1" d="M24.84,10.5c-4.31-1.89-14.26,8.38-19,19C.52,41.43,2.2,52.8,3.34,58a21.77,21.77,0,0,0,12,1,21.94,21.94,0,0,0,12-7c0-2.08,0-5.21,0-9C27.25,13.18,26.28,11.13,24.84,10.5Z"/><path class="cls-2" d="M38,20.57c.17,1.71.35,3.47.4,5.14l-.1.7c-.17-.12-.33-.25-.48-.38-.81-.71-1.92-1.68-1.91-6.47,0-5.59-.1-11.19-.18-15.69l0-2.27a1,1,0,0,0-1-1,1,1,0,0,0-1,1l0,2.27c.08,4.49.19,10.08.18,15.65,0,5.26,1.28,6.83,2.6,8a10.57,10.57,0,0,0,1.49,1L38,29a15.73,15.73,0,0,0-4.62-1.15,14.05,14.05,0,0,0-4.86,1l-.06-.42a10.22,10.22,0,0,0,1.16-.85c1.25-1.09,2.47-2.62,2.59-8,0-1.39.07-3,.12-4.61.12-4.45.25-9.48.25-13.39a1,1,0,0,0-1-1h0a1,1,0,0,0-1,1c0,3.88-.13,9-.24,13.43,0,1.64-.08,3.18-.12,4.57C30.09,24.48,29,25.42,28.3,26l-.16.12-.06-.44c.05-1.66.23-3.43.4-5.14.57-5.71,1.11-11.1-3-12.12C20.24,7.12,7,16.21,2,34.39-.07,42,.24,51.93,1.48,58.44a2.59,2.59,0,0,0,1.38,1.81A8.35,8.35,0,0,0,6.74,61c6,0,15.57-2.88,18.33-3.95l.09,0c5.34-2.73,5.09-14.13,3.61-26.14a12.35,12.35,0,0,1,4.6-1A15.69,15.69,0,0,1,37.73,31C36.27,43,36,54.26,41.36,57l.09,0C44.21,58.09,53.76,61,59.78,61a8.36,8.36,0,0,0,3.89-.71A2.59,2.59,0,0,0,65,58.44c1.23-6.51,1.54-16.48-.53-24C59.53,16.21,46.3,7.12,41,8.44,36.93,9.47,37.47,14.86,38,20.57ZM24.29,55.17C19.49,57,6.87,60.19,3.83,58.5c-.34-.19-.37-.36-.39-.43C2.29,52,2,42.14,3.94,34.91c4-14.73,13-22.2,18.13-24.1a6.92,6.92,0,0,1,2.31-.5,2.64,2.64,0,0,1,.63.07c2.42.6,2,5.16,1.49,10-.18,1.77-.36,3.61-.41,5.36v.17c.07.46.13.93.2,1.4a20.16,20.16,0,0,1-4.08,1.43L21.08,29,16.5,27.36a1,1,0,0,0-.66,1.89l2.91,1-1.82,1.16A1,1,0,1,0,18,33.11l3.41-2.17h.06l.86-.18a20.69,20.69,0,0,1,2.46-.34A20.8,20.8,0,0,1,21,34.14c-2,1.64-7.35,2.9-9.25,3.25a1,1,0,0,0,.18,2l.18,0,1.08-.22A15.17,15.17,0,0,0,12.56,41a1,1,0,0,0,.72,1.22,1,1,0,0,0,.25,0,1,1,0,0,0,1-.75,8.73,8.73,0,0,1,1.34-3,25.59,25.59,0,0,0,5.1-1.93,36.87,36.87,0,0,0-1,4.77c-1,.82-4.3,3.81-4.44,3.94a1,1,0,0,0,1.35,1.48s1.46-1.32,2.72-2.45c-.25,2.42-.33,4.45-.35,4.94s.41,1.26,1,1.26h0c.53,0,1-.63,1-1.17s0-1,.08-1.53c.6.51,1.17.93,1.37,1.08a1,1,0,0,0,.61.2,1,1,0,0,0,.61-1.8c-.76-.59-1.86-1.5-2.39-2,.4-4.21,1.24-9.67,2.8-11.26a1,1,0,0,0,.11-.17c.29-.27.55-.53.78-.77l.09-.06a10.32,10.32,0,0,1,1.6-1.2C28.07,41.95,28.48,53,24.29,55.17ZM62.58,34.91c2,7.23,1.65,17.07.5,23.15,0,.07,0,.25-.39.43C59.65,60.19,47,57,42.23,55.17,38,53,38.45,41.94,39.65,31.79l.22.1.11,0a15.67,15.67,0,0,0,1.69,1.84,1,1,0,0,0,.19.3c1.56,1.59,2.4,7,2.8,11.2-.53.53-1.64,1.44-2.39,2a1,1,0,1,0,1.23,1.58c.19-.15.76-.6,1.37-1.11,0,.56.06,1.14.08,1.55s.46,1.18,1,1.18h0a1.25,1.25,0,0,0,1-1.25c0-.42-.16-1.92-.16-3.79h0c0-.37-.14-.76-.18-1.16,1.26,1.12,2.66,2.43,2.69,2.45A1,1,0,0,0,50,47a1,1,0,0,0,.73-.33,1,1,0,0,0-.07-1.41c-.14-.13-3.43-3.11-4.44-3.94a37.33,37.33,0,0,0-1-4.76,25.65,25.65,0,0,0,5.09,1.92,8.8,8.8,0,0,1,1.34,3,1,1,0,0,0,1,.75,1.07,1.07,0,0,0,.25,0A1,1,0,0,0,53.58,41,15.17,15.17,0,0,0,53,39.14l1.07.22.18,0a1,1,0,0,0,.18-2c-.73-.13-2-.4-3.32-.77h0a18.33,18.33,0,0,1-5.92-2.47,20.76,20.76,0,0,1-3.79-3.73,20,20,0,0,1,2.27.31c.51.12.9.19,1.13.24l3.39,2.16a1,1,0,0,0,1.07-1.69l-1.82-1.16,2.91-1a1,1,0,1,0-.66-1.89L45.06,29l-1.16-.24a20.54,20.54,0,0,1-3.69-1.25c.07-.53.15-1.06.22-1.58v-.17c-.05-1.76-.24-3.59-.41-5.36-.48-4.82-.94-9.38,1.49-10C45,9.53,57.57,16.61,62.58,34.91Z"/></g></g></svg>