<svg xmlns="http://www.w3.org/2000/svg" viewBox="0 0 84.43 96"><defs><style>.cls-1{fill:#a81111;}.cls-2{fill:#ccc;}</style></defs><title>magnet</title><g id="Layer_2" data-name="Layer 2"><g id="Layer_1-2" data-name="Layer 1"><path class="cls-1" d="M4.94,81H19L14.17,40.17l0-.24c-.62-4,.94-10.62,5.81-16.3C23.72,19.24,30.64,14,42.21,14s18.5,5.24,22.27,9.63c4.87,5.68,6.43,12.28,5.81,16.3l0,.24L65.45,81h14l4.67-39.06c1.32-8.88-2.14-19.37-9-27.42C67.08,5.16,55.4,0,42.21,0S17.35,5.16,9.32,14.52c-6.9,8-10.36,18.54-9,27.42Z"/><polygon class="cls-2" points="5.66 83 7.21 96 21.21 96 19.68 83 5.66 83"/><polygon class="cls-2" points="64.75 83 63.21 96 77.21 96 78.77 83 64.75 83"/></g></g></svg>