<svg id="Layer_1" data-name="Layer 1" xmlns="http://www.w3.org/2000/svg" viewBox="0 0 1200 800"><defs><style>.cls-1{fill:#309293;}.cls-13,.cls-2{fill:none;}.cls-2{stroke:#4aa3a5;stroke-width:8.21px;}.cls-12,.cls-13,.cls-2{stroke-miterlimit:10;}.cls-3{fill:#a11dbc;}.cls-12,.cls-4{fill:#fff;}.cls-5{fill:#ecbd13;}.cls-6{fill:#4aceed;}.cls-7{fill:#27c14b;}.cls-8{fill:#ff7415;}.cls-9{fill:#e0e0e0;}.cls-10{fill:#d61561;}.cls-11{fill:#2db9ac;}.cls-12,.cls-13{stroke:#fff;stroke-width:4.81px;}.cls-14{fill:#ef1131;}</style></defs><title>mainbg</title><rect class="cls-1" width="1200" height="800"/><circle class="cls-2" cx="147.79" cy="59.81" r="24.23"/><circle class="cls-2" cx="295.67" cy="147" r="24.23"/><circle class="cls-2" cx="295.67" cy="317.51" r="24.23"/><circle class="cls-2" cx="439.22" cy="65.96" r="24.23"/><circle class="cls-2" cx="585.08" cy="147" r="24.23"/><circle class="cls-2" cx="585.08" cy="317.51" r="24.23"/><circle class="cls-2" cx="439.22" cy="399.52" r="24.23"/><circle class="cls-2" cx="727.86" cy="65.96" r="24.23"/><circle class="cls-2" cx="875.79" cy="147" r="24.23"/><circle class="cls-2" cx="875.79" cy="317.51" r="24.23"/><circle class="cls-2" cx="727.86" cy="399.52" r="24.23"/><circle class="cls-2" cx="441.77" cy="568.97" r="24.23"/><circle class="cls-2" cx="585.08" cy="651.77" r="24.23"/><circle class="cls-2" cx="731.89" cy="568.97" r="24.23"/><circle class="cls-2" cx="875.79" cy="651.77" r="24.23"/><circle class="cls-2" cx="1022.04" cy="399.52" r="24.23"/><circle class="cls-2" cx="1022.04" cy="568.97" r="24.23"/><circle class="cls-2" cx="1137.8" cy="637.15" r="24.23"/><line class="cls-2" x1="166" y1="76" x2="278.29" y2="137.87"/><line class="cls-2" x1="319.9" y1="134.86" x2="414.99" y2="76.69"/><line class="cls-2" x1="295.67" y1="171.23" x2="296" y2="293"/><line class="cls-2" x1="319.71" y1="333.29" x2="417.46" y2="388.85"/><line class="cls-2" x1="463.46" y1="76.04" x2="562.42" y2="138.39"/><line class="cls-2" x1="585.08" y1="171.23" x2="585.08" y2="299.68"/><line class="cls-2" x1="605.63" y1="330.32" x2="708.38" y2="392.76"/><line class="cls-2" x1="605.33" y1="133.69" x2="703.62" y2="76.52"/><line class="cls-2" x1="752.09" y1="78.3" x2="854.17" y2="136.06"/><line class="cls-2" x1="875.79" y1="171.23" x2="875.79" y2="293.28"/><line class="cls-2" x1="854" y1="328.13" x2="752.09" y2="391.16"/><line class="cls-2" x1="896.53" y1="330.01" x2="1001.69" y2="386.35"/><line class="cls-2" x1="1022.04" y1="423.75" x2="1022.04" y2="544.74"/><line class="cls-2" x1="1042.06" y1="578.52" x2="1113.57" y2="624.84"/><line class="cls-2" x1="897.94" y1="641.92" x2="1002.03" y2="582.65"/><line class="cls-2" x1="853.98" y1="641.2" x2="752.09" y2="582.34"/><line class="cls-2" x1="707.65" y1="583.15" x2="609.31" y2="641.64"/><line class="cls-2" x1="463.46" y1="585.37" x2="565.57" y2="641.64"/><line class="cls-2" x1="441.65" y1="546.79" x2="439.22" y2="423.75"/><path class="cls-3" d="M586.7,300.4a.42.42,0,0,1,.27.13c3,3.29,5.88,7.21,5.88,10.9a6.2,6.2,0,1,1-12.37,0c0-3.69,2.86-7.6,5.88-10.9a.42.42,0,0,1,.33-.13Z"/><path class="cls-3" d="M578.18,321.72a.29.29,0,0,1,.19.09c2.07,2.26,4,4.94,4,7.47a4.25,4.25,0,1,1-8.48,0c0-2.53,2-5.22,4-7.47a.29.29,0,0,1,.23-.09Z"/><rect class="cls-4" x="269.08" y="459.05" width="4.74" height="79.62" rx="2.37" ry="2.37"/><rect class="cls-4" x="304.99" y="459.05" width="4.74" height="79.62" rx="2.37" ry="2.37"/><rect class="cls-4" x="370.83" y="459.05" width="4.74" height="79.62" rx="2.37" ry="2.37"/><rect class="cls-4" x="416.37" y="459.05" width="4.74" height="79.62" rx="2.37" ry="2.37"/><rect class="cls-4" x="269.08" y="457.85" width="152.04" height="7.11"/><rect class="cls-4" x="544.06" y="391.58" width="69.95" height="12.62" rx="6.31" ry="6.31"/><path class="cls-1" d="M569.31,404.56v23.49l-34,94.8,90.86.3-32.92-95.37-.17-23.21Z"/><rect class="cls-4" x="593.58" y="396.79" width="13.32" height="38.06" rx="6.37" ry="6.37"/><rect class="cls-4" x="537.42" y="418.43" width="13.84" height="122.09" rx="6.92" ry="6.92" transform="translate(181.82 -148.84) rotate(18.64)"/><rect class="cls-4" x="519.96" y="523.51" width="120.79" height="15.16" rx="7.58" ry="7.58"/><rect class="cls-4" x="611.17" y="419.49" width="13.51" height="121.97" rx="6.48" ry="6.48" transform="translate(1357.02 738.22) rotate(161.36)"/><path class="cls-5" d="M558.18,468.76H604.3l16,51.29-78.54-.5Z"/><rect class="cls-4" x="554.46" y="397.14" width="14.45" height="36.32" rx="6.63" ry="6.63"/><rect class="cls-4" x="456.07" y="298.41" width="46.04" height="8.64" rx="4.24" ry="4.24"/><path class="cls-1" d="M471.89,307.29v16.07l-21.56,64.85,57.67.2-20.9-65.25L487,307.29Z"/><rect class="cls-4" x="488.66" y="301.98" width="9.28" height="26.04" rx="4.15" ry="4.15"/><path class="cls-4" d="M443.41,398.12h0a4.53,4.53,0,0,0,5.77-3L472,325a4.79,4.79,0,0,0-2.86-6h0a4.53,4.53,0,0,0-5.77,3l-22.77,70.17A4.79,4.79,0,0,0,443.41,398.12Z"/><rect class="cls-4" x="440.21" y="388.67" width="79.5" height="10.37" rx="5.09" ry="5.09"/><path class="cls-4" d="M517.06,398.22h0a4.46,4.46,0,0,1-5.73-2.85l-22.07-68.09a4.72,4.72,0,0,1,2.9-5.87h0a4.46,4.46,0,0,1,5.73,2.85L520,392.35A4.72,4.72,0,0,1,517.06,398.22Z"/><path class="cls-6" d="M466.47,352.09h27l11.3,34.21H455.16Z"/><rect class="cls-4" x="462.91" y="302.21" width="9.51" height="24.84" rx="4.45" ry="4.45"/><rect class="cls-4" x="820.32" y="430.8" width="46.04" height="8.64" rx="4.24" ry="4.24"/><path class="cls-1" d="M836.15,439.68v16.07l-21.56,64.85,57.67.2-20.9-65.25-.11-15.88Z"/><rect class="cls-4" x="851.71" y="433.16" width="9.08" height="26.04" rx="4.1" ry="4.1"/><path class="cls-4" d="M807.66,530.5h0a4.53,4.53,0,0,0,5.77-3l22.77-70.17a4.79,4.79,0,0,0-2.86-6h0a4.53,4.53,0,0,0-5.77,3L804.8,524.5A4.79,4.79,0,0,0,807.66,530.5Z"/><rect class="cls-4" x="804.46" y="521.06" width="79.5" height="10.37" rx="5.09" ry="5.09"/><path class="cls-4" d="M880.88,530.46h0a4.53,4.53,0,0,1-5.77-3L852.36,457.4a4.79,4.79,0,0,1,2.86-6h0a4.53,4.53,0,0,1,5.77,3l22.75,70.09A4.79,4.79,0,0,1,880.88,530.46Z"/><path class="cls-7" d="M830.55,484.48h27l11.3,34.21H819.25Z"/><rect class="cls-4" x="827.17" y="434.6" width="9.51" height="24.84" rx="4.45" ry="4.45"/><path class="cls-8" d="M686.69,440.37c-13.46,11.47-19.59,29-15.75,45.23,5,21,25.3,34.46,45.67,34.12,18.08-.3,36.33-11.5,42.82-30.47A45.86,45.86,0,0,0,746.94,441"/><path class="cls-4" d="M738.81,480.47A10.51,10.51,0,1,0,728.3,470,10.52,10.52,0,0,0,738.81,480.47Zm0-16.18a5.66,5.66,0,1,1-5.66,5.66A5.67,5.67,0,0,1,738.81,464.3Z"/><path class="cls-4" d="M722.68,494.25a7.29,7.29,0,1,0-7.29-7.29A7.3,7.3,0,0,0,722.68,494.25Zm0-9.72a2.44,2.44,0,1,1-2.44,2.44A2.44,2.44,0,0,1,722.68,484.53Z"/><path class="cls-4" d="M768.2,433.76A66.24,66.24,0,0,0,735.73,411v-32.5a6,6,0,0,0,4.82-5.84,6.64,6.64,0,0,0-5.48-6.31,2.36,2.36,0,0,0-.47,0H697.39a2.35,2.35,0,0,0-.47,0,6.65,6.65,0,0,0-5.48,6.31,6,6,0,0,0,4.82,5.84V411a66.24,66.24,0,0,0-32.47,22.78,65.13,65.13,0,0,0-13.51,39.93,65.71,65.71,0,1,0,131.43,0A65.09,65.09,0,0,0,768.2,433.76ZM716,525.83c-29.88,0-51.48-26.12-51.68-51.68-.19-24.52,19.36-43,35.27-49.71a48.29,48.29,0,0,1,6-2.09l-.26-39.47,21.13-.39v39.6a52.56,52.56,0,0,1,6,2.35c15,6.94,35.36,25,35.21,49.71C767.55,499.26,746.15,525.83,716,525.83Z"/><path class="cls-9" d="M302.6,438.68c0-2-1-3.59-2.32-3.59H277.79c-1.28,0-2.32,1.61-2.32,3.59s1,3.54,2.27,3.58v68.9c0,8.71,5.07,15.8,11.3,15.8s11.3-7.08,11.3-15.8v-68.9C301.59,442.22,302.6,440.63,302.6,438.68Zm-4,72.48c0,7.39-4.3,13.41-9.59,13.41s-9.59-6-9.59-13.41v-68.9h19.18v68.9Zm1.66-71.29H277.79c-.33,0-.61-.55-.61-1.2s.28-1.2.61-1.2h22.49c.33,0,.62.55.62,1.2S300.61,439.88,300.28,439.88Z"/><path class="cls-10" d="M277.74,476.76H300.3v40.41c0,.84-.4,7.38-5.95,10.78a12.9,12.9,0,0,1-5.36,1.78,13.56,13.56,0,0,1-6-2.4,13.25,13.25,0,0,1-5.16-10.07Z"/><path class="cls-9" d="M409.72,437.3c0-2-1-3.59-2.32-3.59H384.9c-1.28,0-2.32,1.61-2.32,3.59s1,3.54,2.27,3.58v68.9c0,8.71,5.07,15.8,11.3,15.8s11.3-7.08,11.3-15.8v-68.9C408.7,440.84,409.72,439.25,409.72,437.3Zm-4,72.48c0,7.39-4.3,13.41-9.59,13.41s-9.59-6-9.59-13.41v-68.9h19.18v68.9Zm1.66-71.29H384.9c-.33,0-.61-.55-.61-1.2s.28-1.2.61-1.2H407.4c.33,0,.62.55.62,1.2S407.73,438.5,407.4,438.5Z"/><path class="cls-11" d="M384.85,475.38h22.57v40.41c0,.84-.4,7.38-5.95,10.78a12.9,12.9,0,0,1-5.36,1.78,13.56,13.56,0,0,1-6-2.4A13.25,13.25,0,0,1,385,515.88Z"/><path class="cls-4" d="M293.4,511.89a4.32,4.32,0,1,0-4.32-4.32A4.33,4.33,0,0,0,293.4,511.89Zm0-6.65a2.33,2.33,0,1,1-2.33,2.33A2.33,2.33,0,0,1,293.4,505.24Z"/><path class="cls-4" d="M286.77,517.55a3,3,0,1,0-3-3A3,3,0,0,0,286.77,517.55Zm0-4a1,1,0,1,1-1,1A1,1,0,0,1,286.77,513.55Z"/><path class="cls-9" d="M354.09,436.1c0-2-1-3.59-2.32-3.59H329.28c-1.28,0-2.32,1.61-2.32,3.59s1,3.54,2.27,3.58v68.9c0,8.71,5.07,15.8,11.3,15.8s11.3-7.08,11.3-15.8v-68.9C353.08,439.64,354.09,438,354.09,436.1Zm-4,72.48c0,7.39-4.3,13.41-9.59,13.41s-9.59-6-9.59-13.41v-68.9h19.18v68.9Zm1.66-71.29H329.28c-.33,0-.61-.55-.61-1.2s.28-1.2.61-1.2h22.49c.33,0,.62.55.62,1.2S352.11,437.3,351.77,437.3Z"/><path class="cls-4" d="M396.43,509.06a4.32,4.32,0,1,0-4.32,4.32A4.33,4.33,0,0,0,396.43,509.06Zm-2,0a2.33,2.33,0,1,1-2.33-2.33A2.33,2.33,0,0,1,394.44,509.06Z"/><path class="cls-4" d="M401.74,516a3,3,0,1,0-3,3A3,3,0,0,0,401.74,516Zm-2,0a1,1,0,1,1-1-1A1,1,0,0,1,399.74,516Z"/><circle class="cls-5" cx="341.06" cy="498.77" r="25.79"/><rect class="cls-5" x="329.18" y="462.72" width="22.7" height="14.05"/><path class="cls-4" d="M346.15,404.46a12,12,0,1,0-12-12A12,12,0,0,0,346.15,404.46Zm0-18.47a6.47,6.47,0,1,1-6.46,6.47A6.47,6.47,0,0,1,346.15,386Z"/><path class="cls-4" d="M327.73,420.19a8.32,8.32,0,1,0-8.32-8.32A8.33,8.33,0,0,0,327.73,420.19Zm0-11.1a2.78,2.78,0,1,1-2.78,2.78A2.79,2.79,0,0,1,327.73,409.09Z"/><path class="cls-4" d="M404.07,417.29a8.32,8.32,0,1,0-8.32-8.32A8.33,8.33,0,0,0,404.07,417.29Zm0-11.1a2.78,2.78,0,1,1-2.78,2.78A2.79,2.79,0,0,1,404.07,406.19Z"/><path class="cls-4" d="M470.31,293.22a14.59,14.59,0,1,0-14.59-14.59A14.61,14.61,0,0,0,470.31,293.22Zm0-22.45a7.86,7.86,0,1,1-7.86,7.86A7.87,7.87,0,0,1,470.31,270.78Z"/><path class="cls-4" d="M495.76,272.61a10.86,10.86,0,1,0-10.86-10.86A10.87,10.87,0,0,0,495.76,272.61Zm0-16.7a5.85,5.85,0,1,1-5.85,5.85A5.85,5.85,0,0,1,495.76,255.91Z"/><path class="cls-4" d="M472.55,250.9a7,7,0,1,0-7-7A7,7,0,0,0,472.55,250.9Zm0-10.73a3.76,3.76,0,1,1-3.76,3.76A3.76,3.76,0,0,1,472.55,240.17Z"/><line class="cls-12" x1="498.65" y1="339.44" x2="514.36" y2="323.74"/><line class="cls-12" x1="513.73" y1="220.69" x2="513.73" y2="325.29"/><path class="cls-12" d="M513.73,221.25a10.16,10.16,0,0,1,3.35-5.92,10,10,0,0,1,4.8-2.22"/><line class="cls-12" x1="521.34" y1="213.1" x2="611.1" y2="213.1"/><path class="cls-12" d="M618.81,205a10.16,10.16,0,0,1-3.35,5.92,10,10,0,0,1-4.8,2.22"/><line class="cls-12" x1="618.81" y1="205.48" x2="618.81" y2="185.81"/><path class="cls-12" d="M618.81,186.73a10.16,10.16,0,0,1,3.35-5.92,10,10,0,0,1,4.8-2.22"/><line class="cls-13" x1="626.47" y1="178.58" x2="707.96" y2="178.58"/><path class="cls-12" d="M715.2,186.73a10.16,10.16,0,0,0-3.35-5.92,10,10,0,0,0-4.8-2.22"/><line class="cls-13" x1="715.2" y1="185.81" x2="715.2" y2="366.29"/><path class="cls-4" d="M583.38,198.77l-2.2,0a9.84,9.84,0,0,0-9.63,9.84l.07,17.72-5.43.1a1.94,1.94,0,0,0-1.91,1.95,1.88,1.88,0,0,0,1.92,1.88l7.77-.14.17,41.45a8.29,8.29,0,0,0,3.18,6.51l0,4.55a5.2,5.2,0,0,0,5.3,5.19,5.32,5.32,0,0,0,3.73-1.61h0a5.32,5.32,0,0,0,1.53-3.76l0-4.55a8.69,8.69,0,0,0,.68-.62,8.53,8.53,0,0,0,2.45-6l-.17-41.45,7.77-.14a1.94,1.94,0,0,0,1.9-1.95,1.88,1.88,0,0,0-1.92-1.88l-5.43.1-.07-17.72A9.53,9.53,0,0,0,583.38,198.77Zm.69,83.78a1.47,1.47,0,0,1-.42,1h0a1.46,1.46,0,0,1-1,.44,1.43,1.43,0,0,1-1.46-1.43v-2.81a7.9,7.9,0,0,0,2.91-.05Zm3-45.77-2,0a1.94,1.94,0,0,0-1.9,1.95,1.88,1.88,0,0,0,1.92,1.88l2,0v3.25l-2,0a1.94,1.94,0,0,0-1.91,1.95,1.88,1.88,0,0,0,1.92,1.88l2,0v3.25l-2,0a2,2,0,0,0-1.91,1.95,1.88,1.88,0,0,0,1.92,1.88l2,0v2.57l-9.19,9.39-.15-36.62,9.22-.16Zm2.22-28.44.07,17.72-13.89.25-.07-17.72a5.94,5.94,0,0,1,5.82-6l2.2,0A5.76,5.76,0,0,1,589.27,208.34Z"/><path class="cls-3" d="M578,266.74l9.17-9.41.16,14.05a4.87,4.87,0,0,1-1.52,3.52,4.76,4.76,0,0,1-2.89,1.21,3.38,3.38,0,0,1-1.52-.16C579,275.12,577.7,271.41,578,266.74Z"/><rect class="cls-1" x="579.11" y="205.94" width="6.46" height="13.9" transform="translate(369.45 795.23) rotate(-90)"/><path class="cls-4" d="M576.59,217.21l0,6.14a1.88,1.88,0,0,0,1.92,1.88,1.95,1.95,0,0,0,1.91-1.95l0-6.14a1.88,1.88,0,0,0-1.92-1.88A1.94,1.94,0,0,0,576.59,217.21Z"/><path class="cls-4" d="M576.64,211.06v.46a1.88,1.88,0,0,0,1.91,1.89,1.95,1.95,0,0,0,1.91-1.94V211a1.88,1.88,0,0,0-1.91-1.89A2,2,0,0,0,576.64,211.06Z"/><line class="cls-13" x1="845.84" y1="255.12" x2="845.84" y2="435.6"/><line class="cls-13" x1="731.75" y1="253.26" x2="838.29" y2="253.26"/><path class="cls-12" d="M845.68,261.4a10.16,10.16,0,0,0-3.35-5.92,10,10,0,0,0-4.8-2.22"/><line class="cls-12" x1="725.84" y1="261.19" x2="725.84" y2="365.8"/><path class="cls-12" d="M725.84,261.75a10.16,10.16,0,0,1,3.35-5.92,10,10,0,0,1,4.8-2.22"/><rect class="cls-1" x="838.29" y="243.31" width="15.04" height="88.28"/><path class="cls-4" d="M858.43,303.43v-65.7a12.45,12.45,0,1,0-24.9,0v65.7a18.48,18.48,0,0,0-6.45,14.25,18.9,18.9,0,0,0,37.8,0A18.48,18.48,0,0,0,858.43,303.43ZM846,331.48a13.8,13.8,0,0,1-8.4-24.75l1.05-.75V237.72a7.35,7.35,0,0,1,14.7,0v13.2H846V256h7.35v6.15H846v5.1h7.35v6H846v5.1h7.35v27.3l1.05.75a13.71,13.71,0,0,1,5.4,11A13.93,13.93,0,0,1,846,331.48Z"/><path class="cls-14" d="M848.68,308.68V286.32h-6v22.5a9.59,9.59,0,0,0-6.3,8.85,9.45,9.45,0,1,0,18.9,0A9.18,9.18,0,0,0,848.68,308.68Z"/></svg>