<svg xmlns="http://www.w3.org/2000/svg" viewBox="0 0 83.11 88"><defs><style>.cls-1{fill:#666665;}.cls-2{fill:#a4aaa3;}.cls-3{fill:#32cc1b;}.cls-4{fill:#2fad18;}.cls-5{fill:#707070;}</style></defs><title>nuclear</title><g id="Layer_2" data-name="Layer 2"><g id="Layer_1-2" data-name="Layer 1"><path class="cls-1" d="M60.47,81.48H83.11L82,79.31c-10.49-21-10.62-51-10.62-51.29a4,4,0,0,0-4-4H49.63c0-1.56-.05-2.47-.05-2.52a4,4,0,0,0-4-4H18a4,4,0,0,0-4,4c0,.39-.15,38.87-12.89,64.33L0,88H63.55l-1.08-2.17C61.76,84.42,61.1,83,60.47,81.48Z"/><path class="cls-2" d="M30.69,15.5a1.5,1.5,0,0,0,1.5-1.5V1.5a1.5,1.5,0,1,0-3,0V14A1.5,1.5,0,0,0,30.69,15.5Z"/><path class="cls-2" d="M20.69,15.5a1.5,1.5,0,0,0,1.5-1.5V9a1.5,1.5,0,0,0-3,0v5A1.5,1.5,0,0,0,20.69,15.5Z"/><path class="cls-2" d="M40.69,15.5a1.5,1.5,0,0,0,1.5-1.5V9a1.5,1.5,0,0,0-3,0v5A1.5,1.5,0,0,0,40.69,15.5Z"/><path class="cls-2" d="M58.19,21.38a1.5,1.5,0,0,0,1.5-1.5v-7.5a1.5,1.5,0,0,0-3,0v7.5A1.5,1.5,0,0,0,58.19,21.38Z"/><path class="cls-2" d="M63.19,20.5a1.5,1.5,0,0,0,1.5-1.5V14a1.5,1.5,0,0,0-3,0v5A1.5,1.5,0,0,0,63.19,20.5Z"/><path class="cls-2" d="M53.19,20.5a1.5,1.5,0,0,0,1.5-1.5V14a1.5,1.5,0,0,0-3,0v5A1.5,1.5,0,0,0,53.19,20.5Z"/><circle class="cls-3" cx="31.44" cy="57.24" r="1.88"/><path class="cls-4" d="M31.44,54a3.25,3.25,0,0,1,1.65.45l3.73-6.47a10.74,10.74,0,0,0-10.76,0L29.8,54.4A3.28,3.28,0,0,1,31.44,54Z"/><path class="cls-4" d="M33.08,60.08l3.74,6.49a10.74,10.74,0,0,0,5.38-9.32H34.72A3.27,3.27,0,0,1,33.08,60.08Z"/><path class="cls-4" d="M28.16,57.26H20.69a10.74,10.74,0,0,0,5.38,9.31l3.74-6.49A3.28,3.28,0,0,1,28.16,57.26Z"/><circle class="cls-3" cx="57.62" cy="48.99" r="1.21"/><path class="cls-4" d="M57.62,46.87a2.1,2.1,0,0,1,1.06.29L61.09,43a6.93,6.93,0,0,0-6.94,0l2.4,4.17A2.12,2.12,0,0,1,57.62,46.87Z"/><path class="cls-4" d="M58.68,50.82,61.09,55a6.93,6.93,0,0,0,3.47-6H59.74A2.11,2.11,0,0,1,58.68,50.82Z"/><path class="cls-4" d="M55.51,49H50.69a6.93,6.93,0,0,0,3.47,6l2.41-4.18A2.11,2.11,0,0,1,55.51,49Z"/><path class="cls-5" d="M44.56,18a3.67,3.67,0,0,1,3,0,3.59,3.59,0,0,1,2,3,118.24,118.24,0,0,0,7,52,112.88,112.88,0,0,0,7,15l-7.72-.35A170.65,170.65,0,0,1,44.56,18Z"/></g></g></svg>