<svg xmlns="http://www.w3.org/2000/svg" viewBox="0 0 90 88.6"><defs><style>.cls-1{fill:#b7b7b7;}.cls-2,.cls-3{fill:#ddd;}.cls-3{opacity:0.29;}</style></defs><title>plane_1</title><g id="Layer_2" data-name="Layer 2"><g id="Layer_1-2" data-name="Layer 1"><path class="cls-1" d="M88.66,47.76,80,42.57l-7.4-4.43-6.1-3.65-7.78-4.67-4.45-2.67V7.68C54.27,4.35,47.48,0,45,0s-9.27,4.35-9.27,7.68V27.15l-4.21,2.44-7.78,4.5-6.1,3.53-7.4,4.28L1.37,47a2,2,0,0,0-1,1.73v8.74a2,2,0,0,0,2.47,1.94l33-8,.85,17.33c-2,1.29-7.19,4.5-10.56,6.58a2,2,0,0,0-.95,1.7v9.16a2,2,0,0,0,2.6,1.91l11.93-3.77c1.8,4.29,2.76,4.29,3.62,4.29h3.32c.82,0,1.83,0,3.6-4.2l11.91,4a2,2,0,0,0,2.63-1.9V77.33a2,2,0,0,0-.92-1.68c-3.39-2.18-8.59-5.54-10.59-6.88l.85-17.23,33,8.27a2,2,0,0,0,2.49-1.94V49.47A2,2,0,0,0,88.66,47.76Z"/><path class="cls-2" d="M40,9.3a5.25,5.25,0,0,1,5.71-4A5,5,0,0,1,50,9.3a13,13,0,0,0-10,0Z"/><polygon class="cls-3" points="0 48.3 36 33.3 36 27.3 0 48.3"/><polygon class="cls-3" points="90 48.3 54 33.3 54 27.3 90 48.3"/></g></g></svg>