<svg xmlns="http://www.w3.org/2000/svg" viewBox="0 0 312.8 434.26"><defs><style>.cls-1{fill:#fff;}.cls-2{fill:#eae8ea;}.cls-13,.cls-3{fill:#d9d9d9;}.cls-4{fill:#d3a583;}.cls-5{fill:#f5f5f5;}.cls-6{fill:#63a5db;}.cls-7{fill:#5baff4;stroke:#56a5db;stroke-width:0.45px;}.cls-17,.cls-7{stroke-miterlimit:10;}.cls-8{fill:#37393a;}.cls-9{fill:#2a2e2f;}.cls-10{fill:#caa27e;}.cls-11{fill:#cecece;}.cls-12{fill:#cca176;}.cls-13{opacity:0.2;}.cls-14{fill:#252525;}.cls-15{fill:#050505;}.cls-16{fill:#020101;}.cls-17{fill:none;stroke:#1f3030;stroke-width:2.79px;}.cls-18{fill:#f29814;}</style></defs><title>professor_1</title><g id="Layer_2" data-name="Layer 2"><g id="Layer_1-2" data-name="Layer 1"><path class="cls-1" d="M119.52,6.75"/><path class="cls-2" d="M254.86,17.14c3.25-1.38,6.74-3,10.39-5A118,118,0,0,0,277,4.8a27.42,27.42,0,0,1-4.2,17.48,16.77,16.77,0,0,0,6.83-.53,17.1,17.1,0,0,0,8.23-5.43,26.56,26.56,0,0,1-7.36,23.3,40.65,40.65,0,0,0,7.71-2.28,40.62,40.62,0,0,0,5.6-2.8A27.69,27.69,0,0,1,291.63,51c-5,10.6-15.23,14-17,14.55Z"/><path class="cls-2" d="M197,18.38c-3.25-1.38-6.74-3-10.39-5A118,118,0,0,1,174.83,6,27.42,27.42,0,0,0,179,23.52,16.77,16.77,0,0,1,172.2,23,17.1,17.1,0,0,1,164,17.56a26.56,26.56,0,0,0,7.36,23.3,40.65,40.65,0,0,1-7.71-2.28,40.62,40.62,0,0,1-5.6-2.8,27.69,27.69,0,0,0,2.16,16.45c5,10.6,15.23,14,17,14.55Z"/><path class="cls-3" d="M174.66,170.63q-.16,93.6-.32,187.2H280.44V134.19H249.14L222.47,211.6l-19.89-77.41H174.34l-27.48,29-45.8-36.64L90.38,151.75l57.25,50.38Z"/><ellipse class="cls-4" cx="225.15" cy="60.16" rx="49.38" ry="60.16"/><polygon class="cls-5" points="201.68 133.81 187.9 164.43 201.82 164.37 194.9 172.75 222.47 211.6 201.68 133.81"/><path class="cls-5" d="M249,133.81l13.77,30.62-13.92-.07,6.92,8.39-33.3,38.85Z"/><polygon class="cls-6" points="202.58 134.19 222.47 211.6 249.14 134.19 202.58 134.19"/><path class="cls-7" d="M206.38,126.56l-3.8,7.63L212,145.35l13.26-8.1,12,8.38,11.86-11.43-5.22-7.63Z"/><path class="cls-8" d="M221.75,135.08l-1,53,3.45,4.73,3.83-4.84.43-52.48Z"/><path class="cls-9" d="M225.46,128.72l-5.78,5.22,2.39,3.43,2.84,4.08,5.72-7.31Z"/><path class="cls-10" d="M91.68,149.78A13.08,13.08,0,0,1,83,151.53c-7-1.28-12.95-9.52-10.73-16.37,1.68-5.18,7.27-7.24,8.22-7.57a3.88,3.88,0,0,1-2.51-4.08,3.79,3.79,0,0,1,2.44-2.92A10.18,10.18,0,0,1,85,119.35c5.65,0,11.22,5.1,14.1,12.86Z"/><path class="cls-2" d="M217,36.67l-2.12,4.18a46.15,46.15,0,0,0-24.82-4.75l.68-4.1A63.3,63.3,0,0,1,217,36.67Z"/><polygon class="cls-11" points="174.66 170.63 174.34 134.19 146.86 163.2 101.07 126.56 90.38 151.75 147.63 202.12 174.66 170.63"/><polygon class="cls-12" points="215.93 119.26 215.93 126.56 236.13 126.56 236.13 118.81 215.93 119.26"/><path d="M275.47,48.19h-9.68a17.71,17.71,0,0,0-31.68-1.27Q226,40.08,217.4,47a17.71,17.71,0,0,0-31.71,1.22H176v5.39h8.23a17.7,17.7,0,1,0,35.31,1.86,17.77,17.77,0,0,0-.5-4.2,11.17,11.17,0,0,1,13.38,0,17.7,17.7,0,1,0,34.81,2.33h8.23V48.19Zm-73.62,20.1A12.85,12.85,0,1,1,214.7,55.43,12.85,12.85,0,0,1,201.85,68.28Zm47.78,0a12.85,12.85,0,1,1,12.85-12.85A12.85,12.85,0,0,1,249.64,68.28Z"/><path class="cls-2" d="M254.75,82.86a.59.59,0,0,0-.69-.07,12.83,12.83,0,0,1-15.2-1.06h0A8.27,8.27,0,0,0,226,83.2a8.27,8.27,0,0,0-12.83-1.46h0A12.83,12.83,0,0,1,198,82.79a.59.59,0,0,0-.84.74C203.54,98,219.7,95.86,219.7,95.86A8.32,8.32,0,0,0,226,92.07a8.32,8.32,0,0,0,6.32,3.79S248.51,98,254.9,83.53A.58.58,0,0,0,254.75,82.86Z"/><ellipse class="cls-13" cx="228.74" cy="422.11" rx="84.06" ry="12.15"/><rect class="cls-5" x="177.78" y="267.96" width="38.14" height="8.67"/><circle class="cls-5" cx="229.89" cy="291.91" r="2.31"/><circle class="cls-5" cx="229.89" cy="307.84" r="2.31"/><circle class="cls-5" cx="229.89" cy="275.19" r="2.31"/><polygon class="cls-11" points="223.4 357.83 222.26 211.26 227.25 250.25 227.25 357.83 223.4 357.83"/><rect class="cls-14" x="188.89" y="357.83" width="23.1" height="52.13"/><rect class="cls-14" x="248.41" y="357.83" width="23.1" height="52.13"/><path class="cls-15" d="M248.41,410v11.83h7.92l2.16-5.91,5.4,5.91,21.35-.62-.46-5.29L272.18,410Z"/><path class="cls-15" d="M212,410v11.83h-7.92l-2.16-5.91-5.4,5.91-21.35-.62.46-5.29,12.6-5.91Z"/><path class="cls-2" d="M233.58,36.67l2.12,4.18a46.15,46.15,0,0,1,24.82-4.75l-.68-4.1a63.3,63.3,0,0,0-26.26,4.66Z"/><circle class="cls-16" cx="195.75" cy="50.83" r="6.07"/><circle class="cls-16" cx="244.06" cy="50.83" r="6.07"/><line class="cls-17" x1="79.23" y1="127.73" x2="0.99" y2="49.49"/><path class="cls-2" d="M273.71,89.26"/><rect class="cls-1" x="230.4" y="206.67" width="24.63" height="5.28" rx="2.42" ry="2.42"/><rect class="cls-1" x="247.84" y="208.85" width="4.97" height="15.92" rx="2.37" ry="2.37"/><path class="cls-1" d="M223.63,267.64h0a2.38,2.38,0,0,0,3.09-1.82l12.18-42.91a3.06,3.06,0,0,0-1.53-3.67h0a2.38,2.38,0,0,0-3.09,1.82L222.1,264A3.06,3.06,0,0,0,223.63,267.64Z"/><rect class="cls-1" x="221.91" y="261.86" width="42.54" height="6.34" rx="2.91" ry="2.91"/><path class="cls-1" d="M263,267.7h0A2.33,2.33,0,0,1,260,266l-11.81-41.63a3,3,0,0,1,1.55-3.59h0a2.33,2.33,0,0,1,3.06,1.74l11.81,41.63A3,3,0,0,1,263,267.7Z"/><path class="cls-18" d="M236,239.5H250.4l6,20.91H229.92Z"/><rect class="cls-1" x="234.06" y="209" width="5.09" height="15.19" rx="2.54" ry="2.54"/><path class="cls-10" d="M252.79,231.13a10.63,10.63,0,0,1-6,4.1c-5.64,1.29-12.72-3-13.26-8.78-.41-4.41,3.11-7.73,3.71-8.29a3.15,3.15,0,0,1-3.18-2.24,3.08,3.08,0,0,1,.88-3,8.27,8.27,0,0,1,3.1-2.42c4.21-1.84,10,.22,14.64,5.09Z"/><path class="cls-11" d="M280.44,134.19a305.83,305.83,0,0,1,19.3,50.33,318.06,318.06,0,0,1,8.88,41.29l-56.37,10.86V215L280,207.44Z"/><ellipse class="cls-1" cx="246.64" cy="244.02" rx="3.21" ry="3.24"/><ellipse class="cls-18" cx="246.64" cy="244.02" rx="1.73" ry="1.75"/><ellipse class="cls-1" cx="239.65" cy="250.02" rx="2.22" ry="2.24"/><ellipse class="cls-18" cx="239.65" cy="250.02" rx="1.2" ry="1.21"/></g></g></svg>