<svg xmlns="http://www.w3.org/2000/svg" viewBox="0 0 152.05 156.28"><defs><style>.cls-1{fill:#eaeaea;}.cls-2{fill:#e52525;}.cls-3{fill:#73dcf4;}.cls-4{fill:#7f7f7f;}.cls-5{fill:#eae9e8;}.cls-6{fill:#e5d117;}.cls-7{fill:#f7931c;}</style></defs><title>rocket</title><g id="Layer_2" data-name="Layer 2"><g id="Layer_1-2" data-name="Layer 1"><path class="cls-1" d="M146.25,39.59A61.13,61.13,0,0,0,114.34,6.14a1.23,1.23,0,0,0-.75-.08c-19.91,4.22-35.82,12.17-47.3,23.65-12,12-20.16,28.84-24.2,50a26.36,26.36,0,0,0,30.83,30.83c21.16-4,38-12.18,50-24.2C134.12,75.14,142,59.69,146.27,40.42A1.22,1.22,0,0,0,146.25,39.59Z"/><path class="cls-2" d="M76,152.54a5.44,5.44,0,0,0,1,.1A5.55,5.55,0,0,0,81,151l27-27c9-9,10.19-17.64,3.44-24.39a1.23,1.23,0,0,0-1.53-.16A96,96,0,0,1,92,107.78a141.41,141.41,0,0,1-20.64,5.72,1.22,1.22,0,0,0-1,1.26l1.46,34.11a1.17,1.17,0,0,0,.1.44A5.54,5.54,0,0,0,76,152.54Z"/><path class="cls-2" d="M53.16,42.78A1.22,1.22,0,0,0,53,41.25c-6.76-6.76-15.42-5.53-24.39,3.44l-27,27a5.56,5.56,0,0,0,1.7,9,1.24,1.24,0,0,0,.44.1l34.11,1.46h.05a1.22,1.22,0,0,0,1.2-1,141,141,0,0,1,5.72-20.64A96.22,96.22,0,0,1,53.16,42.78Z"/><path class="cls-3" d="M91.32,32.1a20.66,20.66,0,1,0,29.22,0A20.68,20.68,0,0,0,91.32,32.1Z"/><path class="cls-4" d="M27.93,101.54a4.93,4.93,0,0,0,1.45,3.5l18.21,18.21a5,5,0,0,0,7,0L65.05,112.8l-2.28-.43C50.9,110.15,43,102.47,39.88,90.16l-.53-2.09-10,10A4.9,4.9,0,0,0,27.93,101.54Z"/><path class="cls-2" d="M147.09,35.76h.11a1.22,1.22,0,0,0,1.09-.94A141.28,141.28,0,0,0,152,1.2,1.22,1.22,0,0,0,150.85,0a140.89,140.89,0,0,0-32.09,3.39,1.22,1.22,0,0,0-.29,2.29A58.82,58.82,0,0,1,146,35,1.23,1.23,0,0,0,147.09,35.76Z"/><path class="cls-5" d="M120.11,45.88a14.22,14.22,0,0,1-3.77,11.35A14,14,0,0,1,105,60.91a23.24,23.24,0,0,0,15.12-15Z"/><path class="cls-6" d="M43.65,125.34c.51,3.68-5,8.87-10.87,9.3a13.33,13.33,0,0,1-13.67-11.2c-.85-6.88,4.85-13.72,8.72-13.43,2.51.19,2.59,3.29,7.86,8.26C40.57,122.9,43.31,122.89,43.65,125.34Z"/><path class="cls-7" d="M2.23,135.94A14.26,14.26,0,0,0,9,130.28c-.2,13.61-2.61,20.88-7.07,24.9,6.36,1.87,17.43-1.55,22.64-7,1,3.79-3.37,7.55-5,8.14,10.92,0,20.41-5.88,24-14.69a23.41,23.41,0,0,0,.07-16.25,20.11,20.11,0,0,0-5.19.7,20.58,20.58,0,0,0-8.37,4.6,4.23,4.23,0,0,1,2.1-4.95c-2.49-.37-8.41,1.66-9.19,5.36a14.4,14.4,0,0,1,5.7-20.82c-1.21-.16-11.75-1.34-19.77,6.72C1.27,124.66,2.1,134.6,2.23,135.94Z"/></g></g></svg>