<svg xmlns="http://www.w3.org/2000/svg" viewBox="0 0 152.97 168.77"><defs><style>.cls-1{fill:#5cbfbc;stroke:#97f2ed;stroke-miterlimit:10;stroke-width:3px;}.cls-2{fill:#fff;}</style></defs><title>speechbubble_2</title><g id="Layer_2" data-name="Layer 2"><g id="Layer_1-2" data-name="Layer 1"><g id="Layer_2-2" data-name="Layer 2"><g id="Layer_1-2-2" data-name="Layer 1-2"><path class="cls-1" d="M119.49,166.84a53.26,53.26,0,0,1-15-5,54.28,54.28,0,0,1-19.58-17.07,3.87,3.87,0,0,0-1.33-1.06,1.73,1.73,0,0,0-1.13-.14,80.27,80.27,0,0,1-18.36-.71,76.08,76.08,0,0,1-48.64-29A67.16,67.16,0,0,1,2.56,61C5.92,42.26,16.9,25.86,33.07,14.78A76.67,76.67,0,0,1,88.81,2.55a76.08,76.08,0,0,1,48.64,29,69.78,69.78,0,0,1,13.14,53,69.14,69.14,0,0,1-23.93,41.06c-.36.15-.36.15-.46.39a40.15,40.15,0,0,0-6.71,40.84Z"/></g></g><path class="cls-2" d="M21.67,42.53a10.45,10.45,0,0,0,1.72.16h1q0-.91,0-1.75V39.78a1.78,1.78,0,0,1,0-.38.3.3,0,0,1,.16-.15.82.82,0,0,1,.38-.07q.36,0,.36.43v4.25q0,1.32-.06,2.9,0,.35-.59.35c-.19,0-.29-.12-.29-.35l0-3.18q-.38,0-1,0a12.22,12.22,0,0,1-1.67-.14q0,1.58.14,3.31a.3.3,0,0,1-.17.29.9.9,0,0,1-.45.1.27.27,0,0,1-.29-.28q-.16-1.7-.16-3.36l.07-3.74a.39.39,0,0,1,.18-.35.71.71,0,0,1,.38-.11q.34,0,.34.32Z"/><path class="cls-2" d="M26.43,47.12c-.22,0-.34-.1-.34-.29l0-4.88a.34.34,0,0,1,.12-.27.44.44,0,0,1,.29-.1.53.53,0,0,1,.3.08.34.34,0,0,1,.14.28q0,.2,0,.88,0,3.2,0,3.9a.38.38,0,0,1-.19.28A.6.6,0,0,1,26.43,47.12Z"/><path class="cls-2" d="M28.86,45.87a.43.43,0,0,1,.43.34A3.85,3.85,0,0,1,29,47.64a1,1,0,0,1-.25.38.49.49,0,0,1-.34.16q-.4,0-.4-.42a.89.89,0,0,1,0-.25,1.85,1.85,0,0,0,.37-1.26Q28.53,45.87,28.86,45.87Z"/><path class="cls-2" d="M33.88,39.49a.77.77,0,0,1,.43-.12c.16,0,.26.09.3.28q0,1.39,0,4.16,0,1.69-.1,2.87a.47.47,0,0,1-.22.32.7.7,0,0,1-.4.14.3.3,0,0,1-.34-.35q.12-1.2.12-3l-.07-4A.52.52,0,0,1,33.88,39.49Z"/><path class="cls-2" d="M39.59,46.8c0,.2-.17.3-.43.3s-.38-.1-.38-.31a12.31,12.31,0,0,1,.7-2.88,8.19,8.19,0,0,1,.7-1.66q.38-.66.74-.66a.41.41,0,0,1,.34.23q.14.23.52,1a11.06,11.06,0,0,1,.63,1.72q.25.91.55,2.21a.3.3,0,0,1-.11.25.4.4,0,0,1-.26.09.44.44,0,0,1-.48-.34l-.42-1.64A6.85,6.85,0,0,1,40,45,13.06,13.06,0,0,0,39.59,46.8Zm1.3-4.1a6.88,6.88,0,0,0-.65,1.5,4.78,4.78,0,0,0,1.25.14A11.06,11.06,0,0,0,40.88,42.69Z"/><path class="cls-2" d="M48.5,41.3a.3.3,0,0,1,.35.34q0,2.14,0,5a.51.51,0,0,1-.14.35.56.56,0,0,1-.44.16q-.3,0-.3-.4,0-1.27,0-1.89t0-1.34a2.93,2.93,0,0,1-.86.76,2.38,2.38,0,0,1-1.1.22,1.47,1.47,0,0,1-1.07-.37q0,2.15,0,2.52c0,.34-.2.5-.56.5S44,47,44,46.77l0-2.22V42.19a.5.5,0,0,1,.13-.32.39.39,0,0,1,.31-.16.63.63,0,0,1,.31.08A.28.28,0,0,1,45,42a2,2,0,0,0,.35,1.09.92.92,0,0,0,.75.48,1.7,1.7,0,0,0,1.68-1.31l.1-.31a2.59,2.59,0,0,1,.13-.35.7.7,0,0,1,.19-.21A.5.5,0,0,1,48.5,41.3Z"/><path class="cls-2" d="M52.75,45.9q-.08-1.24-.08-3.34t.06-2.73a.63.63,0,0,1,.53-.51,4.9,4.9,0,0,1,1.24-.13,3.51,3.51,0,0,1,1.9.49,1.59,1.59,0,0,1,.77,1.43,3.41,3.41,0,0,1-.22,1.3,1.85,1.85,0,0,1-.54.77,2.52,2.52,0,0,1-1.56.41,7.41,7.41,0,0,1-1.16-.12q.06,2.4,0,3c0,.42-.15.62-.42.62s-.29,0-.34-.1l-.1-.14a.58.58,0,0,1,0-.13l0-.14a1,1,0,0,1,0-.16,1.3,1.3,0,0,0,0-.17C52.75,46.17,52.75,46,52.75,45.9Zm3.42-4.76a.85.85,0,0,0-.53-.77,2.36,2.36,0,0,0-1.13-.28,2.26,2.26,0,0,0-.84.11q0,.71,0,1.3t0,1.07l.44.06a4.77,4.77,0,0,0,.53,0H55l.3,0a.69.69,0,0,0,.32-.1l.24-.19a.67.67,0,0,0,.2-.28A2.69,2.69,0,0,0,56.17,41.14Z"/><path class="cls-2" d="M59.22,46.68A.39.39,0,0,1,59,47a.59.59,0,0,1-.37.13q-.26,0-.26-.24,0-.56,0-4.48a.66.66,0,0,1,.46-.6,3,3,0,0,1,1.24-.22,2.41,2.41,0,0,1,1.36.38,1.1,1.1,0,0,1,.58.92,1.05,1.05,0,0,1-.23.59,2.12,2.12,0,0,1-.49.51,7.5,7.5,0,0,1-.74.45,3.64,3.64,0,0,1-.59.29,8.6,8.6,0,0,1,1.34,1q.59.56.59.89a.4.4,0,0,1-.29.42l-.22,0c-.09,0-.2-.09-.34-.26a6.35,6.35,0,0,0-.77-.74,13.69,13.69,0,0,0-1.12-.87q0,1,0,1.43Zm0-2.51a3.07,3.07,0,0,0,1.19-.39q.79-.39.83-.73a.52.52,0,0,0-.36-.49,1.82,1.82,0,0,0-.76-.16,3.64,3.64,0,0,0-.89.11Q59.17,43.09,59.17,44.17Z"/><path class="cls-2" d="M65.48,41.64a1.75,1.75,0,0,1,1.43.68,2.92,2.92,0,0,1,.55,1.87,3.51,3.51,0,0,1-.6,2.05,1.79,1.79,0,0,1-1.52.86,2,2,0,0,1-1.64-.86,3.46,3.46,0,0,1-.64-2.11,2.24,2.24,0,0,1,2.42-2.5Zm1.12,2.69a2.77,2.77,0,0,0-.28-1.41,1,1,0,0,0-1-.45,1.38,1.38,0,0,0-1.08.43,1.75,1.75,0,0,0-.38,1.21,2.75,2.75,0,0,0,.41,1.46,1.26,1.26,0,0,0,1.13.67.88.88,0,0,0,.7-.35A2.42,2.42,0,0,0,66.6,44.33Z"/><path class="cls-2" d="M71,44.59H69.53q0,1.12,0,2c0,.38-.12.56-.37.56s-.39-.15-.43-.46q0-.11,0-1v-1.9q0-1,0-1.34-.31,0-.31-.46a.44.44,0,0,1,.11-.24.39.39,0,0,1,.29-.18l.54,0q.39,0,1.78,0,.7,0,.7.38c0,.2-.06.32-.19.35l-.08,0-.11,0h-.1a1.14,1.14,0,0,1-.28,0h-.61c-.26,0-.57,0-.93,0v1.3h1.56a.3.3,0,0,1,.22.12.41.41,0,0,1,.11.28.44.44,0,0,1-.1.29A.36.36,0,0,1,71,44.59Z"/><path class="cls-2" d="M73.69,44.42l0,1.57a2.13,2.13,0,0,1,0,.34l2.08,0q.35,0,.35.3c0,.34-.16.5-.47.5l-2.35,0A.36.36,0,0,1,73,47a.64.64,0,0,1-.11-.32q0-.17,0-.37v-2A.27.27,0,0,1,72.7,44a.41.41,0,0,1,.13-.3q0-.94,0-1.7,0-.44.54-.46h.34l2.1,0h0q.38,0,.38.36a.34.34,0,0,1-.14.32,4,4,0,0,1-1.5.17q-.44,0-.89,0,0,1.08,0,1.21h1.84q.37,0,.37.34a.41.41,0,0,1-.12.28.42.42,0,0,1-.26.15l-.59,0Z"/><path class="cls-2" d="M77.28,42.93a1.16,1.16,0,0,1,.58-1,2.41,2.41,0,0,1,1.41-.4,2.92,2.92,0,0,1,1.27.22c.29.14.43.33.43.55a.35.35,0,0,1-.1.26.33.33,0,0,1-.25.1A1.82,1.82,0,0,1,80,42.5a1.9,1.9,0,0,0-.77-.19,1.63,1.63,0,0,0-.72.19q-.38.19-.38.46t.46.49a5.84,5.84,0,0,0,1.08.37,2.77,2.77,0,0,1,.83.31,2.54,2.54,0,0,1,.3.24,1,1,0,0,1,.19.35,2,2,0,0,1,.1.67,1.52,1.52,0,0,1-.57,1.3,2.2,2.2,0,0,1-1.36.43,3.29,3.29,0,0,1-1.35-.25q-.56-.25-.56-.62a.45.45,0,0,1,.16-.34.31.31,0,0,1,.34-.08,5.77,5.77,0,0,0,1.42.44A1.12,1.12,0,0,0,80,46a.86.86,0,0,0,.28-.65.69.69,0,0,0-.31-.61,2.15,2.15,0,0,0-.75-.31l-.88-.22a1.72,1.72,0,0,1-.75-.42A1.14,1.14,0,0,1,77.28,42.93Z"/><path class="cls-2" d="M82.08,42.93a1.16,1.16,0,0,1,.58-1,2.41,2.41,0,0,1,1.41-.4,2.92,2.92,0,0,1,1.27.22c.29.14.43.33.43.55a.35.35,0,0,1-.1.26.33.33,0,0,1-.25.1,1.82,1.82,0,0,1-.57-.19,1.9,1.9,0,0,0-.77-.19,1.63,1.63,0,0,0-.72.19Q83,42.68,83,43t.46.49a5.84,5.84,0,0,0,1.08.37,2.77,2.77,0,0,1,.83.31,2.54,2.54,0,0,1,.3.24,1,1,0,0,1,.19.35,2,2,0,0,1,.1.67,1.52,1.52,0,0,1-.57,1.3,2.2,2.2,0,0,1-1.36.43,3.29,3.29,0,0,1-1.35-.25q-.56-.25-.56-.62a.45.45,0,0,1,.16-.34.31.31,0,0,1,.34-.08,5.77,5.77,0,0,0,1.42.44A1.12,1.12,0,0,0,84.8,46a.86.86,0,0,0,.28-.65.69.69,0,0,0-.31-.61,2.15,2.15,0,0,0-.75-.31l-.88-.22a1.72,1.72,0,0,1-.75-.42A1.14,1.14,0,0,1,82.08,42.93Z"/><path class="cls-2" d="M89.24,41.64a1.75,1.75,0,0,1,1.43.68,2.92,2.92,0,0,1,.55,1.87,3.51,3.51,0,0,1-.6,2.05,1.79,1.79,0,0,1-1.52.86,2,2,0,0,1-1.64-.86,3.46,3.46,0,0,1-.64-2.11,2.24,2.24,0,0,1,2.42-2.5Zm1.12,2.69a2.77,2.77,0,0,0-.28-1.41,1,1,0,0,0-1-.45,1.38,1.38,0,0,0-1.08.43,1.75,1.75,0,0,0-.38,1.21,2.75,2.75,0,0,0,.41,1.46,1.26,1.26,0,0,0,1.13.67.88.88,0,0,0,.7-.35A2.42,2.42,0,0,0,90.36,44.33Z"/><path class="cls-2" d="M93.18,46.68A.39.39,0,0,1,93,47a.59.59,0,0,1-.37.13q-.26,0-.26-.24,0-.56,0-4.48a.66.66,0,0,1,.46-.6A3,3,0,0,1,94,41.59a2.41,2.41,0,0,1,1.36.38,1.1,1.1,0,0,1,.58.92,1.05,1.05,0,0,1-.23.59,2.12,2.12,0,0,1-.49.51,7.5,7.5,0,0,1-.74.45,3.64,3.64,0,0,1-.59.29,8.6,8.6,0,0,1,1.34,1q.59.56.59.89a.4.4,0,0,1-.29.42l-.22,0c-.09,0-.2-.09-.34-.26a6.35,6.35,0,0,0-.77-.74,13.69,13.69,0,0,0-1.12-.87q0,1,0,1.43Zm0-2.51a3.07,3.07,0,0,0,1.19-.39q.79-.39.83-.73a.52.52,0,0,0-.36-.49,1.82,1.82,0,0,0-.76-.16,3.64,3.64,0,0,0-.89.11Q93.13,43.09,93.13,44.17Z"/><path class="cls-2" d="M100,43a.35.35,0,0,1-.17-.31.59.59,0,0,1,.13-.37q0-1.2,0-2.53a.67.67,0,0,1,.66-.59q1.58.07,3.43.07.46.1.46.4,0,.5-1,.59h-1.36q-.23,0-1.26-.1,0,1.5,0,2.06h2.45q.43.08.43.39a.52.52,0,0,1-.35.47l-.13,0-2.08,0-.31,0,0,2.06a9.38,9.38,0,0,1,0,1l2.78,0q.38.06.38.32a.54.54,0,0,1-.16.36.71.71,0,0,1-.38.23l-3.07,0a.56.56,0,0,1-.38-.1.46.46,0,0,1-.11-.34,8.7,8.7,0,0,0,0-1.08v-.84Z"/><path class="cls-2" d="M106.56,47.13h-1.14c-.2,0-.31-.06-.34-.18a12.29,12.29,0,0,1-.07-1.57l.08-3.48c0-.2.15-.3.46-.3a.6.6,0,0,1,.37.11.35.35,0,0,1,.14.3q0,.5-.13,1.39a16.72,16.72,0,0,0-.13,1.7q0,.53,0,1.28l1.78-.11a.36.36,0,0,1,.4.41q0,.34-.25.38A7.88,7.88,0,0,1,106.56,47.13Z"/><path class="cls-2" d="M109.71,44.42l0,1.57a2.13,2.13,0,0,1,0,.34l2.08,0q.35,0,.35.3c0,.34-.16.5-.47.5l-2.35,0A.36.36,0,0,1,109,47a.64.64,0,0,1-.11-.32q0-.17,0-.37v-2a.27.27,0,0,1-.16-.25.41.41,0,0,1,.13-.3q0-.94,0-1.7,0-.44.54-.46h.34l2.1,0h0q.38,0,.38.36a.34.34,0,0,1-.14.32,4,4,0,0,1-1.5.17q-.44,0-.89,0,0,1.08,0,1.21h1.84q.37,0,.37.34a.41.41,0,0,1-.12.28.42.42,0,0,1-.26.15l-.59,0Z"/><path class="cls-2" d="M117.78,41.3a.3.3,0,0,1,.35.34q0,2.14,0,5A.51.51,0,0,1,118,47a.56.56,0,0,1-.44.16q-.3,0-.3-.4,0-1.27,0-1.89t0-1.34a2.93,2.93,0,0,1-.86.76,2.38,2.38,0,0,1-1.1.22,1.47,1.47,0,0,1-1.07-.37q0,2.15,0,2.52c0,.34-.2.5-.56.5s-.32-.12-.32-.35l0-2.22V42.19a.5.5,0,0,1,.13-.32.39.39,0,0,1,.31-.16.63.63,0,0,1,.31.08.28.28,0,0,1,.15.23,2,2,0,0,0,.35,1.09.92.92,0,0,0,.75.48A1.7,1.7,0,0,0,117,42.29l.1-.31a2.59,2.59,0,0,1,.13-.35.7.7,0,0,1,.19-.21A.5.5,0,0,1,117.78,41.3Z"/><path class="cls-2" d="M120,44.42l0,1.57a2.13,2.13,0,0,1,0,.34l2.08,0q.35,0,.35.3c0,.34-.16.5-.47.5l-2.35,0a.36.36,0,0,1-.32-.15.64.64,0,0,1-.11-.32q0-.17,0-.37v-2A.27.27,0,0,1,119,44a.41.41,0,0,1,.13-.3q0-.94,0-1.7,0-.44.54-.46H120l2.1,0h0q.38,0,.38.36a.34.34,0,0,1-.14.32,4,4,0,0,1-1.5.17q-.44,0-.89,0,0,1.08,0,1.21h1.84q.37,0,.37.34a.41.41,0,0,1-.12.28.42.42,0,0,1-.26.15l-.59,0Z"/><path class="cls-2" d="M124.52,43.38l-.13,2.92c0,.26,0,.43,0,.52a.37.37,0,0,1-.42.32.38.38,0,0,1-.26-.1.37.37,0,0,1-.13-.26q.1-3.12.1-3.37v-.55a2.23,2.23,0,0,1,.06-.54.4.4,0,0,1,.43-.32.71.71,0,0,1,.42.23,7.47,7.47,0,0,1,.73.84A13.25,13.25,0,0,1,127,45.72q0-1.7-.08-2.6t-.06-1V42a.47.47,0,0,1,.49-.46.4.4,0,0,1,.29.14.48.48,0,0,1,.13.34l.06,4.46q0,.62-.5.62a.57.57,0,0,1-.47-.21,3.23,3.23,0,0,1-.24-.33l-.22-.38A14.86,14.86,0,0,0,124.52,43.38Z"/><path class="cls-2" d="M131.3,42.31l0,2.84q0,.89,0,1.56a.32.32,0,0,1-.15.29.57.57,0,0,1-.33.11c-.21,0-.31-.11-.31-.34q0-1.31,0-2.49t.07-1.95q-.72.06-1.46.06-.37,0-.37-.31a.42.42,0,0,1,.14-.29.47.47,0,0,1,.31-.16l3.74-.12c.22,0,.32.15.32.31q0,.49-1.13.49Z"/><path class="cls-2" d="M136.42,41.64a1.75,1.75,0,0,1,1.43.68,2.92,2.92,0,0,1,.55,1.87,3.51,3.51,0,0,1-.6,2.05,1.79,1.79,0,0,1-1.52.86,2,2,0,0,1-1.64-.86,3.46,3.46,0,0,1-.64-2.11,2.24,2.24,0,0,1,2.42-2.5Zm1.12,2.69a2.77,2.77,0,0,0-.28-1.41,1,1,0,0,0-1-.45,1.38,1.38,0,0,0-1.08.43,1.75,1.75,0,0,0-.38,1.21,2.75,2.75,0,0,0,.41,1.46,1.26,1.26,0,0,0,1.13.67.88.88,0,0,0,.7-.35A2.42,2.42,0,0,0,137.54,44.33Z"/><path class="cls-2" d="M21.41,61.2c0,.2-.17.3-.43.3s-.38-.1-.38-.31a12.31,12.31,0,0,1,.7-2.88,8.19,8.19,0,0,1,.7-1.66q.38-.66.74-.66a.41.41,0,0,1,.34.23q.14.23.52,1A11.06,11.06,0,0,1,24.23,59q.25.91.55,2.21a.3.3,0,0,1-.11.25.4.4,0,0,1-.26.09.44.44,0,0,1-.48-.34l-.42-1.64a6.85,6.85,0,0,1-1.69-.17A13.06,13.06,0,0,0,21.41,61.2Zm1.3-4.1a6.88,6.88,0,0,0-.65,1.5,4.78,4.78,0,0,0,1.25.14A11.06,11.06,0,0,0,22.7,57.09Z"/><path class="cls-2" d="M26.75,57.78l-.13,2.92c0,.26,0,.43,0,.52a.37.37,0,0,1-.42.32.38.38,0,0,1-.26-.1.37.37,0,0,1-.13-.26q.1-3.12.1-3.37v-.55a2.23,2.23,0,0,1,.06-.54.4.4,0,0,1,.43-.32.71.71,0,0,1,.42.23,7.47,7.47,0,0,1,.73.84,13.25,13.25,0,0,1,1.73,2.65q0-1.7-.08-2.6t-.06-1v-.1A.47.47,0,0,1,29.6,56a.4.4,0,0,1,.29.14.48.48,0,0,1,.13.34l.06,4.46q0,.62-.5.62a.57.57,0,0,1-.47-.21,3.23,3.23,0,0,1-.24-.33l-.22-.38A14.86,14.86,0,0,0,26.75,57.78Z"/><path class="cls-2" d="M31.43,61.21a.33.33,0,0,1-.16-.25.37.37,0,0,1,.08-.23q-.12-.92-.17-2.14t0-1.37c0-.11,0-.22,0-.35a2.37,2.37,0,0,1,.05-.41.5.5,0,0,1,.55-.46,3.42,3.42,0,0,1,2.38,1.12,3.34,3.34,0,0,1,1.15,2.42A1.8,1.8,0,0,1,34.67,61a2.57,2.57,0,0,1-1.67.5,4.85,4.85,0,0,1-.58,0,.45.45,0,0,1-.16.34.52.52,0,0,1-.36.14.34.34,0,0,1-.37-.31ZM32,56.89q0,.13,0,.46t.07,1.43q.07,1.11.17,1.89a5.7,5.7,0,0,0,.74,0q1.4,0,1.4-.79a2.78,2.78,0,0,0-.64-1.8A4,4,0,0,0,32,56.89Z"/><path class="cls-2" d="M41.57,56.71l0,2.84q0,.89,0,1.56a.32.32,0,0,1-.15.29.57.57,0,0,1-.33.11c-.21,0-.31-.11-.31-.34q0-1.31,0-2.49t.07-1.95q-.72.06-1.46.06-.37,0-.37-.31a.42.42,0,0,1,.14-.29.47.47,0,0,1,.31-.16l3.74-.12c.22,0,.32.15.32.31q0,.49-1.13.49Z"/><path class="cls-2" d="M47.87,59.07v1.78q0,.67-.43.67a.47.47,0,0,1-.31-.08.3.3,0,0,1-.09-.26q0-.64,0-2a5.91,5.91,0,0,1-.63,0q-.43,0-1.33-.1v.25q0,.25.1,1.82a.28.28,0,0,1-.14.28.59.59,0,0,1-.31.09.33.33,0,0,1-.25-.09.34.34,0,0,1-.1-.21q-.13-1.25-.13-1.89t0-.87l0-2a.33.33,0,0,1,.16-.25.56.56,0,0,1,.32-.1c.21,0,.31.09.31.26l0,1.88a6.66,6.66,0,0,0,1,.1h.91q0-.66,0-2a.32.32,0,0,1,.16-.28.62.62,0,0,1,.35-.11.26.26,0,0,1,.26.17.68.68,0,0,1,.06.32Z"/><path class="cls-2" d="M49.14,61.52c-.22,0-.34-.1-.34-.29l0-4.88a.34.34,0,0,1,.12-.27.44.44,0,0,1,.29-.1.53.53,0,0,1,.3.08.34.34,0,0,1,.14.28q0,.2,0,.88,0,3.2,0,3.9a.38.38,0,0,1-.19.28A.6.6,0,0,1,49.14,61.52Z"/><path class="cls-2" d="M50.69,57.33a1.16,1.16,0,0,1,.58-1,2.41,2.41,0,0,1,1.41-.4,2.92,2.92,0,0,1,1.27.22c.29.14.43.33.43.55a.35.35,0,0,1-.1.26.33.33,0,0,1-.25.1,1.82,1.82,0,0,1-.57-.19,1.9,1.9,0,0,0-.77-.19,1.63,1.63,0,0,0-.72.19q-.38.19-.38.46t.46.49a5.84,5.84,0,0,0,1.08.37,2.77,2.77,0,0,1,.83.31,2.54,2.54,0,0,1,.3.24,1,1,0,0,1,.19.35,2,2,0,0,1,.1.67,1.52,1.52,0,0,1-.57,1.3,2.2,2.2,0,0,1-1.36.43,3.29,3.29,0,0,1-1.35-.25q-.56-.25-.56-.62a.45.45,0,0,1,.16-.34.31.31,0,0,1,.34-.08,5.77,5.77,0,0,0,1.42.44,1.12,1.12,0,0,0,.79-.26.86.86,0,0,0,.28-.65.69.69,0,0,0-.31-.61,2.15,2.15,0,0,0-.75-.31l-.88-.22A1.72,1.72,0,0,1,51,58.2,1.14,1.14,0,0,1,50.69,57.33Z"/><path class="cls-2" d="M58.5,61.52c-.22,0-.34-.1-.34-.29l0-4.88a.34.34,0,0,1,.12-.27.44.44,0,0,1,.29-.1.53.53,0,0,1,.3.08.34.34,0,0,1,.14.28q0,.2,0,.88,0,3.2,0,3.9a.38.38,0,0,1-.19.28A.6.6,0,0,1,58.5,61.52Z"/><path class="cls-2" d="M60,57.33a1.16,1.16,0,0,1,.58-1A2.41,2.41,0,0,1,62,56a2.92,2.92,0,0,1,1.27.22c.29.14.43.33.43.55a.35.35,0,0,1-.1.26.33.33,0,0,1-.25.1,1.82,1.82,0,0,1-.57-.19,1.9,1.9,0,0,0-.77-.19,1.63,1.63,0,0,0-.72.19q-.38.19-.38.46t.46.49a5.84,5.84,0,0,0,1.08.37,2.77,2.77,0,0,1,.83.31,2.54,2.54,0,0,1,.3.24,1,1,0,0,1,.19.35,2,2,0,0,1,.1.67,1.52,1.52,0,0,1-.57,1.3,2.2,2.2,0,0,1-1.36.43,3.29,3.29,0,0,1-1.35-.25q-.56-.25-.56-.62a.45.45,0,0,1,.16-.34.31.31,0,0,1,.34-.08,5.77,5.77,0,0,0,1.42.44,1.12,1.12,0,0,0,.79-.26.86.86,0,0,0,.28-.65.69.69,0,0,0-.31-.61,2.15,2.15,0,0,0-.75-.31l-.88-.22a1.72,1.72,0,0,1-.75-.42A1.14,1.14,0,0,1,60,57.33Z"/><path class="cls-2" d="M72.08,55.7a.3.3,0,0,1,.35.34q0,2.14,0,5a.51.51,0,0,1-.14.35.56.56,0,0,1-.44.16q-.3,0-.3-.4,0-1.27,0-1.89t0-1.34a2.93,2.93,0,0,1-.86.76,2.38,2.38,0,0,1-1.1.22,1.47,1.47,0,0,1-1.07-.37q0,2.15,0,2.52c0,.34-.2.5-.56.5s-.32-.12-.32-.35l0-2.22V56.59a.5.5,0,0,1,.13-.32.39.39,0,0,1,.31-.16.63.63,0,0,1,.31.08.28.28,0,0,1,.15.23,2,2,0,0,0,.35,1.09.92.92,0,0,0,.75.48,1.7,1.7,0,0,0,1.68-1.31l.1-.31a2.59,2.59,0,0,1,.13-.35.7.7,0,0,1,.19-.21A.5.5,0,0,1,72.08,55.7Z"/><path class="cls-2" d="M76.59,55.94q.31,0,.31.29a1.72,1.72,0,0,1-.32.83l-.31.47L76,58l-.25.37c-.12.16-.21.31-.29.44v1a8.11,8.11,0,0,1-.07,1.39.4.4,0,0,1-.44.31.22.22,0,0,1-.16,0,1.38,1.38,0,0,1-.13-.79v-1.3a5.66,5.66,0,0,0,0-.64,18.54,18.54,0,0,1-1.34-2.18.28.28,0,0,1,0-.14.31.31,0,0,1,.07-.18.49.49,0,0,1,.41-.25q.18,0,.88,1.21.31.54.47.77l.46-.7.37-.59a2.23,2.23,0,0,1,.55-.67A.27.27,0,0,1,76.59,55.94Z"/><path class="cls-2" d="M80.69,57.33a1.16,1.16,0,0,1,.58-1,2.41,2.41,0,0,1,1.41-.4,2.92,2.92,0,0,1,1.27.22c.29.14.43.33.43.55a.35.35,0,0,1-.1.26.33.33,0,0,1-.25.1,1.82,1.82,0,0,1-.57-.19,1.9,1.9,0,0,0-.77-.19,1.63,1.63,0,0,0-.72.19q-.38.19-.38.46t.46.49a5.84,5.84,0,0,0,1.08.37,2.77,2.77,0,0,1,.83.31,2.54,2.54,0,0,1,.3.24,1,1,0,0,1,.19.35,2,2,0,0,1,.1.67,1.52,1.52,0,0,1-.57,1.3,2.2,2.2,0,0,1-1.36.43,3.29,3.29,0,0,1-1.35-.25q-.56-.25-.56-.62a.45.45,0,0,1,.16-.34.31.31,0,0,1,.34-.08,5.77,5.77,0,0,0,1.42.44,1.12,1.12,0,0,0,.79-.26.86.86,0,0,0,.28-.65.69.69,0,0,0-.31-.61,2.15,2.15,0,0,0-.75-.31l-.88-.22A1.72,1.72,0,0,1,81,58.2,1.14,1.14,0,0,1,80.69,57.33Z"/><path class="cls-2" d="M89.29,57l-1-.12a1.72,1.72,0,0,0-1.94,1.94A2.08,2.08,0,0,0,87,60.39a.83.83,0,0,0,.6.3,4,4,0,0,0,1.09-.28,8.37,8.37,0,0,1,.84-.28q.32,0,.32.3a.52.52,0,0,1-.28.43,6.51,6.51,0,0,1-2.17.64,1.44,1.44,0,0,1-.8-.26,1.9,1.9,0,0,1-.62-.68,3.56,3.56,0,0,1-.47-1.78,2.67,2.67,0,0,1,.77-2,2.71,2.71,0,0,1,2-.74,4.34,4.34,0,0,1,1.38.23h0a.37.37,0,0,1,.22.3.39.39,0,0,1-.17.31A.56.56,0,0,1,89.29,57Z"/><path class="cls-2" d="M91.14,61.52c-.22,0-.34-.1-.34-.29l0-4.88a.34.34,0,0,1,.12-.27.44.44,0,0,1,.29-.1.53.53,0,0,1,.3.08.34.34,0,0,1,.14.28q0,.2,0,.88,0,3.2,0,3.9a.38.38,0,0,1-.19.28A.6.6,0,0,1,91.14,61.52Z"/><path class="cls-2" d="M93.66,58.82l0,1.57a2.13,2.13,0,0,1,0,.34l2.08,0q.35,0,.35.3c0,.34-.16.5-.47.5l-2.35,0a.36.36,0,0,1-.32-.15.64.64,0,0,1-.11-.32q0-.17,0-.37v-2a.27.27,0,0,1-.16-.25.41.41,0,0,1,.13-.3q0-.94,0-1.7,0-.44.54-.46h.34l2.1,0h0q.38,0,.38.36a.34.34,0,0,1-.14.32,4,4,0,0,1-1.5.17q-.44,0-.89,0,0,1.08,0,1.21h1.84q.37,0,.37.34a.41.41,0,0,1-.12.28.42.42,0,0,1-.26.15l-.59,0Z"/><path class="cls-2" d="M98.15,57.78,98,60.69c0,.26,0,.43,0,.52a.37.37,0,0,1-.42.32.38.38,0,0,1-.26-.1.37.37,0,0,1-.13-.26q.1-3.12.1-3.37v-.55a2.23,2.23,0,0,1,.06-.54.4.4,0,0,1,.43-.32.71.71,0,0,1,.42.23,7.47,7.47,0,0,1,.73.84,13.25,13.25,0,0,1,1.73,2.65q0-1.7-.08-2.6t-.06-1v-.1A.47.47,0,0,1,101,56a.4.4,0,0,1,.29.14.48.48,0,0,1,.13.34l.06,4.46q0,.62-.5.62a.57.57,0,0,1-.47-.21,3.23,3.23,0,0,1-.24-.33l-.22-.38A14.86,14.86,0,0,0,98.15,57.78Z"/><path class="cls-2" d="M106.33,57l-1-.12a1.72,1.72,0,0,0-1.94,1.94,2.08,2.08,0,0,0,.59,1.56.83.83,0,0,0,.6.3,4,4,0,0,0,1.09-.28,8.37,8.37,0,0,1,.84-.28q.32,0,.32.3a.52.52,0,0,1-.28.43,6.51,6.51,0,0,1-2.17.64,1.44,1.44,0,0,1-.8-.26,1.9,1.9,0,0,1-.62-.68,3.56,3.56,0,0,1-.47-1.78,2.67,2.67,0,0,1,.77-2,2.71,2.71,0,0,1,2-.74,4.34,4.34,0,0,1,1.38.23h0a.37.37,0,0,1,.22.3.39.39,0,0,1-.17.31A.56.56,0,0,1,106.33,57Z"/><path class="cls-2" d="M108.9,58.82l0,1.57a2.13,2.13,0,0,1,0,.34l2.08,0q.35,0,.35.3c0,.34-.16.5-.47.5l-2.35,0a.36.36,0,0,1-.32-.15.64.64,0,0,1-.11-.32q0-.17,0-.37v-2a.27.27,0,0,1-.16-.25.41.41,0,0,1,.13-.3q0-.94,0-1.7,0-.44.54-.46h.34l2.1,0h0q.38,0,.38.36a.34.34,0,0,1-.14.32,4,4,0,0,1-1.5.17q-.44,0-.89,0,0,1.08,0,1.21h1.84q.37,0,.37.34a.41.41,0,0,1-.12.28.42.42,0,0,1-.26.15l-.59,0Z"/><path class="cls-2" d="M116.66,61.53h-1.14c-.2,0-.31-.06-.34-.18a12.29,12.29,0,0,1-.07-1.57l.08-3.48c0-.2.15-.3.46-.3a.6.6,0,0,1,.37.11.35.35,0,0,1,.14.3q0,.5-.13,1.39a16.72,16.72,0,0,0-.13,1.7q0,.53,0,1.28l1.78-.11a.36.36,0,0,1,.4.41q0,.34-.25.38A7.88,7.88,0,0,1,116.66,61.53Z"/><path class="cls-2" d="M119.69,61.2c0,.2-.17.3-.43.3s-.38-.1-.38-.31a12.31,12.31,0,0,1,.7-2.88,8.19,8.19,0,0,1,.7-1.66q.38-.66.74-.66a.41.41,0,0,1,.34.23q.14.23.52,1A11.06,11.06,0,0,1,122.5,59q.25.91.55,2.21a.3.3,0,0,1-.11.25.4.4,0,0,1-.26.09.44.44,0,0,1-.48-.34l-.42-1.64a6.85,6.85,0,0,1-1.69-.17A13.06,13.06,0,0,0,119.69,61.2Zm1.3-4.1a6.88,6.88,0,0,0-.65,1.5,4.78,4.78,0,0,0,1.25.14A11.06,11.06,0,0,0,121,57.09Z"/><path class="cls-2" d="M124.39,56.41a1.16,1.16,0,0,1,1.08-.44,2.18,2.18,0,0,1,1.34.39,1.22,1.22,0,0,1,.52,1,1.4,1.4,0,0,1-.37,1,1.12,1.12,0,0,1,.7.52,1.62,1.62,0,0,1,.28.89,1.74,1.74,0,0,1-.54,1.3q-.38.41-3.22.41s0-.21,0-.52q0-1.37,0-3.07A3.18,3.18,0,0,1,124.39,56.41Zm1.8,2.57a9.05,9.05,0,0,0-1.24.1q0,.25,0,.68c0,.28,0,.63.06,1h.35a5.56,5.56,0,0,0,.74-.07q1.09-.18,1.09-.9T126.19,59ZM125,57.32v1a2.74,2.74,0,0,0,1.15-.22.76.76,0,0,0,.49-.74.55.55,0,0,0-.29-.47,1.23,1.23,0,0,0-.68-.19.72.72,0,0,0-.53.14A.66.66,0,0,0,125,57.32Z"/><path class="cls-2" d="M129.73,60.08a.62.62,0,0,1,.45.19.85.85,0,0,1,.23.53.73.73,0,0,1-.19.49.58.58,0,0,1-.45.22.81.81,0,0,1-.46-.14.48.48,0,0,1-.2-.43,1.05,1.05,0,0,1,.19-.58A.53.53,0,0,1,129.73,60.08Z"/><path class="cls-2" d="M20.22,73.12,25.08,73q.35.11.35.35,0,.6-.49.6Q24,74,23,74q-.06,1-.06,1.55v.67l0,4.21q0,.37-.19.43a1.16,1.16,0,0,1-.36,0q-.35,0-.38-.4Q22,79.63,22,77.11t.07-3h-2a.38.38,0,0,1-.3-.12.42.42,0,0,1-.11-.29.51.51,0,0,1,.15-.34A.56.56,0,0,1,20.22,73.12Z"/><path class="cls-2" d="M28.15,75.42a1.75,1.75,0,0,1,1.43.68A2.92,2.92,0,0,1,30.14,78a3.51,3.51,0,0,1-.6,2.05,1.79,1.79,0,0,1-1.52.86A2,2,0,0,1,26.37,80a3.46,3.46,0,0,1-.64-2.11,2.24,2.24,0,0,1,2.42-2.5Zm1.12,2.69A2.77,2.77,0,0,0,29,76.7a1,1,0,0,0-1-.45,1.38,1.38,0,0,0-1.08.43,1.75,1.75,0,0,0-.38,1.21A2.75,2.75,0,0,0,27,79.35,1.26,1.26,0,0,0,28.1,80a.88.88,0,0,0,.7-.35A2.42,2.42,0,0,0,29.27,78.11Z"/><path class="cls-2" d="M31.49,80.59a.33.33,0,0,1-.16-.25.37.37,0,0,1,.08-.23q-.12-.92-.17-2.14t0-1.37c0-.11,0-.22,0-.35a2.37,2.37,0,0,1,.05-.41.5.5,0,0,1,.55-.46A3.42,3.42,0,0,1,34.2,76.5a3.34,3.34,0,0,1,1.15,2.42,1.8,1.8,0,0,1-.61,1.48,2.57,2.57,0,0,1-1.67.5,4.85,4.85,0,0,1-.58,0,.45.45,0,0,1-.16.34.52.52,0,0,1-.36.14A.34.34,0,0,1,31.6,81Zm.61-4.32q0,.13,0,.46t.07,1.43q.07,1.11.17,1.89a5.7,5.7,0,0,0,.74,0q1.4,0,1.4-.79a2.78,2.78,0,0,0-.64-1.8A4,4,0,0,0,32.1,76.27Z"/><path class="cls-2" d="M37.31,80.58c0,.2-.17.3-.43.3s-.38-.1-.38-.31a12.31,12.31,0,0,1,.7-2.88A8.19,8.19,0,0,1,37.9,76q.38-.66.74-.66a.41.41,0,0,1,.34.23q.14.23.52,1a11.06,11.06,0,0,1,.63,1.72q.25.91.55,2.21a.3.3,0,0,1-.11.25.4.4,0,0,1-.26.09.44.44,0,0,1-.48-.34l-.42-1.64a6.85,6.85,0,0,1-1.69-.17A13.06,13.06,0,0,0,37.31,80.58Zm1.3-4.1A6.88,6.88,0,0,0,38,78a4.78,4.78,0,0,0,1.25.14A11.06,11.06,0,0,0,38.61,76.48Z"/><path class="cls-2" d="M45,75.33q.31,0,.31.29a1.72,1.72,0,0,1-.32.83l-.31.47-.28.43-.25.37c-.12.16-.21.31-.29.44v1a8.11,8.11,0,0,1-.07,1.39.4.4,0,0,1-.44.31.22.22,0,0,1-.16,0,1.38,1.38,0,0,1-.13-.79v-1.3a5.66,5.66,0,0,0,0-.64,18.54,18.54,0,0,1-1.34-2.18.28.28,0,0,1,0-.14.31.31,0,0,1,.07-.18.49.49,0,0,1,.41-.25q.18,0,.88,1.21.31.54.47.77l.46-.7.37-.59a2.23,2.23,0,0,1,.55-.67A.27.27,0,0,1,45,75.33Z"/><path class="cls-2" d="M48.9,75.95a.55.55,0,0,1,.14-.38.46.46,0,0,1,.36-.16q.25,0,.32.32t.22,1.72q.16,1.31.26,2,.2-.37.41-.83l.31-.65q.3-.58.64-.58t.5.61q.66,1.39.73,1.5a37.68,37.68,0,0,0,.66-3.85.4.4,0,0,1,.17-.27.51.51,0,0,1,.31-.13.37.37,0,0,1,.24.08.26.26,0,0,1,.1.21,48.91,48.91,0,0,1-.89,5q-.07.31-.5.31a.36.36,0,0,1-.32-.2q-.23-.4-.58-1.11t-.49-1a14.68,14.68,0,0,1-.85,1.75q-.33.54-.7.54-.22,0-.38-.38a2.42,2.42,0,0,1-.19-.7Q49.35,79.5,48.9,75.95Z"/><path class="cls-2" d="M56,78.21l0,1.57a2.13,2.13,0,0,1,0,.34l2.08,0q.35,0,.35.3c0,.34-.16.5-.47.5l-2.35,0a.36.36,0,0,1-.32-.15.64.64,0,0,1-.11-.32q0-.17,0-.37v-2a.27.27,0,0,1-.16-.25.41.41,0,0,1,.13-.3q0-.94,0-1.7,0-.44.54-.46H56l2.1,0h0q.38,0,.38.36a.34.34,0,0,1-.14.32,4,4,0,0,1-1.5.17q-.44,0-.89,0,0,1.08,0,1.21h1.84q.37,0,.37.34a.41.41,0,0,1-.12.28.42.42,0,0,1-.26.15l-.59,0Z"/><path class="cls-2" d="M63.23,80.58c0,.2-.17.3-.43.3s-.38-.1-.38-.31a12.31,12.31,0,0,1,.7-2.88,8.19,8.19,0,0,1,.7-1.66q.38-.66.74-.66a.41.41,0,0,1,.34.23q.14.23.52,1A11.06,11.06,0,0,1,66,78.36q.25.91.55,2.21a.3.3,0,0,1-.11.25.4.4,0,0,1-.26.09.44.44,0,0,1-.48-.34l-.42-1.64a6.85,6.85,0,0,1-1.69-.17A13.06,13.06,0,0,0,63.23,80.58Zm1.3-4.1a6.88,6.88,0,0,0-.65,1.5,4.78,4.78,0,0,0,1.25.14A11.06,11.06,0,0,0,64.53,76.48Z"/><path class="cls-2" d="M68.57,80.46a.39.39,0,0,1-.17.31.59.59,0,0,1-.37.13q-.26,0-.26-.24,0-.56,0-4.48a.66.66,0,0,1,.46-.6,3,3,0,0,1,1.24-.22,2.41,2.41,0,0,1,1.36.38,1.1,1.1,0,0,1,.58.92,1.05,1.05,0,0,1-.23.59,2.12,2.12,0,0,1-.49.51,7.5,7.5,0,0,1-.74.45,3.64,3.64,0,0,1-.59.29,8.6,8.6,0,0,1,1.34,1q.59.56.59.89a.4.4,0,0,1-.29.42l-.22,0c-.09,0-.2-.09-.34-.26a6.35,6.35,0,0,0-.77-.74A13.69,13.69,0,0,0,68.52,79q0,1,0,1.43Zm0-2.51a3.07,3.07,0,0,0,1.19-.39q.79-.39.83-.73a.52.52,0,0,0-.36-.49,1.82,1.82,0,0,0-.76-.16,3.64,3.64,0,0,0-.89.11Q68.52,76.87,68.52,78Z"/><path class="cls-2" d="M73.44,78.21l0,1.57a2.13,2.13,0,0,1,0,.34l2.08,0q.35,0,.35.3c0,.34-.16.5-.47.5l-2.35,0a.36.36,0,0,1-.32-.15.64.64,0,0,1-.11-.32q0-.17,0-.37v-2a.27.27,0,0,1-.16-.25.41.41,0,0,1,.13-.3q0-.94,0-1.7,0-.44.54-.46h.34l2.1,0h0q.38,0,.38.36a.34.34,0,0,1-.14.32,4,4,0,0,1-1.5.17q-.44,0-.89,0,0,1.08,0,1.21h1.84q.37,0,.37.34a.41.41,0,0,1-.12.28.42.42,0,0,1-.26.15l-.59,0Z"/><path class="cls-2" d="M82.45,75.37a2.06,2.06,0,0,1,.94.22q.43.22.43.53a.38.38,0,0,1-.13.29.45.45,0,0,1-.31.12.81.81,0,0,1-.41-.14,1.15,1.15,0,0,0-.6-.14,1.49,1.49,0,0,0-1.25.64,2.27,2.27,0,0,0-.48,1.4A2.36,2.36,0,0,0,81,79.57a.94.94,0,0,0,.78.53,1.1,1.1,0,0,0,.73-.23.74.74,0,0,0,.28-.59q0-.62-.23-.62a2.46,2.46,0,0,1-.7-.07.28.28,0,0,1-.19-.29q0-.43.38-.47h.43a1.64,1.64,0,0,1,.54.1.69.69,0,0,1,.47.46,5.93,5.93,0,0,1,.18,1.39V80q0,.2,0,.33a2.08,2.08,0,0,1,0,.29.35.35,0,0,1-.11.22.45.45,0,0,1-.26.06.43.43,0,0,1-.28-.08.45.45,0,0,1-.13-.28,2,2,0,0,1-1.13.37,1.52,1.52,0,0,1-1-.4,2.46,2.46,0,0,1-.69-1,3.35,3.35,0,0,1-.23-1.2,3,3,0,0,1,.77-2.15A2.54,2.54,0,0,1,82.45,75.37Z"/><path class="cls-2" d="M87.19,75.42a1.75,1.75,0,0,1,1.43.68A2.92,2.92,0,0,1,89.17,78a3.51,3.51,0,0,1-.6,2.05,1.79,1.79,0,0,1-1.52.86A2,2,0,0,1,85.4,80a3.46,3.46,0,0,1-.64-2.11,2.24,2.24,0,0,1,2.42-2.5Zm1.12,2.69A2.77,2.77,0,0,0,88,76.7a1,1,0,0,0-1-.45,1.38,1.38,0,0,0-1.08.43,1.75,1.75,0,0,0-.38,1.21A2.75,2.75,0,0,0,86,79.35a1.26,1.26,0,0,0,1.13.67.88.88,0,0,0,.7-.35A2.42,2.42,0,0,0,88.31,78.11Z"/><path class="cls-2" d="M90.48,80.91c-.22,0-.34-.1-.34-.29l0-4.88a.34.34,0,0,1,.12-.27.44.44,0,0,1,.29-.1.53.53,0,0,1,.3.08.34.34,0,0,1,.14.28q0,.2,0,.88,0,3.2,0,3.9a.38.38,0,0,1-.19.28A.6.6,0,0,1,90.48,80.91Z"/><path class="cls-2" d="M92.93,77.16l-.13,2.92c0,.26,0,.43,0,.52a.37.37,0,0,1-.42.32.38.38,0,0,1-.26-.1.37.37,0,0,1-.13-.26q.1-3.12.1-3.37v-.55a2.23,2.23,0,0,1,.06-.54.4.4,0,0,1,.43-.32A.71.71,0,0,1,93,76a7.47,7.47,0,0,1,.73.84,13.25,13.25,0,0,1,1.73,2.65q0-1.7-.08-2.6t-.06-1v-.1a.47.47,0,0,1,.49-.46.4.4,0,0,1,.29.14.48.48,0,0,1,.13.34l.06,4.46q0,.62-.5.62a.57.57,0,0,1-.47-.21,3.23,3.23,0,0,1-.24-.33L94.84,80A14.86,14.86,0,0,0,92.93,77.16Z"/><path class="cls-2" d="M100,75.37a2.06,2.06,0,0,1,.94.22q.43.22.43.53a.38.38,0,0,1-.13.29.45.45,0,0,1-.31.12.81.81,0,0,1-.41-.14,1.15,1.15,0,0,0-.6-.14,1.49,1.49,0,0,0-1.25.64,2.27,2.27,0,0,0-.48,1.4,2.36,2.36,0,0,0,.34,1.29.94.94,0,0,0,.78.53,1.1,1.1,0,0,0,.73-.23.74.74,0,0,0,.28-.59q0-.62-.23-.62a2.46,2.46,0,0,1-.7-.07.28.28,0,0,1-.19-.29q0-.43.38-.47H100a1.64,1.64,0,0,1,.54.1.69.69,0,0,1,.47.46,5.93,5.93,0,0,1,.18,1.39V80q0,.2,0,.33a2.08,2.08,0,0,1,0,.29.35.35,0,0,1-.11.22.45.45,0,0,1-.26.06.43.43,0,0,1-.28-.08.45.45,0,0,1-.13-.28,2,2,0,0,1-1.13.37,1.52,1.52,0,0,1-1-.4,2.46,2.46,0,0,1-.69-1,3.35,3.35,0,0,1-.23-1.2A3,3,0,0,1,98,76.19,2.54,2.54,0,0,1,100,75.37Z"/><path class="cls-2" d="M107.51,76.09l0,2.84q0,.89,0,1.56a.32.32,0,0,1-.15.29.57.57,0,0,1-.33.11c-.21,0-.31-.11-.31-.34q0-1.31,0-2.49t.07-1.95q-.72.06-1.46.06-.37,0-.37-.31a.42.42,0,0,1,.14-.29.47.47,0,0,1,.31-.16l3.74-.12c.22,0,.32.15.32.31q0,.49-1.13.49Z"/><path class="cls-2" d="M112.63,75.42a1.75,1.75,0,0,1,1.43.68,2.92,2.92,0,0,1,.55,1.87A3.51,3.51,0,0,1,114,80a1.79,1.79,0,0,1-1.52.86,2,2,0,0,1-1.64-.86,3.46,3.46,0,0,1-.64-2.11,2.24,2.24,0,0,1,2.42-2.5Zm1.12,2.69a2.77,2.77,0,0,0-.28-1.41,1,1,0,0,0-1-.45,1.38,1.38,0,0,0-1.08.43,1.75,1.75,0,0,0-.38,1.21,2.75,2.75,0,0,0,.41,1.46,1.26,1.26,0,0,0,1.13.67.88.88,0,0,0,.7-.35A2.42,2.42,0,0,0,113.75,78.11Z"/><path class="cls-2" d="M119.84,80.92H118.7c-.2,0-.31-.06-.34-.18a12.29,12.29,0,0,1-.07-1.57l.08-3.48c0-.2.15-.3.46-.3a.6.6,0,0,1,.37.11.35.35,0,0,1,.14.3q0,.5-.13,1.39a16.72,16.72,0,0,0-.13,1.7q0,.53,0,1.28L120.9,80a.36.36,0,0,1,.4.41q0,.34-.25.38A7.88,7.88,0,0,1,119.84,80.92Z"/><path class="cls-2" d="M123,78.21l0,1.57a2.13,2.13,0,0,1,0,.34l2.08,0q.35,0,.35.3c0,.34-.16.5-.47.5l-2.35,0a.36.36,0,0,1-.32-.15.64.64,0,0,1-.11-.32q0-.17,0-.37v-2a.27.27,0,0,1-.16-.25.41.41,0,0,1,.13-.3q0-.94,0-1.7,0-.44.54-.46H123l2.1,0h0q.38,0,.38.36a.34.34,0,0,1-.14.32,4,4,0,0,1-1.5.17q-.44,0-.89,0,0,1.08,0,1.21h1.84q.37,0,.37.34a.41.41,0,0,1-.12.28.42.42,0,0,1-.26.15l-.59,0Z"/><path class="cls-2" d="M127.43,80.58c0,.2-.17.3-.43.3s-.38-.1-.38-.31a12.31,12.31,0,0,1,.7-2.88A8.19,8.19,0,0,1,128,76q.38-.66.74-.66a.41.41,0,0,1,.34.23q.14.23.52,1a11.06,11.06,0,0,1,.63,1.72q.25.91.55,2.21a.3.3,0,0,1-.11.25.4.4,0,0,1-.26.09.44.44,0,0,1-.48-.34l-.42-1.64a6.85,6.85,0,0,1-1.69-.17A13.06,13.06,0,0,0,127.43,80.58Zm1.3-4.1a6.88,6.88,0,0,0-.65,1.5,4.78,4.78,0,0,0,1.25.14A11.06,11.06,0,0,0,128.72,76.48Z"/><path class="cls-2" d="M132.77,80.46a.39.39,0,0,1-.17.31.59.59,0,0,1-.37.13q-.26,0-.26-.24,0-.56,0-4.48a.66.66,0,0,1,.46-.6,3,3,0,0,1,1.24-.22,2.41,2.41,0,0,1,1.36.38,1.1,1.1,0,0,1,.58.92,1.05,1.05,0,0,1-.23.59,2.11,2.11,0,0,1-.49.51,7.5,7.5,0,0,1-.74.45,3.64,3.64,0,0,1-.59.29,8.6,8.6,0,0,1,1.34,1q.59.56.59.89a.4.4,0,0,1-.29.42l-.22,0c-.09,0-.2-.09-.34-.26a6.35,6.35,0,0,0-.77-.74,13.69,13.69,0,0,0-1.12-.87q0,1,0,1.43Zm0-2.51a3.07,3.07,0,0,0,1.19-.39q.79-.39.83-.73a.52.52,0,0,0-.36-.49,1.82,1.82,0,0,0-.76-.16,3.64,3.64,0,0,0-.89.11Q132.72,76.87,132.72,78Z"/><path class="cls-2" d="M137.57,77.16l-.13,2.92c0,.26,0,.43,0,.52a.37.37,0,0,1-.42.32.38.38,0,0,1-.26-.1.37.37,0,0,1-.13-.26q.1-3.12.1-3.37v-.55a2.23,2.23,0,0,1,.06-.54.4.4,0,0,1,.43-.32.71.71,0,0,1,.42.23,7.47,7.47,0,0,1,.73.84,13.25,13.25,0,0,1,1.73,2.65q0-1.7-.08-2.6t-.06-1v-.1a.47.47,0,0,1,.49-.46.4.4,0,0,1,.29.14.48.48,0,0,1,.13.34l.06,4.46q0,.62-.5.62a.57.57,0,0,1-.47-.21,3.23,3.23,0,0,1-.24-.33l-.22-.38A14.86,14.86,0,0,0,137.57,77.16Z"/><path class="cls-2" d="M21,95c0,.2-.17.3-.43.3s-.38-.1-.38-.31a12.3,12.3,0,0,1,.7-2.88,8.18,8.18,0,0,1,.7-1.66q.38-.66.74-.66a.41.41,0,0,1,.34.23q.14.23.52,1a11,11,0,0,1,.63,1.72q.25.91.55,2.21a.3.3,0,0,1-.11.25.4.4,0,0,1-.26.09.44.44,0,0,1-.48-.34l-.42-1.64a6.85,6.85,0,0,1-1.69-.17A13.06,13.06,0,0,0,21,95Zm1.3-4.1a6.88,6.88,0,0,0-.65,1.5,4.75,4.75,0,0,0,1.25.14A11.09,11.09,0,0,0,22.31,90.88Z"/><path class="cls-2" d="M25.72,90.19a1.16,1.16,0,0,1,1.08-.44,2.18,2.18,0,0,1,1.34.39,1.22,1.22,0,0,1,.52,1,1.4,1.4,0,0,1-.37,1,1.12,1.12,0,0,1,.7.52,1.62,1.62,0,0,1,.28.89,1.74,1.74,0,0,1-.54,1.3q-.38.41-3.22.41s0-.21,0-.52q0-1.37,0-3.07A3.18,3.18,0,0,1,25.72,90.19Zm1.8,2.57a9.05,9.05,0,0,0-1.24.1c0,.17,0,.39,0,.68s0,.63.06,1h.35a5.48,5.48,0,0,0,.74-.07q1.09-.18,1.09-.9T27.52,92.76ZM26.3,91.11v1a2.73,2.73,0,0,0,1.15-.22.76.76,0,0,0,.49-.74.55.55,0,0,0-.29-.47,1.23,1.23,0,0,0-.68-.19.72.72,0,0,0-.53.14A.66.66,0,0,0,26.3,91.11Z"/><path class="cls-2" d="M32.62,89.82a1.75,1.75,0,0,1,1.43.68,2.92,2.92,0,0,1,.55,1.87,3.51,3.51,0,0,1-.6,2.05,1.79,1.79,0,0,1-1.52.86,2,2,0,0,1-1.64-.86,3.47,3.47,0,0,1-.64-2.11,2.24,2.24,0,0,1,2.42-2.5Zm1.12,2.69a2.77,2.77,0,0,0-.28-1.41,1,1,0,0,0-1-.45,1.38,1.38,0,0,0-1.08.43A1.75,1.75,0,0,0,31,92.29a2.75,2.75,0,0,0,.41,1.46,1.26,1.26,0,0,0,1.13.67.87.87,0,0,0,.7-.35A2.42,2.42,0,0,0,33.73,92.51Z"/><path class="cls-2" d="M39.07,90.25a.67.67,0,0,1,0-.16.32.32,0,0,1,.15-.23.49.49,0,0,1,.31-.12.45.45,0,0,1,.28.1.31.31,0,0,1,.14.22q.12,1.21.12,1.91T40,93a2.79,2.79,0,0,1-.58,1.71,2,2,0,0,1-1.53.55,1.85,1.85,0,0,1-1.26-.44,2.34,2.34,0,0,1-.71-1.15,8.46,8.46,0,0,1-.31-2.38,11,11,0,0,1,.06-1.14.35.35,0,0,1,.19-.28.62.62,0,0,1,.32-.11.34.34,0,0,1,.25.1.31.31,0,0,1,.08.25q-.06.63-.06,1.12c0,.33,0,.63,0,.89a4,4,0,0,0,.44,1.64,1.1,1.1,0,0,0,1,.68q1.31,0,1.31-2.23A10.54,10.54,0,0,0,39.07,90.25Z"/><path class="cls-2" d="M43.45,90.49l0,2.84q0,.89,0,1.56a.32.32,0,0,1-.15.29.57.57,0,0,1-.33.11c-.21,0-.31-.11-.31-.34q0-1.31,0-2.49t.07-2q-.72.06-1.46.06-.37,0-.37-.31A.42.42,0,0,1,41,90a.47.47,0,0,1,.31-.16l3.74-.12c.22,0,.32.15.32.31q0,.49-1.13.49Z"/><path class="cls-2" d="M49.27,95a.33.33,0,0,1-.16-.25.37.37,0,0,1,.08-.23q-.12-.92-.17-2.14T49,91q0-.16,0-.35a2.37,2.37,0,0,1,.05-.41.5.5,0,0,1,.55-.46A3.42,3.42,0,0,1,52,90.9a3.34,3.34,0,0,1,1.15,2.42,1.8,1.8,0,0,1-.61,1.48,2.57,2.57,0,0,1-1.67.5,5,5,0,0,1-.58,0,.45.45,0,0,1-.16.34.52.52,0,0,1-.36.14.34.34,0,0,1-.37-.31Zm.61-4.32c0,.09,0,.24,0,.46s0,.69.07,1.43.1,1.37.17,1.89a5.56,5.56,0,0,0,.74,0q1.4,0,1.4-.79a2.78,2.78,0,0,0-.64-1.8A4,4,0,0,0,49.89,90.67Z"/><path class="cls-2" d="M54.51,95.31c-.22,0-.34-.1-.34-.29l0-4.88a.34.34,0,0,1,.12-.27.44.44,0,0,1,.29-.1.52.52,0,0,1,.3.08.34.34,0,0,1,.14.28q0,.2,0,.88,0,3.2,0,3.9a.38.38,0,0,1-.19.28A.6.6,0,0,1,54.51,95.31Z"/><path class="cls-2" d="M58.31,92.77H56.87q0,1.12,0,2,0,.56-.37.56c-.25,0-.39-.15-.43-.46a9.33,9.33,0,0,1,0-1V92q0-1,0-1.34c-.21,0-.31-.18-.31-.46a.44.44,0,0,1,.11-.24.39.39,0,0,1,.29-.18l.56,0q.41,0,1.48,0a.45.45,0,0,1,.22-.06l.5,0q.39,0,1.78,0,.7,0,.7.38c0,.2-.06.32-.19.36l-.08,0-.11,0-.1,0-.28,0H60l-.93,0V92h1.56a.3.3,0,0,1,.22.12.41.41,0,0,1,.11.28.44.44,0,0,1-.1.29.36.36,0,0,1-.29.13H59.1q0,1.1,0,2c0,.38-.12.56-.37.56s-.39-.15-.43-.46Q58.31,94.75,58.31,92.77ZM56.87,92h1.44q0-1,0-1.27h-.55l-.88,0Z"/><path class="cls-2" d="M63.33,92.61l0,1.57a2.13,2.13,0,0,1,0,.34l2.08,0c.23,0,.35.12.35.3,0,.34-.16.5-.47.5l-2.35,0a.36.36,0,0,1-.32-.15.63.63,0,0,1-.11-.32q0-.17,0-.37v-2a.27.27,0,0,1-.16-.25.41.41,0,0,1,.13-.3q0-.94,0-1.7,0-.44.54-.46h.34l2.1,0h0q.38,0,.38.36a.34.34,0,0,1-.14.32,4,4,0,0,1-1.5.17q-.44,0-.89,0,0,1.08,0,1.21h1.84q.37,0,.37.34a.41.41,0,0,1-.12.28.43.43,0,0,1-.26.15l-.59,0Z"/><path class="cls-2" d="M67.81,94.86a.39.39,0,0,1-.17.31.59.59,0,0,1-.37.13q-.26,0-.26-.24,0-.56,0-4.48a.67.67,0,0,1,.46-.6,3,3,0,0,1,1.24-.22,2.41,2.41,0,0,1,1.36.38,1.1,1.1,0,0,1,.58.92,1,1,0,0,1-.23.59,2.11,2.11,0,0,1-.49.51,7.59,7.59,0,0,1-.74.45,3.62,3.62,0,0,1-.59.29,8.63,8.63,0,0,1,1.34,1q.59.57.59.89a.4.4,0,0,1-.29.42l-.22,0c-.09,0-.2-.08-.34-.26a6.35,6.35,0,0,0-.77-.74,13.79,13.79,0,0,0-1.12-.87q0,1,0,1.43Zm0-2.51A3.07,3.07,0,0,0,69,92c.53-.26.8-.5.83-.73a.52.52,0,0,0-.36-.49,1.83,1.83,0,0,0-.76-.16,3.64,3.64,0,0,0-.89.11Q67.77,91.27,67.77,92.35Z"/><path class="cls-2" d="M72.69,92.61l0,1.57a2.13,2.13,0,0,1,0,.34l2.08,0c.23,0,.35.12.35.3,0,.34-.16.5-.47.5l-2.35,0a.36.36,0,0,1-.32-.15.63.63,0,0,1-.11-.32q0-.17,0-.37v-2a.27.27,0,0,1-.16-.25.41.41,0,0,1,.13-.3q0-.94,0-1.7,0-.44.54-.46h.34l2.1,0h0q.38,0,.38.36a.34.34,0,0,1-.14.32,4,4,0,0,1-1.5.17q-.44,0-.89,0,0,1.08,0,1.21h1.84q.37,0,.37.34a.41.41,0,0,1-.12.28.43.43,0,0,1-.26.15l-.59,0Z"/><path class="cls-2" d="M77.17,91.56,77,94.48c0,.26,0,.43,0,.52a.37.37,0,0,1-.42.32.38.38,0,0,1-.26-.1.37.37,0,0,1-.13-.26q.1-3.12.1-3.37V91a2.23,2.23,0,0,1,.06-.54.4.4,0,0,1,.43-.32.71.71,0,0,1,.42.23,7.56,7.56,0,0,1,.73.84,13.27,13.27,0,0,1,1.73,2.65q0-1.7-.08-2.6t-.06-1v-.1a.47.47,0,0,1,.49-.46.4.4,0,0,1,.29.14.48.48,0,0,1,.13.34l.06,4.46q0,.62-.5.62a.57.57,0,0,1-.47-.21,3.29,3.29,0,0,1-.24-.33l-.22-.38A14.87,14.87,0,0,0,77.17,91.56Z"/><path class="cls-2" d="M84,90.49l0,2.84q0,.89,0,1.56a.32.32,0,0,1-.15.29.57.57,0,0,1-.33.11c-.21,0-.31-.11-.31-.34q0-1.31,0-2.49t.07-2q-.72.06-1.46.06-.37,0-.37-.31A.42.42,0,0,1,81.5,90a.47.47,0,0,1,.31-.16l3.74-.12c.22,0,.32.15.32.31q0,.49-1.13.49Z"/><path class="cls-2" d="M90.45,92.61l0,1.57a2.13,2.13,0,0,1,0,.34l2.08,0c.23,0,.35.12.35.3,0,.34-.16.5-.47.5l-2.35,0a.36.36,0,0,1-.32-.15.63.63,0,0,1-.11-.32q0-.17,0-.37v-2a.27.27,0,0,1-.16-.25.41.41,0,0,1,.13-.3q0-.94,0-1.7,0-.44.54-.46h.34l2.1,0h0q.38,0,.38.36a.34.34,0,0,1-.14.32,4,4,0,0,1-1.5.17q-.44,0-.89,0,0,1.08,0,1.21h1.84q.37,0,.37.34a.41.41,0,0,1-.12.28.43.43,0,0,1-.26.15l-.59,0Z"/><path class="cls-2" d="M95.45,95.32H94.31c-.2,0-.31-.06-.34-.18a12.28,12.28,0,0,1-.07-1.57L94,90.07c0-.2.15-.3.46-.3a.6.6,0,0,1,.37.11.35.35,0,0,1,.14.3q0,.5-.13,1.39a16.74,16.74,0,0,0-.13,1.7q0,.53,0,1.28l1.78-.11a.36.36,0,0,1,.4.41q0,.34-.25.38A7.88,7.88,0,0,1,95.45,95.32Z"/><path class="cls-2" d="M98.6,92.61l0,1.57a2.13,2.13,0,0,1,0,.34l2.08,0c.23,0,.35.12.35.3,0,.34-.16.5-.47.5l-2.35,0a.36.36,0,0,1-.32-.15.63.63,0,0,1-.11-.32q0-.17,0-.37v-2a.27.27,0,0,1-.16-.25.41.41,0,0,1,.13-.3q0-.94,0-1.7,0-.44.54-.46h.34l2.1,0h0q.38,0,.38.36a.34.34,0,0,1-.14.32,4,4,0,0,1-1.5.17q-.44,0-.89,0,0,1.08,0,1.21h1.84q.37,0,.37.34a.41.41,0,0,1-.12.28.43.43,0,0,1-.26.15l-.59,0Z"/><path class="cls-2" d="M106.67,89.49a.3.3,0,0,1,.35.34q0,2.14,0,5a.51.51,0,0,1-.14.35.56.56,0,0,1-.44.16q-.3,0-.3-.4,0-1.27,0-1.89t0-1.34a3,3,0,0,1-.86.76,2.39,2.39,0,0,1-1.1.22,1.47,1.47,0,0,1-1.07-.37q0,2.15,0,2.52c0,.34-.2.5-.56.5s-.32-.12-.32-.35l0-2.22V90.37a.5.5,0,0,1,.13-.32.39.39,0,0,1,.31-.16A.63.63,0,0,1,103,90a.28.28,0,0,1,.15.23,2,2,0,0,0,.35,1.09.92.92,0,0,0,.75.48,1.7,1.7,0,0,0,1.68-1.31l.1-.31a2.58,2.58,0,0,1,.13-.35.69.69,0,0,1,.19-.21A.5.5,0,0,1,106.67,89.49Z"/><path class="cls-2" d="M108.92,92.61l0,1.57a2.13,2.13,0,0,1,0,.34l2.08,0c.23,0,.35.12.35.3,0,.34-.16.5-.47.5l-2.35,0a.36.36,0,0,1-.32-.15.63.63,0,0,1-.11-.32q0-.17,0-.37v-2a.27.27,0,0,1-.16-.25.41.41,0,0,1,.13-.3q0-.94,0-1.7,0-.44.54-.46h.34l2.1,0h0q.38,0,.38.36a.34.34,0,0,1-.14.32,4,4,0,0,1-1.5.17q-.44,0-.89,0,0,1.08,0,1.21h1.84q.37,0,.37.34a.41.41,0,0,1-.12.28.43.43,0,0,1-.26.15l-.59,0Z"/><path class="cls-2" d="M113.41,91.56l-.13,2.92c0,.26,0,.43,0,.52a.37.37,0,0,1-.42.32.38.38,0,0,1-.26-.1.37.37,0,0,1-.13-.26q.1-3.12.1-3.37V91a2.23,2.23,0,0,1,.06-.54.4.4,0,0,1,.43-.32.71.71,0,0,1,.42.23,7.56,7.56,0,0,1,.73.84,13.27,13.27,0,0,1,1.73,2.65q0-1.7-.08-2.6t-.06-1v-.1a.47.47,0,0,1,.49-.46.4.4,0,0,1,.29.14.48.48,0,0,1,.13.34l.06,4.46q0,.62-.5.62a.57.57,0,0,1-.47-.21,3.29,3.29,0,0,1-.24-.33l-.22-.38A14.87,14.87,0,0,0,113.41,91.56Z"/><path class="cls-2" d="M120.19,90.49l0,2.84q0,.89,0,1.56a.32.32,0,0,1-.15.29.57.57,0,0,1-.33.11c-.21,0-.31-.11-.31-.34q0-1.31,0-2.49t.07-2q-.72.06-1.46.06-.37,0-.37-.31a.42.42,0,0,1,.14-.29.47.47,0,0,1,.31-.16l3.74-.12c.22,0,.32.15.32.31q0,.49-1.13.49Z"/><path class="cls-2" d="M123,91.12a1.16,1.16,0,0,1,.58-1,2.41,2.41,0,0,1,1.41-.4,2.91,2.91,0,0,1,1.27.22c.29.14.43.33.43.55a.35.35,0,0,1-.1.26.33.33,0,0,1-.25.1,1.83,1.83,0,0,1-.57-.19,1.9,1.9,0,0,0-.77-.19,1.63,1.63,0,0,0-.72.19c-.25.12-.38.28-.38.46s.15.35.46.49a5.91,5.91,0,0,0,1.08.37,2.76,2.76,0,0,1,.83.31,2.44,2.44,0,0,1,.3.24,1,1,0,0,1,.19.35,2,2,0,0,1,.1.67,1.52,1.52,0,0,1-.57,1.3,2.2,2.2,0,0,1-1.36.43,3.29,3.29,0,0,1-1.35-.25q-.56-.25-.56-.62a.45.45,0,0,1,.16-.34.31.31,0,0,1,.34-.08,5.74,5.74,0,0,0,1.42.44,1.12,1.12,0,0,0,.79-.26.86.86,0,0,0,.28-.65.69.69,0,0,0-.31-.61,2.15,2.15,0,0,0-.75-.31L124,92.4a1.72,1.72,0,0,1-.75-.42A1.14,1.14,0,0,1,123,91.12Z"/><path class="cls-2" d="M130.76,95.31c-.22,0-.34-.1-.34-.29l0-4.88a.34.34,0,0,1,.12-.27.44.44,0,0,1,.29-.1.52.52,0,0,1,.3.08.34.34,0,0,1,.14.28q0,.2,0,.88,0,3.2,0,3.9a.38.38,0,0,1-.19.28A.6.6,0,0,1,130.76,95.31Z"/><path class="cls-2" d="M133.21,91.56l-.13,2.92c0,.26,0,.43,0,.52a.37.37,0,0,1-.42.32.38.38,0,0,1-.26-.1.37.37,0,0,1-.13-.26q.1-3.12.1-3.37V91a2.23,2.23,0,0,1,.06-.54.4.4,0,0,1,.43-.32.71.71,0,0,1,.42.23,7.56,7.56,0,0,1,.73.84,13.27,13.27,0,0,1,1.73,2.65q0-1.7-.08-2.6t-.06-1v-.1a.47.47,0,0,1,.49-.46.4.4,0,0,1,.29.14.48.48,0,0,1,.13.34l.06,4.46q0,.62-.5.62a.57.57,0,0,1-.47-.21,3.29,3.29,0,0,1-.24-.33l-.22-.38A14.87,14.87,0,0,0,133.21,91.56Z"/><path class="cls-2" d="M22.57,104.89l0,2.84q0,.89,0,1.56a.32.32,0,0,1-.15.29.58.58,0,0,1-.33.11c-.21,0-.31-.11-.31-.34q0-1.31,0-2.49t.07-1.95q-.72.06-1.46.06-.37,0-.37-.31a.42.42,0,0,1,.14-.29.46.46,0,0,1,.31-.16l3.74-.12c.22,0,.32.15.32.31q0,.49-1.13.49Z"/><path class="cls-2" d="M28.87,107.26V109q0,.67-.43.67a.47.47,0,0,1-.31-.08.3.3,0,0,1-.09-.26q0-.64,0-2a5.75,5.75,0,0,1-.63,0q-.43,0-1.33-.1v.25q0,.25.1,1.82a.28.28,0,0,1-.14.28.59.59,0,0,1-.31.09.33.33,0,0,1-.25-.09.34.34,0,0,1-.1-.21q-.13-1.25-.13-1.89t0-.87l0-2a.33.33,0,0,1,.16-.25.55.55,0,0,1,.32-.1c.21,0,.31.09.31.26l0,1.88a6.65,6.65,0,0,0,1,.1h.91q0-.66,0-2a.32.32,0,0,1,.16-.28.62.62,0,0,1,.35-.11.26.26,0,0,1,.26.17.68.68,0,0,1,.06.32Z"/><path class="cls-2" d="M30.87,107l0,1.57a2.12,2.12,0,0,1,0,.34l2.08,0c.23,0,.35.12.35.3,0,.34-.16.5-.47.5l-2.35,0a.36.36,0,0,1-.32-.15.64.64,0,0,1-.11-.32q0-.17,0-.37v-2a.27.27,0,0,1-.16-.25.41.41,0,0,1,.13-.3q0-.94,0-1.7,0-.44.54-.46h.34l2.1,0h0q.38,0,.38.36a.34.34,0,0,1-.14.32,4,4,0,0,1-1.5.17c-.3,0-.59,0-.89,0q0,1.08,0,1.21h1.84c.25,0,.37.14.37.34a.41.41,0,0,1-.12.28.42.42,0,0,1-.26.15l-.59,0Z"/><path class="cls-2" d="M38.67,104.16a2.32,2.32,0,0,1,1.39.38,1.19,1.19,0,0,1,.52,1A1.71,1.71,0,0,1,40,107a1.94,1.94,0,0,1-1.2.34,4.4,4.4,0,0,1-.62,0q0,.71,0,1.23c0,.35,0,.65,0,.91s-.13.28-.35.28a.53.53,0,0,1-.43-.13.64.64,0,0,1-.1-.4v-4.51Q37.3,104.16,38.67,104.16Zm-.55.85c0,.24,0,.5,0,.77v.65a6.22,6.22,0,0,0,.7,0,1.27,1.27,0,0,0,.64-.14.75.75,0,0,0,.35-.72v-.11c0-.21-.21-.36-.58-.46a2.21,2.21,0,0,0-.58-.08A2.55,2.55,0,0,0,38.11,105Z"/><path class="cls-2" d="M42.63,107l0,1.57a2.12,2.12,0,0,1,0,.34l2.08,0c.23,0,.35.12.35.3,0,.34-.16.5-.47.5l-2.35,0a.36.36,0,0,1-.32-.15.64.64,0,0,1-.11-.32q0-.17,0-.37v-2a.27.27,0,0,1-.16-.25.41.41,0,0,1,.13-.3q0-.94,0-1.7,0-.44.54-.46h.34l2.1,0h0q.38,0,.38.36a.34.34,0,0,1-.14.32,4,4,0,0,1-1.5.17c-.3,0-.59,0-.89,0q0,1.08,0,1.21h1.84c.25,0,.37.14.37.34a.41.41,0,0,1-.12.28.42.42,0,0,1-.26.15l-.59,0Z"/><path class="cls-2" d="M47.11,109.26a.39.39,0,0,1-.17.31.59.59,0,0,1-.37.13q-.26,0-.26-.24,0-.56,0-4.48a.66.66,0,0,1,.46-.6,2.94,2.94,0,0,1,1.24-.22,2.41,2.41,0,0,1,1.36.38,1.1,1.1,0,0,1,.58.92,1.05,1.05,0,0,1-.23.59,2.12,2.12,0,0,1-.49.51,7.4,7.4,0,0,1-.74.45,3.66,3.66,0,0,1-.59.29,8.57,8.57,0,0,1,1.34,1q.59.56.59.89a.4.4,0,0,1-.29.42.78.78,0,0,1-.22,0q-.13,0-.34-.26a6.35,6.35,0,0,0-.77-.74,13.6,13.6,0,0,0-1.12-.87q0,1,0,1.43Zm0-2.51a3.07,3.07,0,0,0,1.19-.39q.79-.39.83-.73a.52.52,0,0,0-.36-.49A1.82,1.82,0,0,0,48,105a3.64,3.64,0,0,0-.89.11Q47.07,105.67,47.07,106.75Z"/><path class="cls-2" d="M51.27,109.7c-.22,0-.34-.1-.34-.29l0-4.88a.33.33,0,0,1,.12-.27.43.43,0,0,1,.29-.1.53.53,0,0,1,.3.08.34.34,0,0,1,.14.28q0,.2,0,.88,0,3.2,0,3.9a.37.37,0,0,1-.19.28A.6.6,0,0,1,51.27,109.7Z"/><path class="cls-2" d="M55.18,104.22a1.75,1.75,0,0,1,1.43.68,2.93,2.93,0,0,1,.55,1.87,3.5,3.5,0,0,1-.6,2.05,1.79,1.79,0,0,1-1.52.86,2,2,0,0,1-1.64-.86,3.46,3.46,0,0,1-.64-2.11,2.24,2.24,0,0,1,2.42-2.5Zm1.12,2.69A2.78,2.78,0,0,0,56,105.5a1,1,0,0,0-1-.45,1.38,1.38,0,0,0-1.08.43,1.75,1.75,0,0,0-.38,1.21,2.76,2.76,0,0,0,.41,1.46,1.26,1.26,0,0,0,1.13.67.88.88,0,0,0,.7-.35A2.43,2.43,0,0,0,56.29,106.91Z"/><path class="cls-2" d="M58.51,109.39a.33.33,0,0,1-.16-.25.38.38,0,0,1,.08-.23q-.12-.92-.17-2.14t0-1.37c0-.11,0-.22,0-.35a2.36,2.36,0,0,1,.05-.41.5.5,0,0,1,.55-.46,3.42,3.42,0,0,1,2.38,1.12,3.34,3.34,0,0,1,1.15,2.42,1.8,1.8,0,0,1-.61,1.48,2.57,2.57,0,0,1-1.67.5,4.75,4.75,0,0,1-.58,0,.45.45,0,0,1-.16.34.52.52,0,0,1-.36.14.34.34,0,0,1-.37-.31Zm.61-4.32c0,.09,0,.24,0,.46s0,.69.07,1.43.1,1.37.17,1.89a5.86,5.86,0,0,0,.74,0q1.4,0,1.4-.79a2.78,2.78,0,0,0-.64-1.8A4,4,0,0,0,59.13,105.07Z"/><path class="cls-2" d="M63.75,109.7c-.22,0-.34-.1-.34-.29l0-4.88a.33.33,0,0,1,.12-.27.43.43,0,0,1,.29-.1.53.53,0,0,1,.3.08.34.34,0,0,1,.14.28q0,.2,0,.88,0,3.2,0,3.9a.37.37,0,0,1-.19.28A.6.6,0,0,1,63.75,109.7Z"/><path class="cls-2" d="M69.1,105.19l-1-.12A1.72,1.72,0,0,0,66.18,107a2.08,2.08,0,0,0,.59,1.56.83.83,0,0,0,.6.3,4,4,0,0,0,1.09-.28,8.31,8.31,0,0,1,.84-.28c.22,0,.32.1.32.3a.52.52,0,0,1-.28.43,6.53,6.53,0,0,1-2.17.64,1.44,1.44,0,0,1-.8-.26,1.9,1.9,0,0,1-.62-.68,3.55,3.55,0,0,1-.47-1.78,2.67,2.67,0,0,1,.77-2,2.71,2.71,0,0,1,2-.74,4.33,4.33,0,0,1,1.38.23h0a.37.37,0,0,1,.22.3.39.39,0,0,1-.17.31A.56.56,0,0,1,69.1,105.19Z"/><path class="cls-2" d="M75.85,104.89l0,2.84q0,.89,0,1.56a.32.32,0,0,1-.15.29.58.58,0,0,1-.33.11c-.21,0-.31-.11-.31-.34q0-1.31,0-2.49t.07-1.95q-.72.06-1.46.06-.37,0-.37-.31a.42.42,0,0,1,.14-.29.46.46,0,0,1,.31-.16l3.74-.12c.22,0,.32.15.32.31q0,.49-1.13.49Z"/><path class="cls-2" d="M79.45,109.38c0,.2-.17.3-.43.3s-.38-.1-.38-.31a12.32,12.32,0,0,1,.7-2.88,8.2,8.2,0,0,1,.7-1.66q.38-.66.74-.66a.41.41,0,0,1,.34.23q.14.23.52,1a11.07,11.07,0,0,1,.63,1.72q.25.91.55,2.21a.3.3,0,0,1-.11.25.4.4,0,0,1-.26.09.44.44,0,0,1-.48-.34l-.42-1.64a6.85,6.85,0,0,1-1.69-.17A13.06,13.06,0,0,0,79.45,109.38Zm1.3-4.1a6.88,6.88,0,0,0-.65,1.5,4.8,4.8,0,0,0,1.25.14A11,11,0,0,0,80.75,105.28Z"/><path class="cls-2" d="M84.16,104.59a1.16,1.16,0,0,1,1.08-.44,2.18,2.18,0,0,1,1.34.39,1.22,1.22,0,0,1,.52,1,1.4,1.4,0,0,1-.37,1,1.12,1.12,0,0,1,.7.52,1.62,1.62,0,0,1,.28.89,1.74,1.74,0,0,1-.54,1.3q-.38.41-3.22.41s0-.21,0-.52q0-1.37,0-3.07A3.18,3.18,0,0,1,84.16,104.59Zm1.8,2.57a9.05,9.05,0,0,0-1.24.1c0,.17,0,.39,0,.68s0,.63.06,1h.35a5.65,5.65,0,0,0,.74-.07Q87,108.72,87,108T86,107.16Zm-1.22-1.66v1a2.75,2.75,0,0,0,1.15-.22.76.76,0,0,0,.49-.74.55.55,0,0,0-.29-.47,1.23,1.23,0,0,0-.68-.19.71.71,0,0,0-.53.14A.66.66,0,0,0,84.73,105.5Z"/><path class="cls-2" d="M90.11,109.72H89c-.2,0-.31-.06-.34-.18a12.3,12.3,0,0,1-.07-1.57l.08-3.48q0-.3.46-.3a.6.6,0,0,1,.37.11.35.35,0,0,1,.14.3q0,.5-.13,1.39a16.71,16.71,0,0,0-.13,1.7q0,.53,0,1.28l1.78-.11a.35.35,0,0,1,.4.41q0,.34-.25.38A7.88,7.88,0,0,1,90.11,109.72Z"/><path class="cls-2" d="M93.26,107l0,1.57a2.12,2.12,0,0,1,0,.34l2.08,0c.23,0,.35.12.35.3,0,.34-.16.5-.47.5l-2.35,0a.36.36,0,0,1-.32-.15.64.64,0,0,1-.11-.32q0-.17,0-.37v-2a.27.27,0,0,1-.16-.25.41.41,0,0,1,.13-.3q0-.94,0-1.7,0-.44.54-.46h.34l2.1,0h0q.38,0,.38.36a.34.34,0,0,1-.14.32,4,4,0,0,1-1.5.17c-.3,0-.59,0-.89,0q0,1.08,0,1.21h1.84c.25,0,.37.14.37.34a.41.41,0,0,1-.12.28.42.42,0,0,1-.26.15l-.59,0Z"/><path class="cls-2" d="M97.66,108.27a.62.62,0,0,1,.45.19.85.85,0,0,1,.23.53.73.73,0,0,1-.19.49.58.58,0,0,1-.45.22.81.81,0,0,1-.46-.14.48.48,0,0,1-.2-.43,1.05,1.05,0,0,1,.19-.58A.53.53,0,0,1,97.66,108.27Z"/></g></g></svg>