<svg xmlns="http://www.w3.org/2000/svg" viewBox="0 0 215 217.32"><defs><style>.cls-1{fill:#e88c13;}.cls-2{fill:#e8dd1a;}</style></defs><title>sun</title><g id="Layer_2" data-name="Layer 2"><g id="Layer_1-2" data-name="Layer 1"><path class="cls-1" d="M49.36,69.92l1.75-2.44c.37-.51.78-1,1.16-1.5l.06.14,2-2.42a72.23,72.23,0,0,1,8.81-8.92l2.42-2-.12-.06c.44-.33.85-.7,1.3-1l2.39-1.75L31.59,31.75l2.1,4.5Z"/><path class="cls-1" d="M38.78,119.65c-.09-.58-.13-1.18-.21-1.76l.17.05-.28-3.15c-.18-2-.28-4.08-.28-6.13s.1-4.31.28-6.43l.29-3.17-.17.07c.08-.59.11-1.18.2-1.76l.47-3-2.79,1L0,108.51l39.24,14.08Z"/><path class="cls-1" d="M98.23,39l-.06.18,3.12-.29c2.06-.18,4.13-.28,6.21-.28s4.16.11,6.22.28l3.11.29-.06-.18c.58.08,1.18.12,1.76.21l2.91.48L107.5,0l-1.65,4.7-12.29,35,2.92-.48C97.06,39.1,97.65,39.06,98.23,39Z"/><path class="cls-1" d="M149.59,52.74h0l.57.48c1.17.93,2.24,2,3.35,3A71.13,71.13,0,0,1,159.27,62c.95,1.07,1.92,2.11,2.8,3.24l.73.89v0c.35.46.73.9,1.07,1.37l1.73,2.43,18-38.18-4.47,2.16-33.28,16,2.39,1.74C148.7,52,149.13,52.38,149.59,52.74Z"/><path class="cls-1" d="M175.74,122.74,215,108.65,175.74,94.57l.47,2.94c.09.58.13,1.18.21,1.76l-.17-.07.28,3.17c.17,2.08.28,4.17.28,6.28s-.11,4.2-.28,6.27l-.28,3.16.17-.06c-.08.59-.12,1.18-.21,1.76Z"/><path class="cls-1" d="M116.78,178.34l.06-.18-3.13.29c-2.06.18-4.13.29-6.22.29s-4.15-.11-6.21-.29l-3.13-.29.06.18c-.58-.08-1.17-.13-1.74-.22l-2.91-.47,1,2.8,12.94,36.86,13.94-39.67-2.91.47C117.95,178.21,117.36,178.25,116.78,178.34Z"/><path class="cls-1" d="M163.89,149.83c-.32.46-.69.87-1,1.31l0-.12-2,2.45a74.45,74.45,0,0,1-7.15,7.48c-1.3,1.16-2.54,2.41-3.91,3.47-.46.35-.89.74-1.36,1.09L146,167.26l37.62,18.19-18-38Z"/><path class="cls-1" d="M65.27,164.47l.13-.06-2.38-2a70.91,70.91,0,0,1-8.67-8.76l-2-2.41-.06.13c-.38-.51-.8-1-1.17-1.51l-1.73-2.42-1.26,2.7L31.59,185.39l37.59-18-2.41-1.76C66.25,165.29,65.77,164.86,65.27,164.47Z"/><path class="cls-2" d="M156.95,145.21a62.39,62.39,0,0,0-13.18-86.56A60.78,60.78,0,0,0,58.15,72a62.36,62.36,0,0,0,13.18,86.56,60.8,60.8,0,0,0,85.62-13.32Z"/></g></g></svg>