<svg xmlns="http://www.w3.org/2000/svg" viewBox="0 0 68.71 85.1"><defs><style>.cls-1{fill:#353434;}.cls-2{fill:#939393;}.cls-3,.cls-4{fill:none;}.cls-4{stroke:#a3a3a3;stroke-miterlimit:10;stroke-width:0.25px;}</style></defs><title>sword</title><g id="Layer_2" data-name="Layer 2"><g id="Layer_1-2" data-name="Layer 1"><path class="cls-1" d="M68.05,77.69c1.36,1.74.49,4.69-1.47,6.22h0c-2,1.53-5,1.66-6.39-.08l-7-9c-1.36-1.74.3-3.68,2.26-5.21h0c2-1.53,4.24-2.67,5.6-.93Z"/><path class="cls-2" d="M.88,0,0,12.25,52.15,72.69l7.08-5.54L13.15,2Z"/><line class="cls-3" x1="60.96" y1="68.62" x2="53.1" y2="74.76"/><path class="cls-1" d="M55.33,69.59c-3.18,2.49-6.39,3.81-7.86,3.37l3,3.85,13.1-10.24L60.5,62.63C61.3,63.66,58.61,67,55.33,69.59Z"/><line class="cls-4" x1="1.73" y1="1.08" x2="55.73" y2="69.08"/></g></g></svg>