<svg xmlns="http://www.w3.org/2000/svg" viewBox="0 0 94.69 101"><defs><style>.cls-1{fill:#6cb4ea;}.cls-2{fill:#aaa;}.cls-3{fill:#484949;}.cls-4{fill:#1c592f;}.cls-5{fill:#fff;}.cls-6{fill:#196d35;}</style></defs><title>tank</title><g id="Layer_2" data-name="Layer 2"><g id="Layer_1-2" data-name="Layer 1"><path class="cls-1" d="M71,0A15.78,15.78,0,1,0,86.8,15.78,15.81,15.81,0,0,0,71,0Z"/><path class="cls-1" d="M86.8,33.14A7.89,7.89,0,1,0,94.69,41,7.91,7.91,0,0,0,86.8,33.14Z"/><path class="cls-1" d="M71,52.08a4.73,4.73,0,1,0,4.73,4.73A4.76,4.76,0,0,0,71,52.08Z"/><path class="cls-2" d="M23.67,17.36A23.66,23.66,0,0,0,0,41V99.42A1.58,1.58,0,0,0,1.58,101H48.92a1.58,1.58,0,0,0,1.58-1.58V41A23.7,23.7,0,0,0,26.83,17.36Z"/><path class="cls-3" d="M25.25,3.16a5.52,5.52,0,1,0,5.52,5.52A5.55,5.55,0,0,0,25.25,3.16Zm0,3.16a2.37,2.37,0,1,1-2.37,2.37A2.34,2.34,0,0,1,25.25,6.31Z"/><path class="cls-4" d="M34.69,3.95a1.58,1.58,0,0,0-1.55,1.6v6.27a1.58,1.58,0,0,0,3.16,0s0,0,0,0V5.55a1.58,1.58,0,0,0-1.55-1.6h0Z"/><path class="cls-4" d="M30,7.1a1.58,1.58,0,1,0,0,3.16h3.16a1.58,1.58,0,1,0,0-3.16H30Z"/><path class="cls-3" d="M15.76,3.95a1.58,1.58,0,0,0-1.55,1.6v6.27a1.58,1.58,0,0,0,3.16,0s0,0,0,0V5.55a1.58,1.58,0,0,0-1.55-1.6h0Z"/><path class="cls-3" d="M17.38,7.1a1.58,1.58,0,0,0,0,3.16h3.16a1.58,1.58,0,0,0,0-3.16H17.38Z"/><path class="cls-3" d="M1.58,45v3.16H48.92V45Z"/><path class="cls-3" d="M1.58,70.23v3.16H48.92V70.23Z"/><path class="cls-3" d="M12.63,57.6v3.16H37.88V57.6Z"/><path class="cls-5" d="M73.24,7.92A1.58,1.58,0,0,0,72.75,11a6.66,6.66,0,0,1,4.43,5.09,1.58,1.58,0,0,0,3.1-.61h0A9.82,9.82,0,0,0,73.71,8a1.57,1.57,0,0,0-.47-.08Z"/><path class="cls-3" d="M23.67,12.63v6.31h3.16V12.63Z"/><path class="cls-6" d="M3,30H48A25.44,25.44,0,0,0,3,30Z"/></g></g></svg>