<svg xmlns="http://www.w3.org/2000/svg" viewBox="0 0 139.2 159"><defs><style>.cls-1{fill:#999;}.cls-2{fill:#828282;}.cls-3{fill:#6cb4ea;}</style></defs><title>tap</title><g id="Layer_2" data-name="Layer 2"><g id="Layer_1-2" data-name="Layer 1"><path class="cls-1" d="M38.67,92.82H7.74a2.59,2.59,0,0,1-2.58-2.58V59.31A33.56,33.56,0,0,1,38.67,25.8h49a2.59,2.59,0,0,1,2.58,2.58V59.31a2.59,2.59,0,0,1-2.58,2.58H43.83a2.59,2.59,0,0,0-2.58,2.58V90.24A2.59,2.59,0,0,1,38.67,92.82Z"/><path class="cls-1" d="M136.62,61.86H103.11a2.59,2.59,0,0,1-2.58-2.58V28.35a2.59,2.59,0,0,1,2.58-2.58h33.51a2.59,2.59,0,0,1,2.58,2.58V59.28A2.55,2.55,0,0,1,136.62,61.86Z"/><path class="cls-2" d="M103.11,67H87.63A2.59,2.59,0,0,1,85,64.44V23.19a2.59,2.59,0,0,1,2.58-2.58h15.48a2.59,2.59,0,0,1,2.58,2.58V64.44A2.57,2.57,0,0,1,103.11,67Z"/><path class="cls-1" d="M100.53,25.77H90.21a2.59,2.59,0,0,1-2.58-2.58V2.58A2.59,2.59,0,0,1,90.21,0h10.32a2.59,2.59,0,0,1,2.58,2.58V23.19A2.57,2.57,0,0,1,100.53,25.77Z"/><path class="cls-2" d="M124.95,20.64a8.89,8.89,0,0,1-1.57-.16l-23.32-4.59A2.59,2.59,0,0,1,98,13.37V7.27a2.56,2.56,0,0,1,2.08-2.52L123.37.16C129-.94,134.07,4,134.07,10.32,134,16,129.95,20.64,124.95,20.64Z"/><path class="cls-2" d="M65.82,20.64c-5,0-9.12-4.63-9.12-10.32,0-6.26,5-11.26,10.7-10.16L90.71,4.75a2.59,2.59,0,0,1,2.08,2.52v6.07a2.56,2.56,0,0,1-2.08,2.52L67.4,20.45A6.53,6.53,0,0,1,65.82,20.64Z"/><path class="cls-2" d="M43.83,103.11H2.58A2.59,2.59,0,0,1,0,100.53V90.21a2.59,2.59,0,0,1,2.58-2.58H43.83a2.59,2.59,0,0,1,2.58,2.58v10.32A2.57,2.57,0,0,1,43.83,103.11Z"/><path class="cls-3" d="M21.2,106C3.92,117.06-3,134.56,2.2,146c2.81,6.23,10,12.8,19,13,9.37.21,17.1-6.5,20-13C46.37,134.4,39.2,116.61,21.2,106Z"/></g></g></svg>