<svg xmlns="http://www.w3.org/2000/svg" viewBox="0 0 281.31 160.85"><defs><style>.cls-1{fill:#fff;stroke:#d6d6d6;stroke-miterlimit:10;stroke-width:4px;}.cls-2{font-size:24.73px;}.cls-2,.cls-25{fill:#1d42dd;font-family:MarkerFelt-Thin, Marker Felt;}.cls-3{letter-spacing:0.04em;}.cls-4{letter-spacing:-0.13em;}.cls-5{letter-spacing:0.03em;}.cls-6{letter-spacing:0.03em;}.cls-7{letter-spacing:0.04em;}.cls-8{letter-spacing:0.06em;}.cls-9{letter-spacing:0.06em;}.cls-10{letter-spacing:0.04em;}.cls-11{letter-spacing:-0.06em;}.cls-12{letter-spacing:-0.1em;}.cls-13{letter-spacing:0.05em;}.cls-14{letter-spacing:0em;}.cls-15{letter-spacing:-0.12em;}.cls-16{letter-spacing:0.05em;}.cls-17{letter-spacing:0.04em;}.cls-18{letter-spacing:0.03em;}.cls-19{letter-spacing:-0.1em;}.cls-20{letter-spacing:0.08em;}.cls-21{letter-spacing:0.05em;}.cls-22{letter-spacing:0.05em;}.cls-23{letter-spacing:0.04em;}.cls-24{letter-spacing:0.03em;}.cls-25{font-size:29.71px;}.cls-26{letter-spacing:0.02em;}.cls-27{letter-spacing:0.03em;}.cls-28{letter-spacing:0em;}.cls-29{letter-spacing:0.02em;}.cls-30{letter-spacing:-0.02em;}</style></defs><title>whiteboard</title><g id="Layer_2" data-name="Layer 2"><g id="Layer_1-2" data-name="Layer 1"><rect class="cls-1" x="2" y="2" width="277.31" height="156.85"/><text class="cls-2" transform="translate(46.65 41)"> <tspan class="cls-3" x="6.18" y="0">M</tspan><tspan class="cls-4" x="30.12" y="0">r</tspan><tspan x="36.35" y="0">. </tspan><tspan class="cls-5" x="47.23" y="0">E</tspan><tspan class="cls-6" x="58.66" y="0">l</tspan><tspan class="cls-7" x="64.24" y="0">e</tspan><tspan x="74.63" y="0">m</tspan><tspan class="cls-8" x="92.43" y="0">e</tspan><tspan class="cls-9" x="103.41" y="0">n</tspan><tspan class="cls-10" x="116.96" y="0">t</tspan><tspan class="cls-11" x="126.9" y="0">o</tspan><tspan class="cls-12" x="135.56" y="0">’</tspan><tspan x="139.32" y="0">s </tspan><tspan class="cls-13" x="154.65" y="0">l</tspan><tspan class="cls-10" x="160.73" y="0">a</tspan><tspan class="cls-14" x="173.14" y="0">b</tspan></text><text class="cls-2" transform="translate(59.42 84.09)"><tspan class="cls-15">T</tspan><tspan class="cls-16" x="8.83" y="0">o</tspan><tspan class="cls-17" x="20.28" y="0">d</tspan><tspan x="31.85" y="0">a</tspan><tspan class="cls-18" x="43.22" y="0">y</tspan><tspan class="cls-19" x="55.59" y="0">’</tspan><tspan x="59.35" y="0">s </tspan><tspan class="cls-6" x="74.68" y="0">l</tspan><tspan class="cls-20" x="80.27" y="0">e</tspan><tspan class="cls-21" x="91.54" y="0">s</tspan><tspan class="cls-22" x="102" y="0">s</tspan><tspan class="cls-23" x="112.26" y="0">o</tspan><tspan class="cls-14" x="123.47" y="0">n </tspan><tspan class="cls-24" x="141.76" y="0">i</tspan><tspan x="147.55" y="0">s</tspan></text><text class="cls-25" transform="translate(50.13 132.47)">T<tspan class="cls-26" x="14.26" y="0">H</tspan><tspan x="29.86" y="0">E </tspan><tspan class="cls-27" x="50.06" y="0">E</tspan><tspan class="cls-28" x="63.82" y="0">LE</tspan><tspan class="cls-29" x="89.07" y="0">M</tspan><tspan x="117.33" y="0">EN</tspan><tspan class="cls-30" x="147.93" y="0">T</tspan><tspan x="161.44" y="0">S</tspan></text></g></g></svg>